<?xml version="1.0" encoding="utf-8"?>
<!-- Generator: Adobe Illustrator 21.1.0, SVG Export Plug-In . SVG Version: 6.00 Build 0)  -->
<svg version="1.1" id="Layer_1" xmlns="http://www.w3.org/2000/svg" xmlns:xlink="http://www.w3.org/1999/xlink" x="0px" y="0px"
	 viewBox="0 0 550 250" style="enable-background:new 0 0 550 250;" xml:space="preserve">
<style type="text/css">
	.st0{fill:none;}
	.st1{enable-background:new    ;}
	.st2{fill:#FFFFFF;}
</style>
<rect x="174" y="107.5" class="st0" width="293" height="41"/>
<g class="st1">
	<path class="st2" d="M189.3,144.5c-4,0-7.2-1.2-9.5-3.5s-3.4-5.6-3.4-9.7c0-4.2,1.1-7.6,3.2-10s5-3.6,8.7-3.6c3.4,0,6.1,1,8.1,3.1
		s3,4.9,3,8.6v3h-17.3c0.1,2.5,0.8,4.4,2,5.8s3.1,2,5.4,2c1.5,0,3-0.1,4.3-0.4s2.7-0.8,4.3-1.4v4.5c-1.3,0.6-2.7,1.1-4.1,1.4
		S191,144.5,189.3,144.5z M188.2,121.8c-1.8,0-3.2,0.6-4.2,1.7s-1.7,2.7-1.9,4.9h11.8c0-2.1-0.5-3.8-1.5-4.9S190,121.8,188.2,121.8z
		"/>
	<path class="st2" d="M211.1,144h-5.5v-36.5h5.5V144z"/>
	<path class="st2" d="M235.2,144l-1.1-3.6h-0.2c-1.2,1.6-2.5,2.7-3.8,3.2s-2.9,0.9-4.9,0.9c-2.5,0-4.5-0.7-6-2.1s-2.1-3.3-2.1-5.8
		c0-2.7,1-4.7,3-6s5-2.1,9.1-2.2l4.5-0.1v-1.4c0-1.7-0.4-2.9-1.2-3.7s-2-1.2-3.6-1.2c-1.3,0-2.6,0.2-3.8,0.6s-2.4,0.9-3.5,1.4
		l-1.8-3.9c1.4-0.7,2.9-1.3,4.6-1.7s3.2-0.6,4.7-0.6c3.3,0,5.8,0.7,7.5,2.2s2.5,3.7,2.5,6.8V144H235.2z M227,140.2
		c2,0,3.6-0.6,4.8-1.7s1.8-2.7,1.8-4.7v-2.2l-3.3,0.1c-2.6,0.1-4.5,0.5-5.7,1.3s-1.8,2-1.8,3.6c0,1.2,0.3,2.1,1,2.7
		S225.6,140.2,227,140.2z"/>
	<path class="st2" d="M264.2,136.6c0,2.5-0.9,4.5-2.8,5.8s-4.5,2-7.9,2c-3.5,0-6.2-0.5-8.3-1.6v-4.8c3,1.4,5.9,2.1,8.5,2.1
		c3.4,0,5.1-1,5.1-3.1c0-0.7-0.2-1.2-0.6-1.6s-1-0.9-1.9-1.4s-2.1-1-3.6-1.6c-3-1.2-5-2.3-6.1-3.5c-1.1-1.2-1.6-2.7-1.6-4.5
		c0-2.2,0.9-3.9,2.7-5.2s4.2-1.8,7.3-1.8c3,0,5.9,0.6,8.6,1.9l-1.8,4.1c-2.8-1.2-5.1-1.7-7.1-1.7c-2.9,0-4.4,0.8-4.4,2.5
		c0,0.8,0.4,1.5,1.1,2.1s2.4,1.3,5,2.3c2.1,0.8,3.7,1.6,4.7,2.3s1.7,1.5,2.2,2.4S264.2,135.4,264.2,136.6z"/>
	<path class="st2" d="M279.8,140c1.3,0,2.7-0.2,4-0.6v4.1c-0.6,0.3-1.4,0.5-2.4,0.7s-2,0.3-3,0.3c-5.2,0-7.8-2.8-7.8-8.2v-14h-3.5
		v-2.4l3.8-2l1.9-5.5h3.4v5.8h7.4v4.2h-7.4v13.9c0,1.3,0.3,2.3,1,2.9S278.8,140,279.8,140z"/>
	<path class="st2" d="M288.7,111.2c0-1,0.3-1.7,0.8-2.3s1.3-0.8,2.3-0.8c1,0,1.7,0.3,2.3,0.8s0.8,1.3,0.8,2.3c0,0.9-0.3,1.7-0.8,2.2
		s-1.3,0.8-2.3,0.8c-1,0-1.8-0.3-2.3-0.8S288.7,112.1,288.7,111.2z M294.6,144h-5.5v-25.9h5.5V144z"/>
	<path class="st2" d="M312.9,144.5c-3.9,0-6.9-1.1-8.9-3.4s-3.1-5.6-3.1-9.9c0-4.4,1.1-7.7,3.2-10.1s5.2-3.5,9.2-3.5
		c2.7,0,5.2,0.5,7.4,1.5l-1.7,4.4c-2.3-0.9-4.2-1.4-5.8-1.4c-4.5,0-6.7,3-6.7,8.9c0,2.9,0.6,5.1,1.7,6.6s2.8,2.2,4.9,2.2
		c2.5,0,4.8-0.6,7-1.8v4.8c-1,0.6-2,1-3.2,1.2S314.5,144.5,312.9,144.5z"/>
	<path class="st2" d="M349.1,144.5c-3.9,0-6.9-1.1-8.9-3.4s-3.1-5.6-3.1-9.9c0-4.4,1.1-7.7,3.2-10.1s5.2-3.5,9.2-3.5
		c2.7,0,5.2,0.5,7.4,1.5l-1.7,4.4c-2.3-0.9-4.2-1.4-5.8-1.4c-4.5,0-6.7,3-6.7,8.9c0,2.9,0.6,5.1,1.7,6.6s2.8,2.2,4.9,2.2
		c2.5,0,4.8-0.6,7-1.8v4.8c-1,0.6-2,1-3.2,1.2S350.7,144.5,349.1,144.5z"/>
	<path class="st2" d="M367.9,144h-5.5v-36.5h5.5V144z"/>
	<path class="st2" d="M398.8,131c0,4.2-1.1,7.5-3.3,9.9s-5.2,3.6-9.1,3.6c-2.4,0-4.6-0.5-6.4-1.6s-3.3-2.7-4.3-4.7s-1.5-4.4-1.5-7.1
		c0-4.2,1.1-7.5,3.2-9.8s5.2-3.5,9.1-3.5c3.8,0,6.7,1.2,8.9,3.6S398.8,126.9,398.8,131z M379.9,131c0,6,2.2,9,6.6,9
		c4.4,0,6.6-3,6.6-9c0-5.9-2.2-8.9-6.6-8.9c-2.3,0-4,0.8-5,2.3S379.9,128.1,379.9,131z"/>
	<path class="st2" d="M423.4,144l-0.8-3.4h-0.3c-0.8,1.2-1.9,2.1-3.3,2.8s-3,1-4.8,1c-3.1,0-5.5-0.8-7-2.3s-2.3-3.9-2.3-7.1v-16.9
		h5.6v16c0,2,0.4,3.5,1.2,4.5s2.1,1.5,3.8,1.5c2.3,0,4-0.7,5.1-2.1s1.6-3.7,1.6-6.9v-12.9h5.5V144H423.4z"/>
	<path class="st2" d="M444.4,144.5c-3.2,0-5.8-1.2-7.6-3.5s-2.7-5.6-2.7-9.9c0-4.2,0.9-7.6,2.8-9.9s4.4-3.6,7.6-3.6
		c3.4,0,6,1.3,7.8,3.8h0.3c-0.3-1.9-0.4-3.3-0.4-4.4v-9.4h5.5V144h-4.3l-1-3.4h-0.3C450.3,143.2,447.8,144.5,444.4,144.5z
		 M445.8,140c2.3,0,3.9-0.6,4.9-1.9s1.6-3.3,1.6-6.2v-0.8c0-3.3-0.5-5.6-1.6-7s-2.7-2.1-5-2.1c-1.9,0-3.4,0.8-4.5,2.4
		s-1.6,3.8-1.6,6.7c0,2.9,0.5,5.1,1.5,6.6S443.8,140,445.8,140z"/>
</g>
<path id="Cloud_1_" class="st2" d="M158,152.5c-7.3,9.1-18.6,15-31.2,15s-23.9-5.9-31.2-15c7.3-9.1,18.6-15,31.2-15
	S150.7,143.4,158,152.5z M116.8,127.5c0-5.1,4.2-10,8.8-10c0,0,1.3,0,1.4,0c13.1,0,23.8-5.9,31.1-15c-7.3-9.1-18.6-15-31.2-15
	s-23.9,5.9-31.2,15l0,0c-5.5,6.8-8.8,15.5-8.8,25c0,6.5,1.5,12.6,4.3,18c7-7.8,16.3-12.9,26.3-14.9
	C117.1,129.6,116.8,128.6,116.8,127.5z"/>
</svg>
