<?xml version="1.0" encoding="utf-8"?>
<!-- Generator: Adobe Illustrator 21.1.0, SVG Export Plug-In . SVG Version: 6.00 Build 0)  -->
<svg version="1.1" id="Layer_1" xmlns="http://www.w3.org/2000/svg" xmlns:xlink="http://www.w3.org/1999/xlink" x="0px" y="0px"
	 viewBox="0 0 550 250" style="enable-background:new 0 0 550 250;" xml:space="preserve">
<style type="text/css">
	.st0{fill:none;}
	.st1{enable-background:new    ;}
	.st2{fill:#93C90E;}
	.st3{fill:#74A300;}
	.st4{fill:#00A9E5;}
	.st5{fill:#0078A0;}
	.st6{fill:#353535;}
</style>
<rect x="174" y="102.5" class="st0" width="293" height="41"/>
<g class="st1">
	<path d="M189.3,139.5c-4,0-7.2-1.2-9.5-3.5s-3.4-5.6-3.4-9.7c0-4.2,1.1-7.6,3.2-10s5-3.6,8.7-3.6c3.4,0,6.1,1,8.1,3.1s3,4.9,3,8.6
		v3h-17.3c0.1,2.5,0.8,4.4,2,5.8s3.1,2,5.4,2c1.5,0,3-0.1,4.3-0.4s2.7-0.8,4.3-1.4v4.5c-1.3,0.6-2.7,1.1-4.1,1.4
		S191,139.5,189.3,139.5z M188.2,116.8c-1.8,0-3.2,0.6-4.2,1.7s-1.7,2.7-1.9,4.9h11.8c0-2.1-0.5-3.8-1.5-4.9S190,116.8,188.2,116.8z
		"/>
	<path d="M211.1,139h-5.5v-36.5h5.5V139z"/>
	<path d="M235.2,139l-1.1-3.6h-0.2c-1.2,1.6-2.5,2.7-3.8,3.2s-2.9,0.9-4.9,0.9c-2.5,0-4.5-0.7-6-2.1s-2.1-3.3-2.1-5.8
		c0-2.7,1-4.7,3-6s5-2.1,9.1-2.2l4.5-0.1v-1.4c0-1.7-0.4-2.9-1.2-3.7s-2-1.2-3.6-1.2c-1.3,0-2.6,0.2-3.8,0.6s-2.4,0.9-3.5,1.4
		l-1.8-3.9c1.4-0.7,2.9-1.3,4.6-1.7s3.2-0.6,4.7-0.6c3.3,0,5.8,0.7,7.5,2.2s2.5,3.7,2.5,6.8V139H235.2z M227,135.2
		c2,0,3.6-0.6,4.8-1.7s1.8-2.7,1.8-4.7v-2.2l-3.3,0.1c-2.6,0.1-4.5,0.5-5.7,1.3c-1.2,0.8-1.8,2-1.8,3.6c0,1.2,0.3,2.1,1,2.7
		S225.6,135.2,227,135.2z"/>
	<path d="M264.2,131.6c0,2.5-0.9,4.5-2.8,5.8s-4.5,2-7.9,2c-3.5,0-6.2-0.5-8.3-1.6v-4.8c3,1.4,5.9,2.1,8.5,2.1c3.4,0,5.1-1,5.1-3.1
		c0-0.7-0.2-1.2-0.6-1.6s-1-0.9-1.9-1.4s-2.1-1-3.6-1.6c-3-1.2-5-2.3-6.1-3.5s-1.6-2.7-1.6-4.5c0-2.2,0.9-3.9,2.7-5.2
		s4.2-1.8,7.3-1.8c3,0,5.9,0.6,8.6,1.9l-1.8,4.1c-2.8-1.2-5.1-1.7-7.1-1.7c-2.9,0-4.4,0.8-4.4,2.5c0,0.8,0.4,1.5,1.1,2.1
		s2.4,1.3,5,2.3c2.1,0.8,3.7,1.6,4.7,2.3s1.7,1.5,2.2,2.4C264,129.3,264.2,130.4,264.2,131.6z"/>
	<path d="M279.8,135c1.3,0,2.7-0.2,4-0.6v4.1c-0.6,0.3-1.4,0.5-2.4,0.7s-2,0.3-3,0.3c-5.2,0-7.8-2.8-7.8-8.2v-14h-3.5v-2.4l3.8-2
		l1.9-5.5h3.4v5.8h7.4v4.2h-7.4v13.9c0,1.3,0.3,2.3,1,2.9S278.8,135,279.8,135z"/>
	<path d="M288.7,106.2c0-1,0.3-1.7,0.8-2.3s1.3-0.8,2.3-0.8c1,0,1.7,0.3,2.3,0.8s0.8,1.3,0.8,2.3c0,0.9-0.3,1.7-0.8,2.2
		s-1.3,0.8-2.3,0.8c-1,0-1.8-0.3-2.3-0.8S288.7,107.1,288.7,106.2z M294.6,139h-5.5v-25.9h5.5V139z"/>
	<path d="M312.9,139.5c-3.9,0-6.9-1.1-8.9-3.4s-3.1-5.6-3.1-9.9c0-4.4,1.1-7.7,3.2-10.1s5.2-3.5,9.2-3.5c2.7,0,5.2,0.5,7.4,1.5
		l-1.7,4.4c-2.3-0.9-4.2-1.4-5.8-1.4c-4.5,0-6.7,3-6.7,8.9c0,2.9,0.6,5.1,1.7,6.6s2.8,2.2,4.9,2.2c2.5,0,4.8-0.6,7-1.8v4.8
		c-1,0.6-2,1-3.2,1.2S314.5,139.5,312.9,139.5z"/>
	<path d="M349.1,139.5c-3.9,0-6.9-1.1-8.9-3.4s-3.1-5.6-3.1-9.9c0-4.4,1.1-7.7,3.2-10.1s5.2-3.5,9.2-3.5c2.7,0,5.2,0.5,7.4,1.5
		l-1.7,4.4c-2.3-0.9-4.2-1.4-5.8-1.4c-4.5,0-6.7,3-6.7,8.9c0,2.9,0.6,5.1,1.7,6.6s2.8,2.2,4.9,2.2c2.5,0,4.8-0.6,7-1.8v4.8
		c-1,0.6-2,1-3.2,1.2S350.7,139.5,349.1,139.5z"/>
	<path d="M367.9,139h-5.5v-36.5h5.5V139z"/>
	<path d="M398.8,126c0,4.2-1.1,7.5-3.3,9.9s-5.2,3.6-9.1,3.6c-2.4,0-4.6-0.5-6.4-1.6s-3.3-2.7-4.3-4.7s-1.5-4.4-1.5-7.1
		c0-4.2,1.1-7.5,3.2-9.8s5.2-3.5,9.1-3.5c3.8,0,6.7,1.2,8.9,3.6S398.8,121.9,398.8,126z M379.9,126c0,6,2.2,9,6.6,9
		c4.4,0,6.6-3,6.6-9c0-5.9-2.2-8.9-6.6-8.9c-2.3,0-4,0.8-5,2.3S379.9,123.1,379.9,126z"/>
	<path d="M423.4,139l-0.8-3.4h-0.3c-0.8,1.2-1.9,2.1-3.3,2.8s-3,1-4.8,1c-3.1,0-5.5-0.8-7-2.3s-2.3-3.9-2.3-7.1v-16.9h5.6v16
		c0,2,0.4,3.5,1.2,4.5s2.1,1.5,3.8,1.5c2.3,0,4-0.7,5.1-2.1s1.6-3.7,1.6-6.9v-12.9h5.5V139H423.4z"/>
	<path d="M444.4,139.5c-3.2,0-5.8-1.2-7.6-3.5s-2.7-5.6-2.7-9.9c0-4.2,0.9-7.6,2.8-9.9s4.4-3.6,7.6-3.6c3.4,0,6,1.3,7.8,3.8h0.3
		c-0.3-1.9-0.4-3.3-0.4-4.4v-9.4h5.5V139h-4.3l-1-3.4h-0.3C450.3,138.2,447.8,139.5,444.4,139.5z M445.8,135c2.3,0,3.9-0.6,4.9-1.9
		s1.6-3.3,1.6-6.2v-0.8c0-3.3-0.5-5.6-1.6-7s-2.7-2.1-5-2.1c-1.9,0-3.4,0.8-4.5,2.4s-1.6,3.8-1.6,6.7c0,2.9,0.5,5.1,1.5,6.6
		S443.8,135,445.8,135z"/>
</g>
<g id="Cloud_4_">
	<g>
		<path class="st2" d="M113.1,139.3c0.3-0.1,0.7-0.2,1-0.3C113.7,139.1,113.4,139.2,113.1,139.3z"/>
		<path class="st2" d="M111,140c0.3-0.1,0.7-0.2,1-0.3C111.6,139.7,111.3,139.8,111,140z"/>
		<path class="st2" d="M106.9,141.7c0.3-0.2,0.7-0.3,1-0.5C107.6,141.4,107.3,141.6,106.9,141.7z"/>
		<path class="st2" d="M105,142.7c0.3-0.2,0.7-0.4,1-0.5C105.7,142.4,105.3,142.6,105,142.7z"/>
		<path class="st2" d="M108.9,140.8c0.3-0.1,0.7-0.3,1-0.4C109.6,140.5,109.2,140.6,108.9,140.8z"/>
		<path class="st2" d="M115.2,138.7c0.3-0.1,0.6-0.2,1-0.2C115.9,138.5,115.5,138.6,115.2,138.7z"/>
		<path class="st2" d="M117.4,138.2c0.3-0.1,0.6-0.1,0.9-0.2C118.1,138.1,117.7,138.1,117.4,138.2z"/>
		<path class="st2" d="M122,137.6c0.3,0,0.6,0,0.9-0.1C122.6,137.6,122.3,137.6,122,137.6z"/>
		<path class="st2" d="M124.8,137.5c-0.4,0-0.9,0-1.3,0c-2.7,10.5-9.6,19.3-18.7,24.6c5.9,3.4,12.7,5.4,20,5.4
			c12.6,0,23.9-5.9,31.2-15C148.7,143.4,137.4,137.5,124.8,137.5z"/>
		<path class="st2" d="M119.7,137.8c0.3,0,0.6-0.1,0.9-0.1C120.3,137.8,120,137.8,119.7,137.8z"/>
		<path class="st2" d="M101.4,145.1c0.3-0.2,0.6-0.4,0.9-0.6C102,144.7,101.7,144.9,101.4,145.1z"/>
		<path class="st2" d="M98,147.8c0.3-0.2,0.5-0.5,0.8-0.7C98.6,147.3,98.3,147.5,98,147.8z"/>
		<path class="st2" d="M98.2,157.3c-0.1-0.1-0.1-0.1-0.2-0.2C98,157.2,98.1,157.2,98.2,157.3z"/>
		<path class="st2" d="M103.2,143.9c0.3-0.2,0.6-0.4,1-0.6C103.8,143.5,103.5,143.7,103.2,143.9z"/>
		<path class="st2" d="M95,150.8c0.1-0.1,0.3-0.3,0.4-0.4C95.3,150.5,95.1,150.7,95,150.8z"/>
		<path class="st2" d="M96.5,149.3c0.2-0.2,0.5-0.4,0.7-0.7C96.9,148.8,96.7,149,96.5,149.3z"/>
		<path class="st2" d="M101.8,160.2c-0.2-0.2-0.5-0.3-0.7-0.5C101.3,159.9,101.6,160,101.8,160.2z"/>
		<path class="st2" d="M99.7,146.4c0.3-0.2,0.6-0.5,0.9-0.7C100.3,145.9,99.9,146.2,99.7,146.4z"/>
		<path class="st2" d="M100,158.8c-0.1-0.1-0.2-0.2-0.4-0.3C99.8,158.6,99.9,158.7,100,158.8z"/>
		<path class="st3" d="M123.5,137.5L123.5,137.5c-0.2,0-0.4,0-0.6,0c-0.3,0-0.6,0-0.9,0.1c-0.5,0-0.9,0.1-1.3,0.1
			c-0.3,0-0.6,0.1-0.9,0.1c-0.4,0.1-0.9,0.1-1.3,0.2c-0.3,0.1-0.6,0.1-0.9,0.2c-0.4,0.1-0.8,0.2-1.2,0.3c-0.3,0.1-0.6,0.1-1,0.2
			c-0.4,0.1-0.8,0.2-1.2,0.3c-0.3,0.1-0.7,0.2-1,0.3c-0.4,0.1-0.7,0.2-1.1,0.4c-0.3,0.1-0.7,0.2-1,0.3c-0.4,0.1-0.7,0.3-1.1,0.4
			c-0.3,0.1-0.7,0.3-1,0.4c-0.3,0.1-0.7,0.3-1,0.5s-0.7,0.3-1,0.5s-0.6,0.3-0.9,0.5s-0.7,0.4-1,0.5c-0.3,0.2-0.6,0.4-0.9,0.5
			c-0.3,0.2-0.7,0.4-1,0.6c-0.3,0.2-0.6,0.4-0.8,0.6c-0.3,0.2-0.6,0.4-0.9,0.6c-0.3,0.2-0.5,0.4-0.8,0.6c-0.3,0.2-0.6,0.5-0.9,0.7
			s-0.5,0.5-0.8,0.7s-0.6,0.5-0.8,0.7c-0.3,0.3-0.6,0.5-0.9,0.8c-0.2,0.2-0.5,0.4-0.7,0.7c-0.4,0.4-0.7,0.7-1.1,1.1
			c-0.1,0.1-0.3,0.3-0.4,0.4c-0.5,0.5-1,1.1-1.4,1.7c0.8,1.1,2.7,3.1,3.3,3.7c0.3,0.3,0.7,0.6,1,0.9c0.1,0.1,0.1,0.1,0.2,0.2
			c0.1,0.1,0.1,0.1,0.2,0.2c0.3,0.2,0.7,0.6,1.3,1.1c0.1,0.1,0.2,0.2,0.4,0.3c0.3,0.3,0.7,0.6,1.1,0.8c0.2,0.2,0.5,0.3,0.7,0.5
			c0.8,0.6,1.6,1.1,2.4,1.6c0.1,0.1,0.5,0.3,0.6,0.3l0,0C114,156.8,120.8,148,123.5,137.5z"/>
	</g>
	<g>
		<path class="st4" d="M124.8,87.5c-7.3,0-14.1,2-20,5.4c9.1,5.3,16,14.1,18.7,24.6c0.4,0,0.8,0,1.1,0c0,0,0.2,0,0.3,0
			c12.6,0,23.8-5.9,31.1-15C148.7,93.4,137.4,87.5,124.8,87.5z"/>
		<path class="st4" d="M95.7,100.2c-0.7,0.8-1.4,1.5-2.1,2.4l0,0l0,0C94.2,101.8,94.9,101,95.7,100.2z"/>
		<path class="st5" d="M104.8,92.9L104.8,92.9L104.8,92.9c-0.1,0-0.2,0.1-0.2,0.1l0,0c-0.4,0.3-0.9,0.5-1.3,0.8
			c-1.8,1.1-3.5,2.4-5,3.8c-0.3,0.2-0.5,0.5-0.8,0.7c-0.2,0.2-0.4,0.3-0.5,0.5c-0.4,0.3-0.7,0.7-1,1c-0.1,0.1-0.2,0.2-0.2,0.2
			c-0.7,0.8-1.4,1.6-2.1,2.4l0,0c0.4,0.5,0.9,1.1,1.4,1.6c0.2,0.2,0.4,0.4,0.6,0.6c0.3,0.3,0.6,0.6,0.9,0.9c0.2,0.2,0.5,0.4,0.7,0.7
			c0.3,0.3,0.6,0.6,0.9,0.8c0.2,0.2,0.5,0.4,0.8,0.7c0.3,0.3,0.6,0.5,0.9,0.7s0.5,0.4,0.8,0.6s0.6,0.5,0.9,0.7s0.6,0.4,0.9,0.6
			s0.6,0.4,0.9,0.6s0.6,0.4,0.9,0.6s0.6,0.4,0.9,0.6s0.6,0.3,1,0.5c0.3,0.2,0.6,0.3,1,0.5c0.3,0.2,0.7,0.3,1,0.5s0.6,0.3,1,0.4
			c0.3,0.1,0.7,0.3,1,0.4s0.7,0.3,1,0.4c0.4,0.1,0.7,0.3,1.1,0.4c0.3,0.1,0.7,0.2,1,0.3c0.4,0.1,0.7,0.2,1.1,0.3
			c0.3,0.1,0.7,0.2,1,0.3c0.4,0.1,0.8,0.2,1.1,0.3c0.3,0.1,0.7,0.1,1,0.2c0.4,0.1,0.8,0.1,1.2,0.2c0.3,0.1,0.7,0.1,1,0.2
			c0.4,0.1,0.8,0.1,1.2,0.1c0.4,0,0.7,0.1,1.1,0.1s0.8,0.1,1.2,0.1c0.2,0,0.4,0,0.6,0l0,0C120.8,107,114,98.2,104.8,92.9z"/>
	</g>
	<g>
		<path class="st6" d="M123.5,137.5L123.5,137.5c-4.9-0.6-8.7-4.9-8.7-10s3.8-9.4,8.7-10l0,0c-12.1-0.4-22.8-6.1-29.9-15
			c-5.5,6.8-8.8,15.5-8.8,25c0,9.4,3.3,18.1,8.8,25C100.7,143.7,111.4,137.9,123.5,137.5z"/>
	</g>
</g>
</svg>
