<?xml version="1.0" encoding="UTF-8" standalone="no"?>
<svg xmlns:rdf="http://www.w3.org/1999/02/22-rdf-syntax-ns#" xmlns="http://www.w3.org/2000/svg" version="1.1" xmlns:cc="http://creativecommons.org/ns#" xmlns:dc="http://purl.org/dc/elements/1.1/" viewBox="0 0 78.356 100" height="100" width="79"><link xmlns="" type="text/css" id="dark-mode" rel="stylesheet" href=""/><style xmlns="" type="text/css" id="dark-mode-custom-style"/>
 <g transform="translate(-387.25 -562.7)">
  <g style="" transform="matrix(.5 0 0 .5 213.21 306.35)">
   <g>
    <g fill="#e87722" transform="matrix(2.2589 0 0 -2.2589 372.58 651.47)">
     <path d="m0 0 23.811 22.878 23.854-22.943c3.961 7.051 6.969 14.756 8.815 23.002 0.087 0.39 0.156 0.777 0.239 1.169h-65.795c1.78-8.487 4.863-16.606 9.076-24.106" fill="#e87722"/>
    </g>
    <path d="m462.28 563.32h-2.8802v-5.4847h2.8802v5.4847zm0 16.226h-2.8802v-5.4847h2.8802v5.4847zm-3.9328 6.3996c-1.5045 0.21685-6.8717 0.9352-11.848 0.9352-4.048 0-7.1383-0.3411-9.8648-0.64154l-6.3883-0.51278 0.0339 0.55796v1.5971c-0.60766 0.22815-2.1279 0.72512-3.9238 0.72512-1.7688 0-3.1987-0.48793-3.7747-0.71834v-2.1596l-6.3612 0.51278c-2.7265 0.29818-5.8168 0.63928-9.8603 0.63928-4.9765 0-10.348-0.71835-11.855-0.9352v-33.344c0.36144-0.0994 1.2989-0.35014 1.9811-0.53311l-0.002 30.182 0.22589 0.15361c0.10617 0.07 2.6339 1.7236 9.1329 1.7236 3.2687 0 5.7761-0.53537 8.2068-1.0549 2.0782-0.44276 4.0412-0.86292 6.2528-0.86292 4.231 0 5.5547 2.2205 5.6044 2.3109l0.0542-0.0271h0.97361l0.0587 0.0271c0.0565-0.0904 1.378-2.3109 5.609-2.3109 2.207 0 4.1745 0.42016 6.2573 0.86292 2.4284 0.51955 4.9403 1.0549 8.209 1.0549 6.4967 0 9.029-1.6535 9.1329-1.7236l0.22816-0.15361v-30.168c0.67316 0.18297 1.5677 0.42242 1.9178 0.51956v33.344zm-64.893-22.626h-2.8779v-5.4847h2.8779v5.4847zm0 16.226h-2.8779v-5.4847h2.8779v5.4847zm4.0819-31.302c1.1656 0.50826 3.7024 1.3283 8.3061 1.3283 3.271 0 5.7761-0.53763 8.2068-1.0549 2.0782-0.44501 4.0435-0.86065 6.2573-0.86065 4.2333 0 5.5502 2.2138 5.6044 2.3086h0.0113v33.035c-0.93068-0.81096-2.6701-1.8004-5.6202-1.8004-2.3199 0-4.344 0.43146-6.4787 0.88777-2.3719 0.50374-4.8274 1.0278-7.9808 1.0278-5.3944 0-7.7753-1.1362-8.3061-1.4277v-33.435zm29.436 1.7078 0.0181 0.0226c0.052-0.0994 1.3757-2.3177 5.609-2.3177 2.2092 0 4.1768 0.42016 6.2595 0.86291 2.4261 0.51956 4.9381 1.0549 8.2045 1.0549 4.606 0 7.1473-0.81774 8.3129-1.3305v33.446c-0.53085 0.29141-2.9186 1.4277-8.3084 1.4277-3.1558 0-5.609-0.52408-7.9854-1.0278-2.1392-0.45631-4.161-0.88777-6.4809-0.88777-2.957 0-4.6986 0.9962-5.6293 1.8094v-33.048zm77.123-8.0622c-6.316 1.9246-13.032 2.966-20.001 2.966-24.595 0-46.069-12.923-57.666-32.158-11.595 19.235-33.066 32.158-57.655 32.158-6.9643 0-13.671-1.0391-19.978-2.957-1.6513 18.779-0.44727 37.302 3.2868 55.114h148.63c3.8876-18.582 4.938-37.103 3.3862-55.123"/>
    <g fill="#e87722" transform="matrix(2.2589 0 0 -2.2589 389.73 677.02)">
     <path d="m0 0c4.659-5.889 10.104-11.211 16.231-15.792 6.065 4.521 11.543 9.808 16.263 15.753l-16.272 15.819-16.222-15.78z" fill="#e87722"/>
    </g>
   </g>
   <g style="" transform="matrix(2.2589 0 0 -2.2589 372.58 651.47)">
    <path d="m0 0c2.223-3.958 4.761-7.741 7.589-11.314l16.222 15.779 16.272-15.818c2.809 3.535 5.347 7.306 7.582 11.288l-23.854 22.943-23.811-22.878z" fill="#f46f1b"/>
   </g>
   <g style="" transform="matrix(2.2589 0 0 -2.2589 372.58 651.47)">
    <path d="m0 0c2.223-3.958 4.761-7.741 7.589-11.314l16.222 15.779 16.272-15.818c2.809 3.535 5.347 7.306 7.582 11.288l-23.854 22.943-23.811-22.878z"/>
   </g>
   <path d="m459.4 579.55h2.8802v-5.4847h-2.8802v5.4847z" fill="#fff"/>
   <g style="" transform="matrix(2.2589 0 0 -2.2589 456.43 582.25)">
    <path d="m0 0-0.101-0.067c-0.046-0.032-1.167-0.764-4.043-0.764-1.448 0-2.559 0.238-3.634 0.467-0.922 0.196-1.793 0.382-2.77 0.382-1.873 0-2.458-0.983-2.483-1.023l-0.026 0.012h-0.431l-0.025-0.012c-0.022 0.04-0.607 1.023-2.48 1.023-0.979 0-1.848-0.186-2.768-0.382-1.076-0.229-2.186-0.467-3.633-0.467-2.877 0-3.997 0.732-4.044 0.764l-0.099 0.067 0.001 13.361c-0.302-0.081-0.717-0.192-0.877-0.235v-14.762c0.667-0.096 3.045-0.414 5.248-0.414 1.79 0 3.158 0.151 4.365 0.283l2.816 0.227v-0.956c0.255-0.102 0.888-0.318 1.67-0.318 0.796 0 1.469 0.22 1.738 0.321v0.707l-0.015 0.247 2.828-0.227c1.207-0.133 2.575-0.284 4.367-0.284 2.203 0 4.579 0.318 5.245 0.414v14.762c-0.155 0.042-0.551 0.148-0.849 0.229v-13.355z" fill="#fff"/>
   </g>
   <path d="m459.4 563.32h2.8802v-5.4847h-2.8802v5.4847z" fill="#fff"/>
   <path d="m390.58 563.32h2.8779v-5.4847h-2.8779v5.4847z" fill="#fff"/>
   <g style="" transform="matrix(2.2589 0 0 -2.2589 413.82 582.08)">
    <path d="m0 0c0.945 0.202 1.841 0.393 2.868 0.393 1.306 0 2.076-0.438 2.488-0.797v14.624l-0.005-0.004c-0.024 0.043-0.607 1.022-2.481 1.022-0.98 0-1.85-0.184-2.77-0.381-1.076-0.229-2.185-0.467-3.633-0.467-2.038 0-3.161 0.363-3.677 0.588v-14.801c0.235-0.129 1.289-0.632 3.677-0.632 1.396 0 2.483 0.232 3.533 0.455" fill="#fff"/>
   </g>
   <path d="m390.58 579.55h2.8779v-5.4847h-2.8779v5.4847z" fill="#fff"/>
   <g style="" transform="matrix(2.2589 0 0 -2.2589 439.08 582.08)">
    <path d="m0 0c1.052-0.223 2.137-0.455 3.535-0.455 2.386 0 3.443 0.503 3.678 0.632v14.806c-0.516-0.226-1.642-0.589-3.68-0.589-1.446 0-2.558 0.237-3.632 0.467-0.922 0.196-1.793 0.382-2.772 0.382-1.874 0-2.459-0.982-2.482-1.026l-0.009 0.005v-14.63c0.413 0.361 1.184 0.801 2.492 0.801 1.028 0 1.922-0.191 2.87-0.393" fill="#fff"/>
   </g>
   <g style="" transform="matrix(2.2589 0 0 -2.2589 407.83 554.54)">
    <path d="m0 0c-0.228-0.015-0.38-0.133-0.452-0.286l-0.956-2.077s-0.046-0.029-0.077-0.029c-0.032 0-0.067 0.029-0.086 0.095-0.026 0.073-0.143 0.364-0.397 0.928l-0.305 0.677c-0.113 0.252-0.199 0.415-0.229 0.465-0.112 0.187-0.25 0.202-0.403 0.227-0.02 0.025-0.02 0.044-0.02 0.064 0 0.019 0 0.034 0.015 0.059h0.158c0.178 0 0.331-0.009 0.462-0.009 0.158 0 0.424 0.014 0.602 0.014h0.101c0.021-0.005 0.026-0.039 0.026-0.055 0-0.009 0-0.048-0.01-0.069-0.123-0.01-0.382-0.004-0.382-0.162 0-0.034 0.006-0.094 0.026-0.139l0.625-1.453 0.529 1.206c0.061 0.138 0.066 0.258 0.066 0.317 0 0.138-0.096 0.196-0.36 0.227-0.005 0.019-0.016 0.038-0.016 0.06 0 0.019 0.011 0.054 0.016 0.068h0.076c0.116 0 0.233-0.014 0.498-0.014 0.046 0 0.23 0.009 0.316 0.009h0.183c0.01-0.019 0.02-0.034 0.02-0.053 0-0.016-0.01-0.054-0.026-0.07"/>
   </g>
   <g style="" transform="matrix(2.2589 0 0 -2.2589 413.87 559.78)">
    <path d="m0 0c-0.764 0-1.181 0.019-1.283 0.019-0.081 0-0.27 0.006-0.366 0.006-0.101 0-0.351-0.015-0.616-0.015l-0.151 0.004c-0.011 0.021-0.016 0.035-0.016 0.054 0 0.02 0 0.051 0.01 0.071 0.204 0.014 0.35 0.049 0.382 0.078 0.044 0.05 0.07 0.154 0.081 0.375 0.004 0.114 0.01 0.238 0.01 0.367 0 0.187-0.006 0.415-0.006 0.69 0 0.189-0.004 0.302-0.004 0.381-0.006 0.274-0.137 0.274-0.423 0.302-0.01 0.025-0.014 0.05-0.014 0.064 0 0.015 0.009 0.054 0.024 0.065h0.138c0.096 0 0.346-0.006 0.824-0.006 0.443 0 0.865-0.01 0.962-0.01 0.056 0 0.229-0.005 0.26-0.005 0.061 0 0.086-0.004 0.086-0.054l0.031-0.558c-0.031-0.015-0.041-0.019-0.073-0.019-0.019 0-0.035 0-0.055 0.004-0.168 0.277-0.249 0.332-0.381 0.425-0.047 0.034-0.112 0.054-0.219 0.066-0.037 0-0.122 0.003-0.34 0.003-0.174 0-0.265-0.003-0.286-0.009-0.03 0-0.026 0.006-0.036-0.095-0.005-0.058-0.01-0.167-0.01-0.494v-0.315h0.087c0.112 0 0.224 0.009 0.285 0.029 0.102 0.025 0.203 0.093 0.26 0.173 0.019 0.03 0.045 0.163 0.055 0.207 0.02 0.01 0.051 0.016 0.082 0.016 0.024 0 0.05-0.006 0.065-0.02-0.004-0.1-0.025-0.287-0.025-0.524 0-0.119 0.016-0.382 0.016-0.489-0.026-0.015-0.036-0.021-0.072-0.021-0.021 0-0.05 0.006-0.071 0.01-0.026 0.208-0.056 0.351-0.239 0.425-0.102 0.04-0.183 0.049-0.28 0.049-0.051 0-0.117-0.003-0.168-0.009v-0.642c0-0.149 0.01-0.237 0.031-0.286 0.02-0.045 0.081-0.129 0.152-0.139 0.036-0.005 0.101-0.015 0.235-0.015h0.366c0.091 0 0.224 0.01 0.27 0.039 0.09 0.055 0.324 0.303 0.406 0.524 0.031 0.015 0.052 0.015 0.078 0.015 0.019 0 0.045-0.005 0.07-0.02v-0.648c0-0.058-0.041-0.068-0.132-0.068"/>
   </g>
   <g style="" transform="matrix(2.2589 0 0 -2.2589 420.73 555.99)">
    <path d="m0 0c-0.02 0-0.041 0.005-0.071 0.01-0.056 0.148-0.127 0.286-0.189 0.362-0.1 0.123-0.202 0.205-0.467 0.236-0.056 0.004-0.199 0.004-0.244 0.004l-0.006-1.081c0-0.168 0-0.371 0.006-0.742 0.004-0.286 0.137-0.286 0.442-0.327 0.015-0.028 0.02-0.048 0.02-0.069 0-0.019-0.005-0.038-0.016-0.059h-0.11c-0.179 0-0.529 0.011-0.637 0.011-0.076 0-0.463-0.015-0.645-0.015-0.017 0.025-0.021 0.025-0.021 0.063 0 0.021 0.004 0.041 0.015 0.065 0.402 0.03 0.442 0.104 0.458 0.228 0.01 0.078 0.01 0.405 0.01 0.731v0.899c0 0.109-0.005 0.223-0.02 0.296-0.076 0-0.326 0-0.397-0.023-0.204-0.075-0.347-0.244-0.504-0.54-0.019-0.009-0.051-0.009-0.066-0.009-0.026 0-0.046 0.009-0.061 0.024v0.632c0 0.054 0.009 0.069 0.076 0.069 0.061 0 0.153-0.005 0.276-0.005 0.09 0 0.457-0.004 0.92-0.004 0.606 0 1.059 0.014 1.171 0.014 0.06 0 0.101 0 0.121-0.02 0.01-0.009 0.006-0.054 0.006-0.088v-0.633c-0.016-0.019-0.041-0.029-0.067-0.029"/>
   </g>
   <g style="" transform="matrix(2.2589 0 0 -2.2589 407.59 564.67)">
    <path d="m0 0c-0.019 0-0.039 0.006-0.07 0.011-0.056 0.148-0.128 0.287-0.19 0.36-0.101 0.123-0.202 0.208-0.468 0.237-0.055 0.005-0.198 0.005-0.243 0.005l-0.006-1.081c0-0.169 0-0.373 0.006-0.742 0.006-0.287 0.137-0.287 0.442-0.327 0.015-0.029 0.02-0.049 0.02-0.068s-0.005-0.039-0.014-0.06h-0.112c-0.179 0-0.529 0.01-0.637 0.01-0.075 0-0.463-0.014-0.645-0.014-0.016 0.025-0.02 0.025-0.02 0.064 0 0.019 0.004 0.039 0.014 0.063 0.403 0.031 0.442 0.104 0.458 0.228 0.01 0.079 0.01 0.405 0.01 0.732v0.899c0 0.108-0.005 0.224-0.02 0.296-0.076 0-0.326 0-0.397-0.024-0.203-0.074-0.346-0.243-0.504-0.539-0.019-0.01-0.051-0.01-0.065-0.01-0.026 0-0.047 0.01-0.063 0.025v0.633c0 0.054 0.011 0.069 0.077 0.069 0.061 0 0.154-0.005 0.276-0.005 0.09 0 0.458-0.004 0.92-0.004 0.606 0 1.058 0.013 1.171 0.013 0.06 0 0.102 0 0.121-0.019 0.01-0.01 0.005-0.054 0.005-0.09v-0.631c-0.015-0.02-0.04-0.031-0.066-0.031"/>
   </g>
   <g style="" transform="matrix(2.2589 0 0 -2.2589 414.12 568.46)">
    <path d="m0 0c-0.763 0-1.181 0.019-1.283 0.019-0.081 0-0.27 0.005-0.366 0.005-0.102 0-0.35-0.014-0.616-0.014l-0.152 0.004c-0.01 0.021-0.015 0.035-0.015 0.056 0 0.019 0 0.048 0.009 0.067 0.204 0.016 0.351 0.05 0.382 0.08 0.045 0.049 0.07 0.153 0.082 0.376 0.004 0.114 0.01 0.237 0.01 0.366 0 0.187-0.006 0.414-0.006 0.691 0 0.188-0.004 0.302-0.004 0.381-0.005 0.271-0.138 0.271-0.422 0.302-0.01 0.023-0.017 0.048-0.017 0.063 0 0.016 0.011 0.054 0.026 0.064h0.138c0.096 0 0.346-0.004 0.824-0.004 0.442 0 0.866-0.01 0.962-0.01 0.055 0 0.228-0.005 0.26-0.005 0.061 0 0.086-0.004 0.086-0.054l0.031-0.558c-0.031-0.015-0.042-0.02-0.073-0.02-0.019 0-0.034 0-0.055 0.005-0.168 0.277-0.249 0.331-0.381 0.424-0.046 0.036-0.112 0.054-0.22 0.064-0.035 0-0.122 0.005-0.341 0.005-0.173 0-0.263-0.005-0.284-0.009-0.03 0-0.026 0.004-0.036-0.094-0.004-0.059-0.01-0.169-0.01-0.494v-0.316h0.087c0.112 0 0.224 0.009 0.284 0.029 0.101 0.025 0.203 0.095 0.26 0.173 0.02 0.029 0.045 0.162 0.056 0.207 0.021 0.011 0.051 0.015 0.082 0.015 0.024 0 0.05-0.004 0.065-0.02-0.004-0.098-0.026-0.286-0.026-0.523 0-0.119 0.017-0.381 0.017-0.489-0.026-0.016-0.036-0.02-0.072-0.02-0.021 0-0.051 0.004-0.071 0.009-0.025 0.207-0.055 0.352-0.239 0.425-0.102 0.04-0.183 0.05-0.279 0.05-0.052 0-0.118-0.006-0.17-0.01v-0.642c0-0.149 0.012-0.238 0.032-0.288 0.02-0.044 0.081-0.128 0.151-0.138 0.037-0.004 0.103-0.015 0.235-0.015h0.367c0.09 0 0.223 0.011 0.269 0.04 0.091 0.055 0.326 0.302 0.407 0.524 0.03 0.015 0.052 0.015 0.076 0.015 0.02 0 0.046-0.005 0.072-0.02v-0.646c0-0.06-0.041-0.07-0.132-0.07"/>
   </g>
   <g style="" transform="matrix(2.2589 0 0 -2.2589 418.13 568.59)">
    <path d="m0 0c-0.209 0-0.442 0.079-0.585 0.148-0.02 0.011-0.071 0.02-0.091 0.02-0.031 0-0.107-0.034-0.188-0.094-0.061 0-0.128 0.03-0.148 0.074 0 0.049 0.046 0.203 0.046 0.302 0 0.054-0.016 0.331-0.022 0.395 0.026 0.035 0.073 0.056 0.113 0.056 0.016 0 0.025 0 0.041-0.008 0.051-0.098 0.158-0.364 0.234-0.473 0.158-0.178 0.391-0.257 0.56-0.257 0.187 0 0.325 0.034 0.407 0.12 0.117 0.108 0.142 0.177 0.142 0.296 0 0.088-0.02 0.162-0.07 0.222-0.062 0.079-0.118 0.114-0.266 0.183-0.107 0.049-0.498 0.142-0.641 0.217-0.173 0.079-0.26 0.148-0.35 0.243-0.107 0.129-0.144 0.306-0.144 0.444 0 0.396 0.321 0.687 0.774 0.687 0.173 0 0.407-0.014 0.601-0.168 0.04 0.045 0.096 0.094 0.147 0.138 0.077 0 0.128-0.04 0.132-0.065-0.004-0.059-0.04-0.211-0.04-0.334 0-0.066 0.04-0.323 0.04-0.362-0.025-0.014-0.055-0.034-0.096-0.034-0.01 0-0.031 0.005-0.046 0.009-0.071 0.119-0.132 0.318-0.214 0.425-0.112 0.154-0.279 0.212-0.497 0.212-0.251 0-0.459-0.152-0.459-0.364 0-0.203 0.167-0.302 0.31-0.362 0.107-0.039 0.234-0.088 0.382-0.132 0.188-0.06 0.325-0.11 0.402-0.148 0.291-0.145 0.417-0.357 0.417-0.649 0-0.45-0.423-0.741-0.891-0.741"/>
   </g>
   <g style="" transform="matrix(2.2589 0 0 -2.2589 409.87 577.15)">
    <path d="m0 0c-0.764 0-1.181 0.021-1.282 0.021-0.082 0-0.27 0.004-0.367 0.004-0.102 0-0.35-0.014-0.615-0.014l-0.154 0.005c-0.009 0.019-0.014 0.034-0.014 0.054s0 0.049 0.01 0.07c0.203 0.014 0.35 0.049 0.381 0.078 0.046 0.05 0.071 0.154 0.082 0.376 0.005 0.114 0.009 0.237 0.009 0.366 0 0.186-0.004 0.414-0.004 0.69 0 0.189-0.005 0.303-0.005 0.381-0.005 0.273-0.138 0.273-0.422 0.302-0.011 0.024-0.016 0.049-0.016 0.063 0 0.016 0.011 0.056 0.026 0.066h0.138c0.096 0 0.346-0.006 0.824-0.006 0.442 0 0.866-0.009 0.962-0.009 0.055 0 0.228-0.004 0.259-0.004 0.061 0 0.087-0.006 0.087-0.056l0.03-0.558c-0.03-0.015-0.041-0.02-0.071-0.02-0.022 0-0.036 0-0.057 0.005-0.168 0.276-0.248 0.331-0.381 0.425-0.046 0.035-0.113 0.054-0.22 0.065-0.034 0-0.122 0.004-0.34 0.004-0.173 0-0.265-0.004-0.284-0.009-0.031 0-0.026 0.005-0.036-0.095-0.006-0.059-0.011-0.167-0.011-0.494v-0.316h0.087c0.112 0 0.223 0.01 0.285 0.03 0.101 0.025 0.203 0.094 0.259 0.172 0.022 0.03 0.046 0.163 0.056 0.208 0.02 0.01 0.051 0.015 0.081 0.015 0.026 0 0.052-0.005 0.067-0.02-0.006-0.098-0.025-0.287-0.025-0.523 0-0.12 0.016-0.381 0.016-0.489-0.027-0.016-0.037-0.02-0.071-0.02-0.022 0-0.052 0.004-0.073 0.008-0.026 0.209-0.055 0.353-0.238 0.425-0.102 0.041-0.184 0.051-0.281 0.051-0.05 0-0.116-0.004-0.168-0.01v-0.643c0-0.147 0.01-0.236 0.031-0.286 0.021-0.044 0.081-0.129 0.152-0.139 0.036-0.005 0.102-0.014 0.234-0.014h0.366c0.092 0 0.225 0.009 0.271 0.04 0.091 0.053 0.325 0.301 0.407 0.522 0.03 0.016 0.051 0.016 0.075 0.016 0.021 0 0.046-0.006 0.073-0.019v-0.648c0-0.059-0.041-0.07-0.133-0.07"/>
   </g>
   <g style="" transform="matrix(2.2589 0 0 -2.2589 418.18 571.88)">
    <path d="m0 0c-0.255-0.011-0.478-0.145-0.478-0.544l-0.006-1.26c0-0.049 0.02-0.405 0.02-0.543-0.036-0.026-0.08-0.04-0.101-0.04-0.015 0-0.037 0.014-0.067 0.04l-1.781 1.862 0.021-0.38 0.005-0.687c0-0.054 0.01-0.183 0.021-0.277 0.015-0.152 0.061-0.207 0.126-0.262 0.092-0.074 0.239-0.098 0.341-0.108 0.011-0.02 0.015-0.04 0.015-0.055 0-0.01-0.004-0.039-0.019-0.064h-0.194c-0.163 0-0.29 0.005-0.464 0.005-0.112 0-0.264-0.01-0.375-0.01h-0.082c-0.005 0.015-0.011 0.045-0.011 0.054 0 0.015 0 0.034 0.016 0.065 0.128 0.01 0.326 0.069 0.403 0.168 0.029 0.065 0.039 0.178 0.039 0.296v0.879c0 0.143-0.004 0.213-0.01 0.351-0.005 0.114-0.029 0.198-0.086 0.267-0.01 0.015-0.066 0.075-0.127 0.129-0.056 0.05-0.198 0.089-0.285 0.124-0.011 0.019-0.015 0.049-0.015 0.053 0 0.016 0.004 0.046 0.015 0.066h0.066c0.051 0 0.326-0.016 0.534-0.016h0.122c0.026-0.01 0.067-0.034 0.081-0.05l1.319-1.398c0.102-0.109 0.229-0.252 0.3-0.34v1.008c0 0.138-0.01 0.231-0.015 0.282-0.01 0.103-0.036 0.192-0.077 0.262-0.04 0.063-0.285 0.098-0.411 0.123-0.011 0.024-0.017 0.054-0.017 0.074 0 0.015 0 0.029 0.011 0.055h0.076c0.122 0 0.321-0.02 0.444-0.02 0.3 0 0.396 0.009 0.549 0.009h0.097c0.01-0.02 0.014-0.044 0.014-0.059 0-0.01-0.004-0.04-0.014-0.059"/>
   </g>
   <g style="" transform="matrix(2.2589 0 0 -2.2589 438.35 554.51)">
    <path d="m0 0c-0.255-0.01-0.478-0.142-0.478-0.544l-0.005-1.26c0-0.05 0.02-0.405 0.02-0.543-0.036-0.025-0.082-0.039-0.101-0.039-0.016 0-0.037 0.014-0.067 0.039l-1.782 1.863 0.021-0.38 0.005-0.688c0-0.054 0.011-0.182 0.021-0.276 0.016-0.154 0.061-0.208 0.128-0.263 0.091-0.074 0.238-0.099 0.34-0.109 0.01-0.019 0.016-0.038 0.016-0.053 0-0.011-0.006-0.04-0.021-0.065h-0.193c-0.164 0-0.291 0.005-0.464 0.005-0.112 0-0.264-0.01-0.376-0.01h-0.081c-0.005 0.016-0.011 0.045-0.011 0.054 0 0.016 0 0.035 0.015 0.065 0.128 0.01 0.326 0.069 0.403 0.168 0.03 0.065 0.04 0.178 0.04 0.296v0.88c0 0.144-0.005 0.213-0.01 0.35-0.004 0.114-0.03 0.198-0.087 0.268-0.009 0.015-0.066 0.075-0.128 0.129-0.054 0.049-0.197 0.088-0.283 0.123-0.011 0.019-0.016 0.05-0.016 0.054 0 0.015 0.005 0.044 0.016 0.065h0.065c0.051 0 0.326-0.016 0.535-0.016h0.122c0.025-0.009 0.066-0.034 0.081-0.049l1.318-1.399c0.101-0.108 0.229-0.252 0.301-0.34v1.008c0 0.138-0.01 0.232-0.016 0.28-0.01 0.106-0.036 0.195-0.076 0.264-0.041 0.063-0.285 0.098-0.412 0.123-0.01 0.025-0.015 0.054-0.015 0.073 0 0.015 0 0.031 0.01 0.056h0.076c0.122 0 0.321-0.021 0.443-0.021 0.301 0 0.397 0.01 0.55 0.01h0.096c0.01-0.02 0.015-0.045 0.015-0.058 0-0.01-0.005-0.041-0.015-0.06"/>
   </g>
   <g style="" transform="matrix(2.2589 0 0 -2.2589 443.35 555.04)">
    <path d="m0 0c-0.121 0.164-0.274 0.257-0.503 0.257-0.209 0-0.346-0.088-0.469-0.257-0.146-0.187-0.23-0.484-0.23-0.865 0-0.376 0.078-0.671 0.22-0.859 0.127-0.178 0.274-0.273 0.499-0.273 0.264 0 0.422 0.124 0.55 0.337 0.106 0.188 0.162 0.45 0.162 0.785 0 0.406-0.081 0.692-0.229 0.875m0.407-1.788c-0.244-0.238-0.58-0.371-0.895-0.371-0.301 0-0.646 0.123-0.886 0.352-0.259 0.246-0.376 0.572-0.376 0.932 0 0.352 0.117 0.677 0.376 0.931 0.28 0.255 0.585 0.365 0.891 0.365 0.219 0 0.426-0.056 0.662-0.182 0.396-0.243 0.62-0.643 0.62-1.089 0-0.347-0.138-0.692-0.392-0.938"/>
   </g>
   <g style="" transform="matrix(2.2589 0 0 -2.2589 452.38 554.54)">
    <path d="m0 0c-0.229-0.015-0.381-0.133-0.453-0.286l-0.956-2.077s-0.047-0.029-0.077-0.029c-0.031 0-0.066 0.029-0.086 0.095-0.025 0.073-0.144 0.364-0.397 0.928l-0.305 0.677c-0.113 0.252-0.199 0.415-0.23 0.465-0.113 0.187-0.248 0.202-0.402 0.227-0.019 0.025-0.019 0.044-0.019 0.064 0 0.019 0 0.034 0.014 0.059h0.159c0.178 0 0.33-0.009 0.462-0.009 0.157 0 0.423 0.014 0.6 0.014h0.102c0.021-0.005 0.027-0.039 0.027-0.055 0-0.009 0-0.048-0.011-0.069-0.122-0.01-0.382-0.004-0.382-0.162 0-0.034 0.005-0.094 0.026-0.139l0.625-1.453 0.53 1.206c0.061 0.138 0.066 0.258 0.066 0.317 0 0.138-0.098 0.196-0.361 0.227-0.006 0.019-0.016 0.038-0.016 0.06 0 0.019 0.01 0.054 0.016 0.068h0.076c0.116 0 0.234-0.014 0.498-0.014 0.045 0 0.23 0.009 0.317 0.009h0.182c0.01-0.019 0.02-0.034 0.02-0.053 0-0.016-0.01-0.054-0.025-0.07"/>
   </g>
   <g style="" transform="matrix(2.2589 0 0 -2.2589 436.47 564.67)">
    <path d="m0 0c-0.02 0-0.04 0.006-0.071 0.011-0.057 0.148-0.128 0.287-0.188 0.36-0.102 0.123-0.204 0.208-0.469 0.237-0.055 0.005-0.198 0.005-0.244 0.005l-0.005-1.081c0-0.169 0-0.373 0.005-0.742 0.005-0.287 0.138-0.287 0.442-0.327 0.016-0.029 0.02-0.049 0.02-0.068s-0.004-0.039-0.013-0.06h-0.112c-0.18 0-0.53 0.01-0.637 0.01-0.077 0-0.463-0.014-0.646-0.014-0.016 0.025-0.022 0.025-0.022 0.064 0 0.019 0.006 0.039 0.016 0.063 0.402 0.031 0.443 0.104 0.458 0.228 0.01 0.079 0.01 0.405 0.01 0.732v0.899c0 0.108-0.004 0.224-0.02 0.296-0.076 0-0.325 0-0.397-0.024-0.204-0.074-0.345-0.243-0.503-0.539-0.022-0.01-0.051-0.01-0.067-0.01-0.026 0-0.045 0.01-0.061 0.025v0.633c0 0.054 0.01 0.069 0.077 0.069 0.061 0 0.153-0.005 0.275-0.005 0.091 0 0.456-0.004 0.921-0.004 0.605 0 1.058 0.013 1.171 0.013 0.06 0 0.101 0 0.12-0.019 0.011-0.01 0.006-0.054 0.006-0.09v-0.631c-0.015-0.02-0.041-0.031-0.066-0.031"/>
   </g>
   <g style="" transform="matrix(2.2589 0 0 -2.2589 439.72 564.07)">
    <path d="m0 0h-0.005c-0.051-0.094-0.148-0.306-0.183-0.396-0.132-0.315-0.178-0.423-0.203-0.469h0.752c-0.056 0.144-0.248 0.594-0.361 0.865m1.593-1.942h-0.198c-0.127 0-0.275 0.014-0.423 0.014-0.239 0-0.545-0.014-0.661-0.014-0.016 0.009-0.021 0.035-0.021 0.059 0 0.02 0.005 0.04 0.015 0.06 0.244 0.01 0.347 0.049 0.347 0.148 0 0.039-0.006 0.119-0.082 0.316-0.071 0.179-0.111 0.262-0.131 0.306-0.012 0.015-0.017 0.026-0.073 0.026h-0.793c-0.051-0.06-0.117-0.233-0.189-0.471-0.015-0.058-0.015-0.118-0.015-0.138 0-0.079 0.076-0.173 0.356-0.177 0.015-0.03 0.021-0.05 0.021-0.07 0-0.014 0-0.034-0.012-0.054h-0.065c-0.188 0-0.244 0.009-0.438 0.009-0.131 0-0.443-0.009-0.544-0.009-0.01 0.02-0.015 0.03-0.015 0.049 0 0.02 0 0.035 0.015 0.065 0.149 0.029 0.291 0.073 0.361 0.177 0.041 0.06 0.173 0.287 0.321 0.638 0.138 0.327 0.311 0.74 0.387 0.914 0.103 0.213 0.138 0.282 0.173 0.355 0.056 0.11 0.113 0.218 0.138 0.258 0.02 0.029 0.071 0.044 0.095 0.044 0.042 0 0.092-0.025 0.113-0.05 0.026-0.044 0.051-0.093 0.061-0.123 0.142-0.336 0.26-0.637 0.443-1.058 0.091-0.211 0.138-0.345 0.239-0.567 0.066-0.139 0.111-0.242 0.178-0.37 0.097-0.184 0.249-0.189 0.397-0.223 0.01-0.02 0.025-0.035 0.025-0.06 0-0.019-0.009-0.035-0.025-0.054"/>
   </g>
   <g style="" transform="matrix(2.2589 0 0 -2.2589 452.13 568.45)">
    <path d="m0 0-1.019 0.009h-0.285c-0.01 0.021-0.015 0.049-0.015 0.065 0 0.03 0.005 0.035 0.021 0.059 0.055 0.005 0.188 0 0.253 0.025 0.102 0.044 0.144 0.144 0.144 0.292v1.433s0.005 0.257 0.005 0.332h-0.011l-0.535-1.143c-0.06-0.129-0.126-0.262-0.187-0.4-0.122-0.267-0.189-0.449-0.224-0.554-0.015-0.044-0.057-0.044-0.081-0.044-0.032 0-0.057 0.01-0.077 0.064-0.066 0.148-0.111 0.247-0.136 0.306l-0.847 1.799h-0.013v-0.459l0.013-1.147c0.006-0.351 0.19-0.514 0.48-0.514 0.01-0.019 0.019-0.049 0.019-0.058 0-0.015-0.005-0.04-0.015-0.06-0.019 0-0.076-0.005-0.132-0.005-0.036 0-0.218 0.014-0.488 0.014-0.076 0-0.234-0.005-0.356-0.005h-0.169c-0.009 0.021-0.015 0.041-0.015 0.06 0 0.01 0.006 0.035 0.015 0.054 0.067 0.015 0.317 0.075 0.367 0.124 0.051 0.049 0.097 0.153 0.097 0.395l0.005 0.578-0.005 0.683c-0.005 0.202-0.025 0.275-0.128 0.346-0.04 0.029-0.198 0.048-0.33 0.064-0.015 0.024-0.021 0.048-0.021 0.069 0 0.015 0.006 0.038 0.021 0.064 0.096 0 0.274-0.01 0.447-0.01h0.616c0.02-0.016 0.037-0.025 0.051-0.06l0.753-1.659 0.138 0.33c0.112 0.267 0.285 0.668 0.525 1.102 0.05 0.094 0.116 0.217 0.152 0.283l0.956 0.014c0.011-0.02 0.025-0.035 0.025-0.058 0-0.027-0.01-0.041-0.02-0.066-0.102-0.014-0.285-0.014-0.372-0.157-0.03-0.045-0.051-0.089-0.051-0.293v-1.181c0-0.455 0.118-0.499 0.174-0.533 0.025-0.02 0.172-0.035 0.255-0.035 0.014-0.024 0.019-0.039 0.019-0.065 0-0.033-0.009-0.039-0.019-0.058"/>
   </g>
   <g style="" transform="matrix(2.2589 0 0 -2.2589 436.34 573.36)">
    <path d="m0 0c-0.019 0-0.039 0.004-0.071 0.01-0.056 0.148-0.128 0.286-0.188 0.361-0.102 0.124-0.204 0.207-0.469 0.236-0.056 0.005-0.197 0.005-0.244 0.005l-0.004-1.081c0-0.169 0-0.371 0.004-0.742 0.006-0.287 0.138-0.287 0.442-0.325 0.016-0.031 0.021-0.05 0.021-0.071 0-0.02-0.005-0.039-0.014-0.058h-0.112c-0.18 0-0.531 0.01-0.637 0.01-0.075 0-0.463-0.016-0.645-0.016-0.016 0.025-0.021 0.025-0.021 0.064 0 0.021 0.005 0.04 0.016 0.065 0.401 0.03 0.442 0.104 0.456 0.227 0.01 0.079 0.01 0.406 0.01 0.731v0.9c0 0.109-0.004 0.222-0.019 0.296-0.077 0-0.325 0-0.398-0.024-0.204-0.074-0.345-0.242-0.504-0.54-0.018-0.009-0.05-0.009-0.065-0.009-0.026 0-0.047 0.009-0.06 0.024v0.633c0 0.055 0.009 0.07 0.075 0.07 0.06 0 0.152-0.006 0.275-0.006 0.091 0 0.459-0.004 0.921-0.004 0.605 0 1.058 0.015 1.171 0.015 0.06 0 0.102 0 0.12-0.02 0.012-0.011 0.006-0.055 0.006-0.09v-0.631c-0.015-0.02-0.041-0.03-0.066-0.03"/>
   </g>
   <g style="" transform="matrix(2.2589 0 0 -2.2589 443.43 571.91)">
    <path d="m0 0c-0.228-0.015-0.38-0.134-0.452-0.286l-0.957-2.076s-0.045-0.029-0.076-0.029c-0.029 0-0.065 0.029-0.087 0.094-0.025 0.073-0.142 0.365-0.397 0.929l-0.306 0.677c-0.111 0.252-0.198 0.414-0.227 0.465-0.113 0.187-0.249 0.202-0.402 0.226-0.021 0.026-0.021 0.045-0.021 0.065s0 0.033 0.016 0.059h0.158c0.176 0 0.33-0.01 0.462-0.01 0.159 0 0.422 0.015 0.601 0.015h0.101c0.021-0.005 0.025-0.04 0.025-0.055 0-0.009 0-0.048-0.01-0.069-0.122-0.01-0.381-0.005-0.381-0.162 0-0.035 0.005-0.095 0.025-0.139l0.627-1.453 0.529 1.206c0.06 0.137 0.065 0.257 0.065 0.317 0 0.138-0.096 0.196-0.361 0.226-0.005 0.02-0.014 0.04-0.014 0.06 0 0.019 0.009 0.054 0.014 0.069h0.076c0.118 0 0.235-0.015 0.499-0.015 0.047 0 0.23 0.01 0.316 0.01h0.183c0.01-0.02 0.02-0.035 0.02-0.054 0-0.016-0.01-0.054-0.026-0.07"/>
   </g>
   <g style="" transform="matrix(2.2589 0 0 -2.2589 452.25 577.14)">
    <path d="m0 0-1.019 0.01h-0.285c-0.01 0.019-0.014 0.049-0.014 0.063 0 0.029 0.004 0.035 0.02 0.06 0.057 0.006 0.188 0 0.254 0.024 0.102 0.045 0.143 0.143 0.143 0.292v1.433s0.004 0.257 0.004 0.331h-0.01l-0.533-1.142c-0.061-0.128-0.128-0.261-0.188-0.4-0.123-0.267-0.19-0.45-0.224-0.553-0.016-0.045-0.056-0.045-0.082-0.045-0.031 0-0.057 0.01-0.076 0.066-0.067 0.147-0.112 0.246-0.138 0.306l-0.844 1.798h-0.016v-0.46l0.016-1.146c0.004-0.351 0.188-0.514 0.478-0.514 0.01-0.021 0.019-0.05 0.019-0.059 0-0.016-0.003-0.04-0.014-0.06-0.02 0-0.076-0.004-0.133-0.004-0.036 0-0.218 0.014-0.487 0.014-0.077 0-0.235-0.004-0.356-0.004h-0.17c-0.009 0.019-0.014 0.038-0.014 0.057 0 0.012 0.005 0.035 0.014 0.056 0.067 0.016 0.316 0.075 0.368 0.123 0.049 0.05 0.096 0.154 0.096 0.397l0.005 0.576-0.005 0.683c-0.004 0.202-0.026 0.276-0.127 0.347-0.041 0.028-0.199 0.049-0.332 0.063-0.014 0.024-0.019 0.05-0.019 0.069 0 0.014 0.005 0.04 0.019 0.065 0.097 0 0.276-0.012 0.45-0.012h0.615c0.019-0.013 0.036-0.023 0.05-0.058l0.753-1.661 0.138 0.332c0.112 0.267 0.284 0.667 0.524 1.102 0.05 0.094 0.117 0.218 0.153 0.282l0.956 0.015c0.011-0.02 0.026-0.035 0.026-0.06 0-0.024-0.011-0.04-0.022-0.065-0.101-0.014-0.284-0.014-0.37-0.158-0.031-0.044-0.051-0.089-0.051-0.29v-1.182c0-0.454 0.117-0.498 0.172-0.534 0.026-0.018 0.173-0.034 0.256-0.034 0.015-0.025 0.02-0.04 0.02-0.064 0-0.035-0.01-0.04-0.02-0.059"/>
   </g>
  </g>
 </g>
</svg>