<?xml version="1.0" encoding="utf-8"?>
<!-- Generator: Adobe Illustrator 21.1.0, SVG Export Plug-In . SVG Version: 6.00 Build 0)  -->
<svg version="1.1" id="Layer_1" xmlns="http://www.w3.org/2000/svg" xmlns:xlink="http://www.w3.org/1999/xlink" x="0px" y="0px"
	 viewBox="0 0 550 250" style="enable-background:new 0 0 550 250;" xml:space="preserve">
<style type="text/css">
	.st0{fill:none;}
	.st1{enable-background:new    ;}
	.st2{fill:#FFFFFF;}
</style>
<g>
	<rect x="247" y="102.5" class="st0" width="138" height="41"/>
	<g class="st1">
		<path class="st2" d="M264.2,112.6c3.2,0,5.8,1.2,7.6,3.5s2.7,5.6,2.7,9.9c0,4.2-0.9,7.6-2.7,9.9s-4.4,3.6-7.6,3.6
			c-3.3,0-5.8-1.2-7.6-3.5h-0.4l-1,3.1h-4.1v-36.5h5.5v8.7c0,0.6,0,1.6-0.1,2.9s-0.1,2.1-0.1,2.4h0.2
			C258.2,113.9,260.8,112.6,264.2,112.6z M262.8,117.1c-2.2,0-3.8,0.7-4.8,2s-1.5,3.5-1.5,6.6v0.4c0,3.2,0.5,5.4,1.5,6.9
			s2.6,2.1,4.9,2.1c2,0,3.4-0.8,4.4-2.3s1.5-3.8,1.5-6.7C268.8,120,266.8,117.1,262.8,117.1z"/>
		<path class="st2" d="M292.2,139.4c-4,0-7.2-1.2-9.5-3.5s-3.4-5.6-3.4-9.7c0-4.2,1.1-7.6,3.2-10s5-3.6,8.7-3.6c3.4,0,6.1,1,8.1,3.1
			s3,4.9,3,8.6v3H285c0.1,2.5,0.8,4.4,2,5.8s3.1,2,5.4,2c1.5,0,3-0.1,4.3-0.4s2.7-0.8,4.3-1.4v4.5c-1.3,0.6-2.7,1.1-4.1,1.4
			S293.9,139.4,292.2,139.4z M291.2,116.8c-1.8,0-3.2,0.6-4.2,1.7s-1.7,2.7-1.9,4.9h11.8c0-2.1-0.5-3.8-1.5-4.9
			S292.9,116.8,291.2,116.8z"/>
		<path class="st2" d="M324.7,139l-1.1-3.6h-0.2c-1.2,1.6-2.5,2.7-3.8,3.2s-2.9,0.9-4.9,0.9c-2.5,0-4.5-0.7-6-2.1s-2.1-3.3-2.1-5.8
			c0-2.7,1-4.7,3-6s5-2.1,9.1-2.2l4.5-0.1v-1.4c0-1.7-0.4-2.9-1.2-3.7s-2-1.2-3.6-1.2c-1.3,0-2.6,0.2-3.8,0.6s-2.4,0.9-3.5,1.4
			l-1.8-3.9c1.4-0.7,2.9-1.3,4.6-1.7s3.2-0.6,4.7-0.6c3.3,0,5.8,0.7,7.5,2.2s2.5,3.7,2.5,6.8V139H324.7z M316.5,135.2
			c2,0,3.6-0.6,4.8-1.7s1.8-2.7,1.8-4.7v-2.2l-3.3,0.1c-2.6,0.1-4.5,0.5-5.7,1.3c-1.2,0.8-1.8,2-1.8,3.6c0,1.2,0.3,2.1,1,2.7
			S315.1,135.2,316.5,135.2z"/>
		<path class="st2" d="M346,135c1.3,0,2.7-0.2,4-0.6v4.1c-0.6,0.3-1.4,0.5-2.4,0.7s-2,0.3-3,0.3c-5.2,0-7.8-2.8-7.8-8.2v-14h-3.5
			v-2.4l3.8-2l1.9-5.5h3.4v5.8h7.4v4.2h-7.4v13.9c0,1.3,0.3,2.3,1,2.9S344.9,135,346,135z"/>
		<path class="st2" d="M372.6,131.6c0,2.5-0.9,4.5-2.8,5.8s-4.5,2-7.9,2c-3.5,0-6.2-0.5-8.3-1.6v-4.8c3,1.4,5.9,2.1,8.5,2.1
			c3.4,0,5.1-1,5.1-3.1c0-0.7-0.2-1.2-0.6-1.6s-1-0.9-1.9-1.4s-2.1-1-3.6-1.6c-3-1.2-5-2.3-6.1-3.5s-1.6-2.7-1.6-4.5
			c0-2.2,0.9-3.9,2.7-5.2s4.2-1.8,7.3-1.8c3,0,5.9,0.6,8.6,1.9l-1.8,4.1c-2.8-1.2-5.1-1.7-7.1-1.7c-2.9,0-4.4,0.8-4.4,2.5
			c0,0.8,0.4,1.5,1.1,2.1s2.4,1.3,5,2.3c2.1,0.8,3.7,1.6,4.7,2.3s1.7,1.5,2.2,2.4C372.4,129.3,372.6,130.3,372.6,131.6z"/>
	</g>
	<path id="Beats_1_" class="st2" d="M229,143.5L229,143.5c0,13.3-10.7,24-24,24h-40v-24h28c12,0,23-6.8,28.5-17.4
		C226.1,130.4,229,136.6,229,143.5z M214.8,121.6c1.4-3.1,2.2-6.5,2.2-10.1l0,0c0-13.3-10.7-24-24-24h-28v32v16h28
		C202.7,135.5,211,129.8,214.8,121.6z"/>
</g>
</svg>
