<?xml version="1.0" encoding="utf-8"?>
<!-- Generator: Adobe Illustrator 21.1.0, SVG Export Plug-In . SVG Version: 6.00 Build 0)  -->
<svg version="1.1" id="Layer_1" xmlns="http://www.w3.org/2000/svg" xmlns:xlink="http://www.w3.org/1999/xlink" x="0px" y="0px"
	 viewBox="0 0 550 250" style="enable-background:new 0 0 550 250;" xml:space="preserve">
<style type="text/css">
	.st0{fill:none;}
	.st1{enable-background:new    ;}
	.st2{fill:#FED10A;}
	.st3{fill:#0078A0;}
	.st4{fill:#00A9E5;}
	.st5{fill:#353535;}
	.st6{fill:#00BFB3;}
	.st7{fill:#019B8F;}
</style>
<g>
	<rect x="242" y="102.5" class="st0" width="165" height="41"/>
	<g class="st1">
		<path d="M251.7,125.7l-8.7-12.7h6.3l5.9,9.1l6-9.1h6.2l-8.7,12.7l9.2,13.2h-6.2l-6.4-9.7l-6.4,9.7h-6.2L251.7,125.7z"/>
		<path d="M270.1,128.5v-4.7h12v4.7H270.1z"/>
		<path d="M301,139.4c-3.3,0-5.8-1.2-7.6-3.5H293c0.2,2.2,0.3,3.5,0.3,4v10.6h-5.5v-37.5h4.5c0.1,0.5,0.4,1.6,0.8,3.5h0.3
			c1.7-2.6,4.3-3.9,7.7-3.9c3.2,0,5.8,1.2,7.6,3.5s2.7,5.6,2.7,9.9c0,4.2-0.9,7.5-2.8,9.9S304.2,139.4,301,139.4z M299.6,117.1
			c-2.2,0-3.8,0.6-4.8,1.9s-1.5,3.3-1.5,6.1v0.8c0,3.2,0.5,5.4,1.5,6.9s2.6,2.1,4.9,2.1c1.9,0,3.4-0.8,4.4-2.3s1.5-3.8,1.5-6.7
			c0-2.9-0.5-5.1-1.5-6.6S301.6,117.1,299.6,117.1z"/>
		<path d="M333.9,139l-1.1-3.6h-0.2c-1.2,1.6-2.5,2.7-3.8,3.2s-2.9,0.9-4.9,0.9c-2.5,0-4.5-0.7-6-2.1s-2.1-3.3-2.1-5.8
			c0-2.7,1-4.7,3-6s5-2.1,9.1-2.2l4.5-0.1v-1.4c0-1.7-0.4-2.9-1.2-3.7s-2-1.2-3.6-1.2c-1.3,0-2.6,0.2-3.8,0.6s-2.4,0.9-3.5,1.4
			l-1.8-3.9c1.4-0.7,2.9-1.3,4.6-1.7s3.2-0.6,4.7-0.6c3.3,0,5.8,0.7,7.5,2.2s2.5,3.7,2.5,6.8V139H333.9z M325.7,135.2
			c2,0,3.6-0.6,4.8-1.7s1.8-2.7,1.8-4.7v-2.2l-3.3,0.1c-2.6,0.1-4.5,0.5-5.7,1.3c-1.2,0.8-1.8,2-1.8,3.6c0,1.2,0.3,2.1,1,2.7
			S324.4,135.2,325.7,135.2z"/>
		<path d="M356,139.4c-3.9,0-6.9-1.1-8.9-3.4s-3.1-5.6-3.1-9.9c0-4.4,1.1-7.7,3.2-10.1s5.2-3.5,9.2-3.5c2.7,0,5.2,0.5,7.4,1.5
			l-1.7,4.4c-2.3-0.9-4.2-1.4-5.8-1.4c-4.5,0-6.7,3-6.7,8.9c0,2.9,0.6,5.1,1.7,6.6s2.8,2.2,4.9,2.2c2.5,0,4.8-0.6,7-1.8v4.8
			c-1,0.6-2,1-3.2,1.2S357.6,139.4,356,139.4z"/>
		<path d="M374.7,125.3l3.1-3.9l7.8-8.3h6.4l-10.4,11.1l11.1,14.8h-6.5l-8.3-11.4l-3,2.5v8.9h-5.5v-36.5h5.5v17.8l-0.3,5H374.7z"/>
	</g>
	<g id="X-Pack_2_">
		<path class="st2" d="M203.7,127.5L184,107.8L200.9,91c4.7-4.7,12.2-4.7,16.9,0l2.8,2.8c4.7,4.7,4.7,12.2,0,16.9L203.7,127.5z"/>
		<path class="st3" d="M164.3,127.5l-16.9,16.9c-4.7,4.7-4.7,12.2,0,16.9l2.8,2.8c4.7,4.7,12.2,4.7,16.9,0l16.9-16.9L164.3,127.5z"
			/>
		<g>
			<path class="st4" d="M200.9,124.7L167.1,91c-4.7-4.7-12.2-4.7-16.9,0l-2.8,2.8c-4.7,4.7-4.7,12.2,0,16.9l16.9,16.9l2.8-2.8
				C176.5,115.4,191.5,115.4,200.9,124.7z"/>
			<path class="st5" d="M200.9,124.7c-9.3-9.3-24.4-9.3-33.7,0l-2.8,2.8l0,0l19.7,19.7l19.7-19.7L200.9,124.7z"/>
		</g>
		<g>
			<path class="st6" d="M220.5,144.4l-11.2-11.2l-19.7,19.7l11.2,11.2c4.7,4.7,12.2,4.7,16.9,0l2.8-2.8
				C225.2,156.5,225.2,149,220.5,144.4z"/>
			
				<rect x="182.7" y="136.2" transform="matrix(0.7071 -0.7071 0.7071 0.7071 -41.5295 180.0851)" class="st7" width="27.8" height="7.9"/>
		</g>
	</g>
</g>
</svg>
