<?xml version="1.0" encoding="UTF-8" standalone="no"?>
<svg
   xmlns:dc="http://purl.org/dc/elements/1.1/"
   xmlns:cc="http://creativecommons.org/ns#"
   xmlns:rdf="http://www.w3.org/1999/02/22-rdf-syntax-ns#"
   xmlns:svg="http://www.w3.org/2000/svg"
   xmlns="http://www.w3.org/2000/svg"
   xmlns:sodipodi="http://sodipodi.sourceforge.net/DTD/sodipodi-0.dtd"
   xmlns:inkscape="http://www.inkscape.org/namespaces/inkscape"
   version="1.1"
   x="0px"
   y="0px"
   viewBox="0 0 100 125"
   style="enable-background:new 0 0 100 100;"
   xml:space="preserve"
   id="svg52"
   sodipodi:docname="blockchain.svg"
   inkscape:version="0.92.3 (2405546, 2018-03-11)"><metadata
     id="metadata58"><rdf:RDF><cc:Work
         rdf:about=""><dc:format>image/svg+xml</dc:format><dc:type
           rdf:resource="http://purl.org/dc/dcmitype/StillImage" /><dc:title></dc:title></cc:Work></rdf:RDF></metadata><defs
     id="defs56" /><sodipodi:namedview
     pagecolor="#ffffff"
     bordercolor="#666666"
     borderopacity="1"
     objecttolerance="10"
     gridtolerance="10"
     guidetolerance="10"
     inkscape:pageopacity="0"
     inkscape:pageshadow="2"
     inkscape:window-width="835"
     inkscape:window-height="559"
     id="namedview54"
     showgrid="false"
     inkscape:zoom="1.888"
     inkscape:cx="50"
     inkscape:cy="62.5"
     inkscape:window-x="639"
     inkscape:window-y="333"
     inkscape:window-maximized="0"
     inkscape:current-layer="svg52" /><rect
     x="47.4"
     y="1.7"
     width="5.1"
     height="5.1"
     id="rect2" /><rect
     x="47.4"
     y="93.2"
     width="5.1"
     height="5.1"
     id="rect4" /><rect
     x="13.9"
     y="78.5"
     width="5.1"
     height="5.1"
     id="rect6" /><rect
     x="79.5"
     y="78.5"
     width="5.1"
     height="5.1"
     id="rect8" /><rect
     x="13.9"
     y="15.7"
     width="5.1"
     height="5.1"
     id="rect10" /><rect
     x="79.5"
     y="15.7"
     width="5.1"
     height="5.1"
     id="rect12" /><rect
     x="1.1"
     y="47"
     width="5.1"
     height="5.1"
     id="rect14" /><rect
     x="93.8"
     y="47"
     width="5.1"
     height="5.1"
     id="rect16" /><path
     d="M10.4,24.3c-3.8,5.8-6.2,12.2-7.1,19.1L3.2,44h3l0.1-0.5c1-6.7,3.5-13.1,7.3-18.7l0.6-0.8h-3.5L10.4,24.3z"
     id="path18" /><path
     d="M6.1,55.6L6,55.1H3.1l0.1,0.6c0.9,7.1,3.2,13.6,7,19.6l0.2,0.2h3.5l-0.6-0.8C9.5,69,7,62.4,6.1,55.6z"
     id="path20" /><path
     d="M93.7,43.6l0.1,0.5h3l-0.1-0.6c-1-6.9-3.4-13.3-7.1-19.1l-0.2-0.2h-3.5l0.6,0.8  C90.2,30.5,92.7,36.9,93.7,43.6z"
     id="path22" /><path
     d="M93.9,55.1l-0.1,0.5c-0.9,6.8-3.4,13.5-7.2,19.1L86,75.6h3.5l0.2-0.2c3.8-5.9,6.2-12.5,7-19.6l0.1-0.6  L93.9,55.1L93.9,55.1z"
     id="path24" /><path
     d="M74.1,13l0.1,0.1h5l-1.3-1C71.6,7.3,64,4.2,56.1,3.2l-0.6-0.1v3L56,6.2C62.5,7.1,68.6,9.3,74.1,13z"
     id="path26" /><path
     d="M21.9,12.1l-1.3,1h5l0.1-0.1C31.3,9.3,37.4,7.1,44,6.2l0.5-0.1v-3l-0.6,0.1C35.9,4.2,28.3,7.3,21.9,12.1z"
     id="path28" /><path
     d="M74.6,86.8c-5.6,3.7-12,6.2-18.7,7.1l-0.5,0.1v3l0.6-0.1c8.1-1.1,15.8-4.2,22.3-9.2l1.3-1L74.6,86.8  L74.6,86.8z"
     id="path30" /><path
     d="M25.3,86.8l-0.2-0.1h-4.9l1.3,1c6.5,5,14.3,8.1,22.4,9.2l0.6,0.1v-3L44,93.8C37.3,92.9,30.8,90.4,25.3,86.8  z"
     id="path32" /><path
     d="M63.8,58.6c0-0.1,0-5.7-4.7-8.6l-0.7-0.4l0.6-0.4c0,0,4.5-3.1,4.7-9.6c0-5.3-4.3-9.6-9.6-9.7l-0.5,0v-5.1  h-4.2v5.1h-4.3v-5.1h-4.2v5.1h-6.8V34h7v31.2h-7v4.1h6.8v5.5h4.2v-5.5h4.3v5.5h4.2v-5.5l0.5,0C59.6,68.7,63.8,64.1,63.8,58.6z   M45.2,34.1h8.2c3.4,0,6.2,2.8,6.2,6.2s-2.8,6.2-6.2,6.2h-8.2V34.1z M53.4,64.9h-8.2V52.4h8.2c3.4,0,6.2,2.8,6.2,6.2  S56.9,64.9,53.4,64.9z"
     id="path34" /><path
     d="M77.6,35.3c1.4-0.4,2.5-1.8,2.5-3.4c0-1.9-1.6-3.5-3.5-3.5c-1.9,0-3.5,1.6-3.5,3.5c0,1.6,1.1,2.9,2.5,3.4  v7.4h-6.3v2h8.2V35.3z M75.1,32c0-0.8,0.7-1.5,1.5-1.5s1.5,0.7,1.5,1.5s-0.7,1.5-1.5,1.5S75.1,32.8,75.1,32z"
     id="path36" /><path
     d="M77.6,63.9v-9.3h-8.2v2h6.3v7.4c-1.4,0.4-2.5,1.8-2.5,3.4c0,1.9,1.6,3.5,3.5,3.5c1.9,0,3.5-1.6,3.5-3.5  C80.1,65.6,79,64.3,77.6,63.9z M76.6,68.7c-0.8,0-1.5-0.7-1.5-1.5c0-0.8,0.7-1.5,1.5-1.5s1.5,0.7,1.5,1.5  C78.1,68.1,77.4,68.7,76.6,68.7z"
     id="path38" /><path
     d="M81.6,46.5c-1.6,0-2.9,1.1-3.4,2.5h-8.9v2h8.9c0.4,1.4,1.8,2.5,3.4,2.5c1.9,0,3.5-1.6,3.5-3.5  S83.5,46.5,81.6,46.5z M81.6,51.5c-0.8,0-1.5-0.7-1.5-1.5s0.7-1.5,1.5-1.5c0.8,0,1.5,0.7,1.5,1.5S82.5,51.5,81.6,51.5z"
     id="path40" /><path
     d="M23.1,44.7h8.2v-2h-6.3v-7.4c1.4-0.4,2.5-1.8,2.5-3.4c0-1.9-1.6-3.5-3.5-3.5s-3.5,1.6-3.5,3.5  c0,1.6,1.1,2.9,2.5,3.4V44.7z M24.1,33.5c-0.8,0-1.5-0.7-1.5-1.5s0.7-1.5,1.5-1.5s1.5,0.7,1.5,1.5S24.9,33.5,24.1,33.5z"
     id="path42" /><path
     d="M20.6,67.2c0,1.9,1.6,3.5,3.5,3.5s3.5-1.6,3.5-3.5c0-1.6-1.1-2.9-2.5-3.4v-7.4h6.3v-2h-8.2v9.3  C21.7,64.3,20.6,65.6,20.6,67.2z M22.6,67.2c0-0.8,0.7-1.5,1.5-1.5s1.5,0.7,1.5,1.5c0,0.8-0.7,1.5-1.5,1.5S22.6,68.1,22.6,67.2z"
     id="path44" /><path
     d="M15.6,50c0,1.9,1.6,3.5,3.5,3.5c1.6,0,2.9-1.1,3.4-2.5h8.9v-2h-8.9c-0.4-1.4-1.8-2.5-3.4-2.5  C17.1,46.5,15.6,48,15.6,50z M17.5,50c0-0.8,0.7-1.5,1.5-1.5c0.8,0,1.5,0.7,1.5,1.5s-0.7,1.5-1.5,1.5C18.2,51.5,17.5,50.8,17.5,50z"
     id="path46" /><text
     x="0"
     y="115"
     fill="#000000"
     font-size="5px"
     font-weight="bold"
     font-family="'Helvetica Neue', Helvetica, Arial-Unicode, Arial, Sans-serif"
     id="text48">Created by Aneeque Ahmed</text>
<text
     x="0"
     y="120"
     fill="#000000"
     font-size="5px"
     font-weight="bold"
     font-family="'Helvetica Neue', Helvetica, Arial-Unicode, Arial, Sans-serif"
     id="text50">from the Noun Project</text>
</svg>