<?xml version="1.0" encoding="UTF-8"?>
<!DOCTYPE svg PUBLIC "-//W3C//DTD SVG 1.1//EN" "http://www.w3.org/Graphics/SVG/1.1/DTD/svg11.dtd">
<svg version="1.2" width="262.5mm" height="371.25mm" viewBox="0 0 26250 37125" preserveAspectRatio="xMidYMid" fill-rule="evenodd" stroke-width="28.222" stroke-linejoin="round" xmlns="http://www.w3.org/2000/svg" xmlns:ooo="http://xml.openoffice.org/svg/export" xmlns:xlink="http://www.w3.org/1999/xlink" xmlns:presentation="http://sun.com/xmlns/staroffice/presentation" xmlns:smil="http://www.w3.org/2001/SMIL20/" xmlns:anim="urn:oasis:names:tc:opendocument:xmlns:animation:1.0" xml:space="preserve">
 <defs class="ClipPathGroup">
  <clipPath id="presentation_clip_path" clipPathUnits="userSpaceOnUse">
   <rect x="0" y="0" width="26250" height="37125"/>
  </clipPath>
  <clipPath id="presentation_clip_path_shrink" clipPathUnits="userSpaceOnUse">
   <rect x="26" y="37" width="26198" height="37051"/>
  </clipPath>
 </defs>
 <defs class="TextShapeIndex">
  <g ooo:slide="id1" ooo:id-list="id3 id4 id5 id6 id7 id8 id9 id10 id11 id12 id13 id14 id15 id16 id17 id18 id19 id20 id21 id22 id23 id24 id25 id26 id27 id28 id29 id30 id31 id32 id33 id34 id35 id36 id37 id38 id39 id40 id41 id42 id43 id44 id45 id46 id47 id48 id49 id50 id51 id52 id53 id54 id55 id56 id57 id58 id59 id60 id61"/>
 </defs>
 <defs class="EmbeddedBulletChars">
  <g id="bullet-char-template-57356" transform="scale(0.00048828125,-0.00048828125)">
   <path d="M 580,1141 L 1163,571 580,0 -4,571 580,1141 Z"/>
  </g>
  <g id="bullet-char-template-57354" transform="scale(0.00048828125,-0.00048828125)">
   <path d="M 8,1128 L 1137,1128 1137,0 8,0 8,1128 Z"/>
  </g>
  <g id="bullet-char-template-10146" transform="scale(0.00048828125,-0.00048828125)">
   <path d="M 174,0 L 602,739 174,1481 1456,739 174,0 Z M 1358,739 L 309,1346 659,739 1358,739 Z"/>
  </g>
  <g id="bullet-char-template-10132" transform="scale(0.00048828125,-0.00048828125)">
   <path d="M 2015,739 L 1276,0 717,0 1260,543 174,543 174,936 1260,936 717,1481 1274,1481 2015,739 Z"/>
  </g>
  <g id="bullet-char-template-10007" transform="scale(0.00048828125,-0.00048828125)">
   <path d="M 0,-2 C -7,14 -16,27 -25,37 L 356,567 C 262,823 215,952 215,954 215,979 228,992 255,992 264,992 276,990 289,987 310,991 331,999 354,1012 L 381,999 492,748 772,1049 836,1024 860,1049 C 881,1039 901,1025 922,1006 886,937 835,863 770,784 769,783 710,716 594,584 L 774,223 C 774,196 753,168 711,139 L 727,119 C 717,90 699,76 672,76 641,76 570,178 457,381 L 164,-76 C 142,-110 111,-127 72,-127 30,-127 9,-110 8,-76 1,-67 -2,-52 -2,-32 -2,-23 -1,-13 0,-2 Z"/>
  </g>
  <g id="bullet-char-template-10004" transform="scale(0.00048828125,-0.00048828125)">
   <path d="M 285,-33 C 182,-33 111,30 74,156 52,228 41,333 41,471 41,549 55,616 82,672 116,743 169,778 240,778 293,778 328,747 346,684 L 369,508 C 377,444 397,411 428,410 L 1163,1116 C 1174,1127 1196,1133 1229,1133 1271,1133 1292,1118 1292,1087 L 1292,965 C 1292,929 1282,901 1262,881 L 442,47 C 390,-6 338,-33 285,-33 Z"/>
  </g>
  <g id="bullet-char-template-9679" transform="scale(0.00048828125,-0.00048828125)">
   <path d="M 813,0 C 632,0 489,54 383,161 276,268 223,411 223,592 223,773 276,916 383,1023 489,1130 632,1184 813,1184 992,1184 1136,1130 1245,1023 1353,916 1407,772 1407,592 1407,412 1353,268 1245,161 1136,54 992,0 813,0 Z"/>
  </g>
  <g id="bullet-char-template-8226" transform="scale(0.00048828125,-0.00048828125)">
   <path d="M 346,457 C 273,457 209,483 155,535 101,586 74,649 74,723 74,796 101,859 155,911 209,963 273,989 346,989 419,989 480,963 531,910 582,859 608,796 608,723 608,648 583,586 532,535 482,483 420,457 346,457 Z"/>
  </g>
  <g id="bullet-char-template-8211" transform="scale(0.00048828125,-0.00048828125)">
   <path d="M -4,459 L 1135,459 1135,606 -4,606 -4,459 Z"/>
  </g>
  <g id="bullet-char-template-61548" transform="scale(0.00048828125,-0.00048828125)">
   <path d="M 173,740 C 173,903 231,1043 346,1159 462,1274 601,1332 765,1332 928,1332 1067,1274 1183,1159 1299,1043 1357,903 1357,740 1357,577 1299,437 1183,322 1067,206 928,148 765,148 601,148 462,206 346,322 231,437 173,577 173,740 Z"/>
  </g>
 </defs>
 <defs class="TextEmbeddedBitmaps"/>
 <g>
  <g id="id2" class="Master_Slide">
   <g id="bg-id2" class="Background"/>
   <g id="bo-id2" class="BackgroundObjects"/>
  </g>
 </g>
 <g class="SlideGroup">
  <g>
   <g id="container-id1">
    <g id="id1" class="Slide" clip-path="url(#presentation_clip_path)">
     <g class="Page">
      <g class="com.sun.star.drawing.ClosedBezierShape">
       <g id="id3">
        <rect class="BoundingBox" stroke="none" fill="none" x="2424" y="19988" width="3447" height="3393"/>
        <path fill="rgb(0,0,0)" stroke="none" d="M 5870,21666 C 5870,22659 5104,23380 4147,23380 3172,23380 2424,22650 2424,21702 2424,20708 3190,19988 4147,19988 5123,19988 5870,20717 5870,21666 Z M 5323,21684 C 5323,20781 4886,20152 4147,20152 3345,20152 2971,20909 2971,21684 2971,22586 3409,23216 4147,23216 4949,23206 5323,22459 5323,21684 Z"/>
       </g>
      </g>
      <g class="com.sun.star.drawing.ClosedBezierShape">
       <g id="id4">
        <rect class="BoundingBox" stroke="none" fill="none" x="12934" y="19988" width="3447" height="3393"/>
        <path fill="rgb(0,0,0)" stroke="none" d="M 16380,21666 C 16380,22659 15614,23380 14657,23380 13682,23380 12934,22650 12934,21702 12934,20708 13700,19988 14657,19988 15633,19988 16380,20717 16380,21666 Z M 15833,21684 C 15833,20781 15396,20152 14657,20152 13855,20152 13481,20909 13481,21684 13481,22586 13919,23216 14657,23216 15459,23206 15833,22459 15833,21684 Z"/>
       </g>
      </g>
      <g class="com.sun.star.drawing.ClosedBezierShape">
       <g id="id5">
        <rect class="BoundingBox" stroke="none" fill="none" x="16753" y="20034" width="3402" height="3284"/>
        <path fill="rgb(0,0,0)" stroke="none" d="M 17710,21702 L 18121,21702 C 18741,21702 18877,21310 18877,20937 18877,20654 18750,20390 18458,20262 18303,20198 18157,20198 17956,20198 L 17710,20198 17710,21702 Z M 18467,22222 C 18276,21949 18203,21848 17966,21848 L 17710,21848 17710,22961 C 17710,23052 17747,23097 17847,23116 L 18221,23198 18221,23316 16753,23316 16753,23198 17090,23116 C 17191,23088 17227,23052 17227,22961 L 17227,20390 C 17227,20298 17191,20262 17090,20235 L 16753,20153 16753,20034 18184,20034 C 18485,20034 18695,20061 18868,20125 19224,20262 19424,20599 19424,20918 19424,21320 19123,21657 18622,21775 L 18622,21794 C 18722,21839 18777,21903 19133,22368 L 19579,22961 C 19643,23052 19725,23107 19826,23125 L 20154,23198 20154,23316 19370,23316 C 19278,23316 19233,23289 19151,23179 L 18467,22222 Z"/>
       </g>
      </g>
      <g class="com.sun.star.drawing.ClosedBezierShape">
       <g id="id6">
        <rect class="BoundingBox" stroke="none" fill="none" x="9999" y="20043" width="2481" height="3283"/>
        <path fill="rgb(0,0,0)" stroke="none" d="M 12041,21164 L 12178,21164 12178,22259 12041,22259 11959,21930 C 11932,21812 11859,21766 11750,21766 L 10956,21766 10956,22970 C 10956,23061 10993,23106 11093,23125 L 11467,23207 11467,23325 9999,23325 9999,23207 10336,23125 C 10437,23097 10473,23061 10473,22970 L 10473,20399 C 10473,20307 10437,20271 10336,20244 L 9999,20162 9999,20043 12479,20043 12479,20864 12342,20864 12187,20371 C 12151,20244 12096,20198 11987,20198 L 10956,20198 10956,21611 11750,21611 C 11859,21611 11923,21566 11959,21447 L 12041,21164 Z"/>
       </g>
      </g>
      <g class="com.sun.star.drawing.ClosedBezierShape">
       <g id="id7">
        <rect class="BoundingBox" stroke="none" fill="none" x="20417" y="20034" width="3411" height="3284"/>
        <path fill="rgb(0,0,0)" stroke="none" d="M 20417,23316 L 20417,23198 20754,23116 C 20855,23088 20891,23052 20891,22961 L 20891,20390 C 20891,20298 20855,20262 20754,20235 L 20417,20153 20417,20034 21958,20034 C 22377,20034 22678,20089 22924,20198 23544,20481 23827,21092 23827,21693 23827,22277 23608,22824 23052,23116 22797,23252 22441,23316 21976,23316 L 20417,23316 Z M 21374,20198 L 21374,23024 C 21374,23143 21402,23170 21520,23170 L 21921,23170 C 22304,23170 22587,23116 22787,22970 23125,22724 23280,22277 23280,21712 23280,21155 23125,20608 22669,20344 22478,20235 22231,20198 21848,20198 L 21374,20198 Z"/>
       </g>
      </g>
      <g class="com.sun.star.drawing.ClosedBezierShape">
       <g id="id8">
        <rect class="BoundingBox" stroke="none" fill="none" x="5997" y="20034" width="3566" height="3284"/>
        <path fill="rgb(0,0,0)" stroke="none" d="M 7155,23198 L 7155,23316 5997,23316 5997,23198 6289,23125 C 6398,23097 6471,23061 6544,22979 L 7547,21721 6544,20390 C 6480,20298 6398,20253 6298,20225 L 6024,20153 6024,20034 7465,20034 7465,20153 7155,20216 C 7045,20235 7073,20280 7128,20353 L 7866,21411 7884,21411 8641,20353 C 8696,20280 8714,20253 8614,20225 L 8322,20153 8322,20034 9480,20034 9480,20153 9188,20225 C 9079,20253 9006,20289 8933,20371 L 7985,21566 9042,22961 C 9106,23052 9188,23097 9288,23125 L 9562,23198 9562,23316 8112,23316 8112,23198 8422,23134 C 8532,23116 8513,23079 8459,23006 L 7656,21876 7638,21876 6836,23006 C 6781,23079 6763,23107 6863,23134 L 7155,23198 Z"/>
       </g>
      </g>
      <g class="com.sun.star.drawing.ClosedBezierShape">
       <g id="id9">
        <rect class="BoundingBox" stroke="none" fill="none" x="2725" y="17063" width="1111" height="1588"/>
        <path fill="rgb(0,0,0)" stroke="none" d="M 3701,18495 C 3610,18586 3473,18650 3281,18650 3117,18650 2962,18595 2862,18495 2716,18349 2725,18176 2725,17984 L 2725,17072 2907,17072 2907,18048 C 2907,18176 2907,18294 2999,18385 3063,18449 3163,18486 3281,18486 3400,18486 3491,18449 3546,18385 3656,18276 3646,18167 3646,17884 L 3646,17063 3829,17063 3829,17838 C 3838,18130 3856,18349 3701,18495 Z"/>
       </g>
      </g>
      <g class="com.sun.star.drawing.PolyPolygonShape">
       <g id="id10">
        <rect class="BoundingBox" stroke="none" fill="none" x="4439" y="17063" width="1114" height="1561"/>
        <path fill="rgb(0,0,0)" stroke="none" d="M 5351,18623 L 4603,17346 4612,18623 4439,18623 4439,17072 4631,17072 5379,18358 5379,17063 5552,17063 5552,18613 5351,18613 5351,18623 Z"/>
       </g>
      </g>
      <g class="com.sun.star.drawing.PolyPolygonShape">
       <g id="id11">
        <rect class="BoundingBox" stroke="none" fill="none" x="6189" y="17072" width="193" height="1551"/>
        <path fill="rgb(0,0,0)" stroke="none" d="M 6189,18622 L 6189,17072 6381,17072 6381,18622 6189,18622 Z"/>
       </g>
      </g>
      <g class="com.sun.star.drawing.PolyPolygonShape">
       <g id="id12">
        <rect class="BoundingBox" stroke="none" fill="none" x="6790" y="17072" width="1296" height="1551"/>
        <path fill="rgb(0,0,0)" stroke="none" d="M 7538,18622 L 7328,18622 6790,17072 6982,17072 7438,18440 7903,17072 8085,17072 7538,18622 Z"/>
       </g>
      </g>
      <g class="com.sun.star.drawing.PolyPolygonShape">
       <g id="id13">
        <rect class="BoundingBox" stroke="none" fill="none" x="8513" y="17072" width="868" height="1561"/>
        <path fill="rgb(0,0,0)" stroke="none" d="M 8513,18622 L 8513,17072 9362,17072 9362,17227 8696,17227 8696,17738 9316,17738 9316,17893 8696,17893 8696,18467 9380,18467 9380,18632 8513,18622 Z"/>
       </g>
      </g>
      <g class="com.sun.star.drawing.ClosedBezierShape">
       <g id="id14">
        <rect class="BoundingBox" stroke="none" fill="none" x="9871" y="17072" width="1050" height="1551"/>
        <path fill="rgb(0,0,0)" stroke="none" d="M 10555,17300 C 10464,17209 10355,17218 10227,17218 L 10053,17218 10053,17802 10117,17802 C 10272,17802 10446,17811 10546,17701 10601,17647 10628,17574 10628,17501 10628,17409 10592,17336 10555,17300 Z M 10729,18622 L 10546,18221 C 10437,17975 10382,17948 10163,17948 L 10053,17948 10053,18622 9871,18622 9871,17072 10209,17072 C 10418,17072 10573,17072 10692,17191 10774,17273 10811,17373 10811,17501 10811,17610 10783,17701 10710,17765 10656,17829 10564,17875 10464,17884 10519,17884 10564,17920 10592,17948 10637,17993 10665,18057 10710,18157 L 10920,18622 10729,18622 Z"/>
       </g>
      </g>
      <g class="com.sun.star.drawing.PolyPolygonShape">
       <g id="id15">
        <rect class="BoundingBox" stroke="none" fill="none" x="12733" y="17072" width="193" height="1551"/>
        <path fill="rgb(0,0,0)" stroke="none" d="M 12733,18622 L 12733,17072 12925,17072 12925,18622 12733,18622 Z"/>
       </g>
      </g>
      <g class="com.sun.star.drawing.PolyPolygonShape">
       <g id="id16">
        <rect class="BoundingBox" stroke="none" fill="none" x="13326" y="17063" width="1114" height="1551"/>
        <path fill="rgb(0,0,0)" stroke="none" d="M 13983,17218 L 13983,18613 13791,18613 13791,17218 13326,17218 13326,17063 14439,17063 14439,17218 13983,17218 Z"/>
       </g>
      </g>
      <g class="com.sun.star.drawing.PolyPolygonShape">
       <g id="id17">
        <rect class="BoundingBox" stroke="none" fill="none" x="14664" y="17063" width="1170" height="1551"/>
        <path fill="rgb(0,0,0)" stroke="none" d="M 15340,18002 L 15340,18613 15158,18613 15158,18002 14665,17063 14875,17063 15258,17793 15632,17063 15833,17063 15340,18002 Z"/>
       </g>
      </g>
      <g class="com.sun.star.drawing.ClosedBezierShape">
       <g id="id18">
        <rect class="BoundingBox" stroke="none" fill="none" x="16880" y="17035" width="1406" height="1616"/>
        <path fill="rgb(0,0,0)" stroke="none" d="M 17573,17190 C 17272,17190 17072,17445 17072,17838 17072,18221 17290,18485 17582,18485 17911,18485 18084,18212 18084,17819 18093,17445 17874,17190 17573,17190 Z M 17573,18649 C 17172,18649 16880,18321 16880,17847 16880,17363 17172,17035 17591,17035 18002,17035 18285,17363 18285,17838 18285,18312 18002,18649 17573,18649 Z"/>
       </g>
      </g>
      <g class="com.sun.star.drawing.PolyPolygonShape">
       <g id="id19">
        <rect class="BoundingBox" stroke="none" fill="none" x="18803" y="17072" width="831" height="1551"/>
        <path fill="rgb(0,0,0)" stroke="none" d="M 18986,17218 L 18986,17729 19588,17729 19588,17884 18986,17884 18986,18622 18803,18622 18803,17072 19633,17072 19633,17227 18986,17227 18986,17218 Z"/>
       </g>
      </g>
      <g class="com.sun.star.drawing.ClosedBezierShape">
       <g id="id20">
        <rect class="BoundingBox" stroke="none" fill="none" x="11266" y="17035" width="968" height="1616"/>
        <path fill="rgb(0,0,0)" stroke="none" d="M 11293,17445 C 11293,17208 11485,17035 11768,17035 12051,17035 12188,17181 12206,17199 L 12115,17309 C 12078,17281 11959,17190 11786,17190 11585,17190 11476,17290 11476,17436 11476,17500 11503,17555 11549,17591 11604,17637 11677,17673 11768,17710 11868,17755 12014,17810 12115,17911 12178,17984 12233,18066 12233,18193 12233,18449 12051,18649 11731,18649 11458,18649 11284,18494 11266,18485 L 11348,18357 C 11394,18394 11567,18494 11722,18494 11959,18494 12042,18367 12042,18212 12042,18139 12005,18084 11959,18038 11886,17965 11777,17920 11667,17874 11567,17828 11467,17774 11394,17701 11339,17646 11293,17564 11293,17445 Z"/>
       </g>
      </g>
      <g class="com.sun.star.drawing.ClosedBezierShape">
       <g id="id21">
        <rect class="BoundingBox" stroke="none" fill="none" x="15987" y="6134" width="4650" height="2700"/>
        <path fill="rgb(0,0,0)" stroke="none" d="M 20472,6207 C 20472,6207 20472,8386 20472,8532 20336,8532 18795,8532 18795,8532 L 18777,8578 C 18749,8651 18695,8714 18512,8714 18330,8714 18275,8651 18248,8578 L 18230,8532 C 18230,8532 16689,8532 16552,8532 16552,8386 16552,6207 16552,6207 L 16397,6207 16397,6280 16251,6234 C 16233,6180 16178,6134 16124,6134 16051,6134 15987,6198 15987,6271 15987,6344 16051,6408 16124,6408 16160,6408 16188,6398 16215,6371 L 16406,6426 16406,6608 16260,6581 C 16242,6535 16188,6499 16133,6499 16060,6499 15996,6563 15996,6635 15996,6708 16060,6772 16133,6772 16169,6772 16206,6754 16233,6727 L 16406,6754 16406,6945 16260,6936 C 16233,6900 16197,6873 16142,6873 16069,6873 16005,6936 16005,7009 16005,7082 16069,7146 16142,7146 16188,7146 16224,7119 16251,7091 L 16406,7101 16406,7310 16251,7319 C 16224,7283 16188,7265 16142,7265 16069,7265 16005,7328 16005,7401 16005,7474 16069,7538 16142,7538 16188,7538 16233,7511 16260,7474 L 16406,7465 16406,7657 16242,7684 C 16215,7657 16178,7638 16142,7638 16069,7638 16005,7702 16005,7775 16005,7848 16069,7912 16142,7912 16197,7912 16251,7876 16270,7830 L 16406,7803 16406,7994 16224,8049 C 16197,8031 16169,8012 16133,8012 16060,8012 15996,8076 15996,8149 15996,8222 16060,8286 16133,8286 16197,8286 16251,8240 16260,8186 L 16397,8140 16397,8322 16197,8413 C 16178,8395 16151,8386 16124,8386 16051,8386 15987,8450 15987,8523 15987,8596 16051,8660 16124,8660 16188,8660 16251,8614 16260,8541 L 16406,8477 16406,8641 C 16406,8641 18066,8641 18148,8641 18221,8769 18339,8833 18521,8833 18704,8833 18831,8769 18895,8641 18977,8641 20636,8641 20636,8641 L 20636,6207 20472,6207 Z"/>
       </g>
      </g>
      <g class="com.sun.star.drawing.ClosedBezierShape">
       <g id="id22">
        <rect class="BoundingBox" stroke="none" fill="none" x="16725" y="5441" width="1278" height="239"/>
        <path fill="rgb(0,0,0)" stroke="none" d="M 18002,5560 C 18002,5582 17975,5601 17916,5619 17858,5638 17785,5652 17683,5663 17581,5674 17481,5679 17364,5679 17246,5679 17146,5674 17044,5663 16942,5652 16869,5638 16811,5619 16752,5601 16725,5582 16725,5560 16725,5538 16752,5519 16811,5500 16869,5482 16942,5468 17044,5457 17146,5446 17246,5441 17364,5441 17481,5441 17581,5446 17683,5457 17785,5468 17858,5482 17916,5500 17975,5519 18002,5538 18002,5560 Z"/>
       </g>
      </g>
      <g class="com.sun.star.drawing.ClosedBezierShape">
       <g id="id23">
        <rect class="BoundingBox" stroke="none" fill="none" x="16479" y="4493" width="1825" height="877"/>
        <path fill="rgb(0,0,0)" stroke="none" d="M 18239,4676 L 17874,4931 17874,4958 17965,4995 C 17984,5004 17984,5013 17975,5022 L 17747,5214 17728,5214 17564,4977 C 17555,4958 17555,4949 17573,4940 L 17683,4922 17683,4895 17400,4493 17354,4493 17072,4895 17072,4922 17181,4940 C 17199,4940 17209,4958 17190,4977 L 17026,5214 17008,5214 16789,5022 C 16780,5013 16780,5004 16798,4995 L 16889,4958 16889,4931 16506,4676 16479,4685 16707,5369 C 16826,5314 17081,5278 17391,5278 17701,5278 17956,5314 18075,5369 L 18303,4685 18239,4676 Z"/>
       </g>
      </g>
      <g class="com.sun.star.drawing.ClosedBezierShape">
       <g id="id24">
        <rect class="BoundingBox" stroke="none" fill="none" x="17865" y="10035" width="1278" height="239"/>
        <path fill="rgb(0,0,0)" stroke="none" d="M 19142,10154 C 19142,10176 19115,10195 19056,10213 18998,10232 18925,10246 18823,10257 18721,10268 18621,10273 18504,10273 18386,10273 18286,10268 18184,10257 18082,10246 18009,10232 17951,10213 17892,10195 17865,10176 17865,10154 17865,10132 17892,10113 17951,10094 18009,10076 18082,10062 18184,10051 18286,10040 18386,10035 18504,10035 18621,10035 18721,10040 18823,10051 18925,10062 18998,10076 19056,10094 19115,10113 19142,10132 19142,10154 Z"/>
       </g>
      </g>
      <g class="com.sun.star.drawing.ClosedBezierShape">
       <g id="id25">
        <rect class="BoundingBox" stroke="none" fill="none" x="17618" y="9096" width="1825" height="877"/>
        <path fill="rgb(0,0,0)" stroke="none" d="M 19378,9278 L 19013,9534 19013,9561 19104,9598 C 19123,9607 19123,9616 19114,9625 L 18886,9817 18867,9817 18703,9580 C 18694,9561 18694,9552 18712,9543 L 18822,9525 18822,9497 18539,9096 18493,9096 18211,9497 18211,9525 18320,9543 C 18338,9543 18348,9561 18329,9580 L 18165,9817 18147,9817 17928,9625 C 17919,9616 17919,9607 17937,9598 L 18028,9561 18028,9534 17645,9278 17618,9288 17846,9972 C 17965,9917 18220,9881 18530,9881 18840,9881 19095,9917 19214,9972 L 19442,9288 19378,9278 Z"/>
       </g>
      </g>
      <g class="com.sun.star.drawing.ClosedBezierShape">
       <g id="id26">
        <rect class="BoundingBox" stroke="none" fill="none" x="19004" y="5441" width="1278" height="239"/>
        <path fill="rgb(0,0,0)" stroke="none" d="M 20281,5560 C 20281,5582 20254,5601 20195,5619 20137,5638 20064,5652 19962,5663 19860,5674 19760,5679 19643,5679 19525,5679 19425,5674 19323,5663 19221,5652 19148,5638 19090,5619 19031,5601 19004,5582 19004,5560 19004,5538 19031,5519 19090,5500 19148,5482 19221,5468 19323,5457 19425,5446 19525,5441 19643,5441 19760,5441 19860,5446 19962,5457 20064,5468 20137,5482 20195,5500 20254,5519 20281,5538 20281,5560 Z"/>
       </g>
      </g>
      <g class="com.sun.star.drawing.ClosedBezierShape">
       <g id="id27">
        <rect class="BoundingBox" stroke="none" fill="none" x="18758" y="4493" width="1825" height="868"/>
        <path fill="rgb(0,0,0)" stroke="none" d="M 20518,4676 L 20153,4931 20153,4958 20244,4995 C 20263,5004 20263,5013 20254,5022 L 20026,5214 20007,5214 19843,4977 C 19834,4958 19834,4949 19852,4940 L 19962,4922 19962,4895 19679,4493 19633,4493 19351,4895 19351,4922 19460,4940 C 19478,4940 19488,4958 19469,4977 L 19305,5214 19287,5214 19068,5013 C 19059,5004 19059,4995 19077,4986 L 19168,4949 19168,4922 18785,4666 18758,4676 18986,5360 C 19105,5305 19360,5269 19670,5269 19980,5269 20235,5305 20354,5360 L 20582,4676 20518,4676 Z"/>
       </g>
      </g>
      <g class="com.sun.star.drawing.ClosedBezierShape">
       <g id="id28">
        <rect class="BoundingBox" stroke="none" fill="none" x="16771" y="6043" width="1662" height="2509"/>
        <path fill="rgb(0,0,0)" stroke="none" d="M 18431,6554 C 18431,6362 18367,6198 18221,6116 18130,6061 18011,6043 17856,6043 L 16771,6043 16771,8240 17957,8240 C 18230,8240 18394,8304 18403,8551 L 18431,8551 18431,6554 Z M 17628,6690 C 17656,6690 17665,6681 17665,6663 17665,6645 17674,6627 17674,6581 L 17683,6481 C 17683,6417 17683,6417 17647,6408 L 17647,6389 17756,6389 17838,6581 17911,6389 18030,6389 18030,6408 C 17993,6408 17993,6417 17993,6462 L 18002,6627 C 18002,6681 18002,6681 18039,6681 L 18039,6700 17884,6700 17884,6681 C 17920,6681 17920,6672 17920,6627 L 17920,6453 17829,6700 17802,6700 17710,6472 17710,6581 C 17710,6627 17710,6645 17710,6663 17710,6681 17719,6681 17756,6690 L 17756,6709 17637,6709 17628,6690 Z M 17911,7174 C 17865,7155 17820,7128 17820,7073 17820,7019 17856,6973 17938,6973 17957,6973 17966,6973 17984,6982 17993,6982 18002,6991 18011,6991 18011,7010 18020,7037 18020,7064 L 18002,7064 C 17993,7037 17975,7000 17938,7000 17911,7000 17893,7019 17893,7046 17893,7073 17911,7082 17938,7101 L 17947,7110 C 17993,7128 18030,7155 18030,7210 18030,7274 17984,7310 17911,7310 17893,7310 17875,7310 17856,7301 17838,7292 17829,7292 17829,7292 17829,7274 17820,7247 17811,7210 L 17829,7201 C 17838,7228 17865,7283 17911,7283 17938,7283 17957,7265 17957,7237 17957,7201 17938,7183 17911,7174 Z M 17592,7019 C 17601,7046 17637,7137 17656,7192 17674,7146 17701,7055 17710,7037 17719,7010 17719,7000 17692,7000 L 17674,7000 17674,6982 17792,6982 17792,7000 C 17765,7000 17756,7010 17738,7046 17738,7055 17674,7201 17637,7292 L 17601,7292 C 17564,7201 17519,7082 17501,7037 17482,6991 17473,6991 17455,6991 L 17455,6973 17610,6973 17610,6991 17592,6991 C 17583,7000 17583,7010 17592,7019 Z M 17446,6389 C 17537,6389 17601,6453 17601,6554 17601,6654 17528,6718 17437,6718 17336,6718 17273,6645 17273,6554 17282,6481 17336,6389 17446,6389 Z M 16908,6709 L 16908,6690 C 16944,6690 16944,6681 16944,6636 L 16944,6472 C 16944,6417 16944,6417 16908,6417 L 16908,6399 17054,6399 C 17118,6399 17163,6408 17200,6444 17227,6462 17245,6499 17245,6545 17245,6663 17154,6718 17045,6718 L 16908,6718 16908,6709 Z M 17236,7575 C 17200,7575 17200,7584 17200,7630 L 17200,7794 C 17200,7848 17200,7848 17236,7848 L 17236,7867 17081,7867 17081,7848 C 17118,7848 17118,7839 17118,7794 L 17118,7630 C 17118,7575 17118,7575 17081,7575 L 17081,7557 17236,7557 17236,7575 Z M 17236,7292 L 17118,7292 17118,7274 C 17136,7274 17154,7265 17154,7247 17154,7228 17154,7201 17154,7155 L 17154,7064 C 17154,7028 17154,7019 17145,7010 17136,7000 17127,7000 17108,6991 L 17108,6973 17218,6973 17382,7174 17382,7110 C 17382,7055 17382,7037 17382,7019 17382,7000 17364,6991 17336,6991 L 17336,6973 17464,6973 17464,6991 C 17437,6991 17428,7000 17428,7019 17428,7037 17428,7064 17428,7110 L 17428,7292 17382,7292 17200,7064 17200,7155 C 17200,7210 17200,7228 17200,7247 17200,7265 17218,7274 17245,7274 L 17236,7292 Z M 17501,7876 L 17263,7876 17263,7858 C 17300,7858 17300,7848 17300,7803 L 17300,7639 C 17300,7584 17300,7584 17263,7584 L 17263,7566 17419,7566 17419,7584 C 17382,7584 17382,7593 17382,7639 L 17382,7803 C 17382,7830 17382,7839 17391,7848 17400,7848 17409,7848 17428,7848 17446,7848 17464,7848 17473,7830 17482,7821 17491,7812 17501,7785 L 17519,7785 C 17519,7812 17510,7858 17501,7876 Z M 17774,7876 L 17537,7876 17537,7858 C 17574,7858 17574,7848 17574,7803 L 17574,7639 C 17574,7584 17574,7584 17537,7584 L 17537,7566 17692,7566 17692,7584 C 17656,7584 17656,7593 17656,7639 L 17656,7803 C 17656,7830 17656,7839 17665,7848 17674,7848 17683,7848 17701,7848 17719,7848 17738,7848 17747,7830 17756,7821 17765,7812 17774,7785 L 17792,7785 C 17792,7812 17774,7858 17774,7876 Z M 18075,7575 C 18048,7575 18039,7584 18020,7620 18020,7630 17957,7775 17920,7867 L 17884,7867 C 17847,7775 17802,7657 17783,7611 17765,7566 17756,7566 17738,7566 L 17738,7548 17893,7548 17893,7566 17875,7566 C 17856,7566 17856,7575 17865,7593 17875,7620 17911,7712 17929,7766 17947,7721 17975,7630 17984,7611 17993,7584 17993,7575 17966,7575 L 17947,7575 17947,7557 18066,7557 18075,7575 Z M 18230,6417 C 18194,6417 18194,6426 18194,6472 L 18194,6636 C 18194,6690 18194,6690 18230,6690 L 18230,6709 18075,6709 18075,6690 C 18112,6690 18112,6681 18112,6636 L 18112,6472 C 18112,6417 18112,6417 18075,6417 L 18075,6399 18230,6399 18230,6417 Z"/>
       </g>
      </g>
      <g class="com.sun.star.drawing.ClosedBezierShape">
       <g id="id29">
        <rect class="BoundingBox" stroke="none" fill="none" x="17035" y="6426" width="120" height="266"/>
        <path fill="rgb(0,0,0)" stroke="none" d="M 17053,6426 C 17044,6426 17035,6426 17035,6426 17035,6426 17035,6435 17035,6453 L 17035,6636 C 17035,6682 17044,6691 17072,6691 17118,6691 17154,6646 17154,6563 17145,6453 17099,6426 17053,6426 Z"/>
       </g>
      </g>
      <g class="com.sun.star.drawing.ClosedBezierShape">
       <g id="id30">
        <rect class="BoundingBox" stroke="none" fill="none" x="17380" y="6408" width="140" height="285"/>
        <path fill="rgb(0,0,0)" stroke="none" d="M 17455,6692 C 17501,6692 17519,6655 17519,6563 17519,6463 17483,6408 17446,6408 17409,6408 17382,6454 17382,6536 17373,6628 17400,6692 17455,6692 Z"/>
       </g>
      </g>
      <g class="com.sun.star.drawing.PolyPolygonShape">
       <g id="id31">
        <rect class="BoundingBox" stroke="none" fill="none" x="19733" y="7656" width="66" height="93"/>
        <path fill="rgb(0,0,0)" stroke="none" d="M 19761,7656 L 19733,7748 19798,7748 19761,7656 Z"/>
       </g>
      </g>
      <g class="com.sun.star.drawing.PolyPolygonShape">
       <g id="id32">
        <rect class="BoundingBox" stroke="none" fill="none" x="19842" y="6498" width="66" height="94"/>
        <path fill="rgb(0,0,0)" stroke="none" d="M 19879,6499 L 19842,6591 19907,6591 19879,6499 Z"/>
       </g>
      </g>
      <g class="com.sun.star.drawing.ClosedBezierShape">
       <g id="id33">
        <rect class="BoundingBox" stroke="none" fill="none" x="19605" y="7000" width="148" height="286"/>
        <path fill="rgb(0,0,0)" stroke="none" d="M 19605,7128 C 19605,7220 19642,7284 19688,7284 19733,7284 19752,7247 19752,7155 19752,7055 19715,7000 19678,7000 19633,7000 19605,7037 19605,7128 Z"/>
       </g>
      </g>
      <g class="com.sun.star.drawing.ClosedBezierShape">
       <g id="id34">
        <rect class="BoundingBox" stroke="none" fill="none" x="18576" y="6052" width="1671" height="2509"/>
        <path fill="rgb(0,0,0)" stroke="none" d="M 19151,6052 C 19005,6052 18877,6070 18786,6125 18640,6207 18576,6362 18576,6563 L 18576,8560 18603,8560 C 18622,8313 18777,8249 19050,8249 L 20245,8249 20245,6052 19151,6052 Z M 19406,6398 L 19515,6398 19680,6599 19680,6535 C 19680,6481 19680,6462 19680,6444 19680,6426 19661,6417 19634,6417 L 19634,6398 19762,6398 19762,6417 C 19734,6417 19725,6426 19725,6444 19725,6462 19725,6490 19725,6535 L 19725,6718 19680,6718 19497,6490 19497,6581 C 19497,6636 19497,6654 19497,6672 19497,6690 19515,6699 19543,6699 L 19543,6718 19415,6718 19415,6699 C 19433,6699 19452,6690 19452,6672 19452,6654 19452,6626 19452,6581 L 19452,6490 C 19452,6453 19452,6444 19442,6435 19433,6426 19424,6426 19406,6417 L 19406,6398 Z M 19844,7128 C 19844,7228 19771,7292 19680,7292 19579,7292 19515,7219 19515,7128 19515,7046 19570,6955 19680,6955 19771,6973 19844,7037 19844,7128 Z M 19479,7274 L 19479,7292 19324,7292 19324,7274 C 19360,7274 19360,7265 19360,7219 L 19360,7055 C 19360,7000 19360,7000 19324,7000 L 19324,6982 19479,6982 19479,7000 C 19442,7000 19442,7009 19442,7055 L 19442,7219 C 19442,7265 19442,7274 19479,7274 Z M 19224,6690 C 19260,6690 19260,6681 19260,6636 L 19260,6471 C 19260,6417 19260,6417 19224,6417 L 19224,6398 19379,6398 19379,6417 C 19342,6417 19342,6426 19342,6471 L 19342,6636 C 19342,6690 19342,6690 19379,6690 L 19379,6709 19224,6709 19224,6690 Z M 19233,7274 L 19233,7292 19059,7292 19059,7274 C 19096,7274 19105,7265 19105,7219 L 19105,7009 19096,7009 C 19059,7009 19050,7019 19041,7028 19032,7037 19032,7046 19023,7073 L 19005,7073 C 19005,7037 19014,7000 19014,6973 L 19032,6973 C 19041,6982 19041,6982 19059,6982 L 19251,6982 C 19260,6982 19269,6982 19278,6973 L 19296,6973 C 19296,6991 19296,7037 19306,7073 L 19287,7073 C 19278,7046 19278,7028 19269,7028 19260,7019 19242,7019 19224,7019 L 19214,7019 19214,7228 C 19187,7265 19187,7274 19233,7274 Z M 18904,6709 L 18786,6709 18786,6690 C 18813,6690 18822,6681 18822,6663 18822,6645 18831,6626 18831,6581 L 18840,6481 C 18840,6417 18840,6417 18804,6408 L 18804,6389 18913,6389 18996,6581 19068,6389 19187,6389 19187,6408 C 19151,6408 19151,6417 19151,6462 L 19160,6626 C 19160,6681 19160,6681 19196,6681 L 19196,6699 19041,6699 19041,6681 C 19078,6681 19078,6672 19078,6626 L 19078,6453 18986,6699 18959,6699 18868,6471 18868,6581 C 18868,6626 18868,6645 18868,6663 18868,6681 18877,6681 18913,6690 L 18904,6709 Z M 19333,7876 L 19178,7876 19178,7857 C 19214,7857 19214,7848 19214,7803 L 19214,7629 19123,7876 19096,7876 19005,7648 19005,7757 C 19005,7803 19005,7821 19005,7839 19005,7857 19014,7857 19050,7867 L 19050,7885 18932,7885 18932,7867 C 18959,7867 18968,7857 18968,7839 18968,7821 18977,7803 18977,7757 L 18986,7657 C 18986,7593 18986,7593 18950,7584 L 18950,7566 19059,7566 19141,7757 19214,7566 19333,7566 19333,7584 C 19296,7584 19296,7593 19296,7639 L 19306,7803 C 19306,7857 19306,7857 19342,7857 L 19333,7876 Z M 19607,7876 L 19360,7876 19360,7857 C 19397,7857 19406,7848 19406,7803 L 19406,7639 C 19406,7584 19406,7584 19369,7584 L 19369,7566 19597,7566 C 19597,7575 19597,7611 19607,7648 L 19588,7648 C 19579,7620 19579,7611 19570,7602 19561,7593 19543,7593 19524,7593 L 19506,7593 C 19488,7593 19488,7593 19488,7611 L 19488,7702 19515,7702 C 19561,7702 19561,7702 19561,7666 L 19579,7666 19579,7784 19561,7784 C 19552,7739 19552,7739 19515,7739 L 19488,7739 19488,7821 C 19488,7848 19488,7857 19497,7867 19506,7867 19515,7867 19534,7867 19552,7867 19570,7867 19588,7848 19597,7839 19607,7821 19616,7803 L 19634,7803 C 19625,7812 19616,7857 19607,7876 Z M 19944,7876 L 19789,7876 19789,7857 19807,7857 C 19825,7857 19825,7848 19816,7830 L 19798,7784 19716,7784 19698,7830 C 19689,7848 19689,7857 19716,7857 L 19734,7857 19734,7876 19625,7876 19625,7857 C 19652,7857 19661,7848 19670,7812 L 19771,7566 19807,7557 19844,7648 C 19862,7702 19889,7766 19908,7812 19926,7857 19935,7857 19953,7857 L 19944,7876 Z M 20063,6709 L 19908,6709 19908,6690 19926,6690 C 19944,6690 19944,6681 19935,6663 L 19917,6617 19835,6617 19816,6663 C 19807,6681 19807,6690 19835,6690 L 19853,6690 19853,6709 19743,6709 19743,6690 C 19771,6690 19780,6681 19789,6645 L 19889,6398 19926,6389 19962,6481 C 19980,6535 20008,6599 20026,6645 20044,6690 20053,6690 20072,6690 L 20063,6709 Z"/>
       </g>
      </g>
      <g class="com.sun.star.drawing.ClosedBezierShape">
       <g id="id35">
        <rect class="BoundingBox" stroke="none" fill="none" x="17819" y="11639" width="257" height="257"/>
        <path fill="rgb(0,0,0)" stroke="none" d="M 18075,11767 C 18075,11791 18070,11811 18058,11831 18046,11852 18032,11866 18011,11878 17991,11890 17971,11895 17947,11895 17924,11895 17903,11890 17883,11878 17863,11866 17848,11852 17836,11831 17824,11811 17819,11791 17819,11767 17819,11744 17824,11723 17836,11703 17848,11683 17863,11668 17883,11656 17903,11644 17924,11639 17947,11639 17971,11639 17991,11644 18011,11656 18032,11668 18046,11683 18058,11703 18070,11723 18075,11744 18075,11767 Z"/>
       </g>
      </g>
      <g class="com.sun.star.drawing.ClosedBezierShape">
       <g id="id36">
        <rect class="BoundingBox" stroke="none" fill="none" x="19095" y="11849" width="257" height="257"/>
        <path fill="rgb(0,0,0)" stroke="none" d="M 19351,11977 C 19351,12001 19346,12021 19334,12041 19322,12062 19308,12076 19287,12088 19267,12100 19247,12105 19223,12105 19200,12105 19179,12100 19159,12088 19139,12076 19124,12062 19112,12041 19100,12021 19095,12001 19095,11977 19095,11954 19100,11933 19112,11913 19124,11893 19139,11878 19159,11866 19179,11854 19200,11849 19223,11849 19247,11849 19267,11854 19287,11866 19308,11878 19322,11893 19334,11913 19346,11933 19351,11954 19351,11977 Z"/>
       </g>
      </g>
      <g class="com.sun.star.drawing.PolyPolygonShape">
       <g id="id37">
        <rect class="BoundingBox" stroke="none" fill="none" x="14428" y="4867" width="1" height="1"/>
        <path fill="rgb(0,0,0)" stroke="none" d="M 14428,4867 L 14428,4867 Z"/>
       </g>
      </g>
      <g class="com.sun.star.drawing.PolyPolygonShape">
       <g id="id38">
        <rect class="BoundingBox" stroke="none" fill="none" x="19751" y="2579" width="1" height="1"/>
        <path fill="rgb(0,0,0)" stroke="none" d="M 19751,2579 L 19751,2579 Z"/>
       </g>
      </g>
      <g class="com.sun.star.drawing.PolyPolygonShape">
       <g id="id39">
        <rect class="BoundingBox" stroke="none" fill="none" x="21793" y="5095" width="1" height="1"/>
        <path fill="rgb(0,0,0)" stroke="none" d="M 21793,5095 L 21793,5095 Z"/>
       </g>
      </g>
      <g class="com.sun.star.drawing.PolyPolygonShape">
       <g id="id40">
        <rect class="BoundingBox" stroke="none" fill="none" x="22777" y="9206" width="1" height="1"/>
        <path fill="rgb(0,0,0)" stroke="none" d="M 22777,9206 L 22777,9206 Z"/>
       </g>
      </g>
      <g class="com.sun.star.drawing.ClosedBezierShape">
       <g id="id41">
        <rect class="BoundingBox" stroke="none" fill="none" x="18375" y="2698" width="257" height="257"/>
        <path fill="rgb(0,0,0)" stroke="none" d="M 18631,2826 C 18631,2850 18626,2870 18614,2890 18602,2911 18588,2925 18567,2937 18547,2949 18527,2954 18503,2954 18480,2954 18459,2949 18439,2937 18419,2925 18404,2911 18392,2890 18380,2870 18375,2850 18375,2826 18375,2803 18380,2782 18392,2762 18404,2742 18419,2727 18439,2715 18459,2703 18480,2698 18503,2698 18527,2698 18547,2703 18567,2715 18588,2727 18602,2742 18614,2762 18626,2782 18631,2803 18631,2826 Z"/>
       </g>
      </g>
      <g class="com.sun.star.drawing.ClosedBezierShape">
       <g id="id42">
        <rect class="BoundingBox" stroke="none" fill="none" x="21383" y="3883" width="257" height="257"/>
        <path fill="rgb(0,0,0)" stroke="none" d="M 21639,4011 C 21639,4035 21634,4055 21622,4075 21610,4096 21596,4110 21575,4122 21555,4134 21535,4139 21511,4139 21488,4139 21467,4134 21447,4122 21427,4110 21412,4096 21400,4075 21388,4055 21383,4035 21383,4011 21383,3988 21388,3967 21400,3947 21412,3927 21427,3912 21447,3900 21467,3888 21488,3883 21511,3883 21535,3883 21555,3888 21575,3900 21596,3912 21610,3927 21622,3947 21634,3967 21639,3988 21639,4011 Z"/>
       </g>
      </g>
      <g class="com.sun.star.drawing.ClosedBezierShape">
       <g id="id43">
        <rect class="BoundingBox" stroke="none" fill="none" x="14328" y="9296" width="1041" height="978"/>
        <path fill="rgb(0,0,0)" stroke="none" d="M 15295,9452 C 15341,9525 15368,9598 15368,9671 15368,9762 15341,9835 15176,9944 L 14720,10273 14638,10154 C 14638,10154 15103,9817 15113,9817 15195,9762 15231,9716 15231,9652 15231,9616 15213,9570 15186,9525 15140,9461 15085,9434 15030,9434 14985,9434 14930,9470 14839,9534 L 14410,9826 14328,9707 14739,9434 C 14848,9351 14939,9297 15030,9297 15149,9288 15240,9370 15295,9452 Z"/>
       </g>
      </g>
      <g class="com.sun.star.drawing.PolyPolygonShape">
       <g id="id44">
        <rect class="BoundingBox" stroke="none" fill="none" x="13827" y="8258" width="1088" height="950"/>
        <path fill="rgb(0,0,0)" stroke="none" d="M 13827,8559 L 14694,8258 14739,8386 14238,8997 14867,8751 14913,8878 14055,9207 14009,9079 14511,8468 13873,8696 13827,8559 Z"/>
       </g>
      </g>
      <g class="com.sun.star.drawing.PolyPolygonShape">
       <g id="id45">
        <rect class="BoundingBox" stroke="none" fill="none" x="13699" y="7729" width="932" height="285"/>
        <path fill="rgb(0,0,0)" stroke="none" d="M 13699,7866 L 14611,7729 14630,7875 13717,8013 13699,7866 Z"/>
       </g>
      </g>
      <g class="com.sun.star.drawing.PolyPolygonShape">
       <g id="id46">
        <rect class="BoundingBox" stroke="none" fill="none" x="13645" y="6608" width="941" height="813"/>
        <path fill="rgb(0,0,0)" stroke="none" d="M 13672,6763 L 13672,6608 14585,6982 14576,7137 13645,7420 13645,7265 14402,7055 13672,6763 Z"/>
       </g>
      </g>
      <g class="com.sun.star.drawing.ClosedBezierShape">
       <g id="id47">
        <rect class="BoundingBox" stroke="none" fill="none" x="14118" y="4703" width="1123" height="859"/>
        <path fill="rgb(0,0,0)" stroke="none" d="M 14501,4703 C 14373,4703 14310,4776 14227,4931 L 14118,5123 14930,5561 15003,5433 14665,5251 14684,5214 C 14738,5114 14757,5095 14903,5105 L 15167,5132 15240,4995 14939,4968 C 14875,4959 14830,4959 14793,4968 14784,4968 14766,4977 14747,4986 14747,4968 14757,4949 14757,4940 14757,4913 14757,4886 14747,4867 14729,4813 14693,4767 14629,4740 14592,4721 14547,4703 14501,4703 Z M 14337,4986 C 14392,4886 14428,4849 14483,4849 14501,4849 14529,4858 14556,4867 14592,4886 14620,4922 14629,4949 14629,4959 14638,4977 14638,4986 14638,5041 14611,5095 14574,5150 L 14556,5187 14300,5050 14337,4986 Z"/>
       </g>
      </g>
      <g class="com.sun.star.drawing.PolyPolygonShape">
       <g id="id48">
        <rect class="BoundingBox" stroke="none" fill="none" x="15512" y="3318" width="677" height="822"/>
        <path fill="rgb(0,0,0)" stroke="none" d="M 15513,3409 L 15632,3318 16188,4048 16070,4139 15513,3409 Z"/>
       </g>
      </g>
      <g class="com.sun.star.drawing.PolyPolygonShape">
       <g id="id49">
        <rect class="BoundingBox" stroke="none" fill="none" x="16014" y="2734" width="786" height="995"/>
        <path fill="rgb(0,0,0)" stroke="none" d="M 16014,3044 L 16607,2734 16662,2843 16434,2962 16799,3665 16671,3728 16306,3026 16069,3145 16014,3044 Z"/>
       </g>
      </g>
      <g class="com.sun.star.drawing.PolyPolygonShape">
       <g id="id50">
        <rect class="BoundingBox" stroke="none" fill="none" x="16953" y="2415" width="704" height="1005"/>
        <path fill="rgb(0,0,0)" stroke="none" d="M 17501,2461 L 17656,2415 17528,3035 17628,3382 17492,3419 17391,3072 16953,2616 17108,2570 17419,2899 17501,2461 Z"/>
       </g>
      </g>
      <g class="com.sun.star.drawing.PolyPolygonShape">
       <g id="id51">
        <rect class="BoundingBox" stroke="none" fill="none" x="20307" y="2926" width="904" height="869"/>
        <path fill="rgb(0,0,0)" stroke="none" d="M 20307,3720 L 20772,2926 21210,3182 21146,3291 20836,3109 20708,3328 21000,3501 20937,3610 20645,3437 20435,3793 20307,3720 Z"/>
       </g>
      </g>
      <g class="com.sun.star.drawing.PolyPolygonShape">
       <g id="id52">
        <rect class="BoundingBox" stroke="none" fill="none" x="22130" y="5368" width="1115" height="977"/>
        <path fill="rgb(0,0,0)" stroke="none" d="M 22677,5769 L 23015,5368 23070,5523 22823,5806 23197,5888 23243,6034 22732,5915 22367,6344 22312,6189 22586,5870 22176,5779 22130,5623 22677,5769 Z"/>
       </g>
      </g>
      <g class="com.sun.star.drawing.PolyPolygonShape">
       <g id="id53">
        <rect class="BoundingBox" stroke="none" fill="none" x="22413" y="6599" width="969" height="531"/>
        <path fill="rgb(0,0,0)" stroke="none" d="M 22413,6672 L 23335,6599 23380,7110 23252,7120 23225,6754 22970,6773 22997,7120 22878,7129 22851,6782 22431,6818 22413,6672 Z"/>
       </g>
      </g>
      <g class="com.sun.star.drawing.ClosedBezierShape">
       <g id="id54">
        <rect class="BoundingBox" stroke="none" fill="none" x="22367" y="7491" width="959" height="851"/>
        <path fill="rgb(0,0,0)" stroke="none" d="M 22814,7492 C 22705,7492 22613,7519 22531,7574 22394,7675 22367,7821 22367,7903 22367,8213 22659,8341 22878,8341 22987,8341 23079,8313 23161,8259 23316,8149 23325,7976 23325,7921 23325,7647 23079,7492 22814,7492 Z M 22887,8195 C 22705,8195 22495,8094 22495,7912 22495,7848 22522,7757 22595,7702 22650,7665 22723,7638 22805,7638 22896,7638 23060,7665 23152,7784 23179,7821 23197,7875 23197,7921 23197,7994 23170,8076 23097,8131 23042,8176 22969,8195 22887,8195 Z"/>
       </g>
      </g>
      <g class="com.sun.star.drawing.ClosedBezierShape">
       <g id="id55">
        <rect class="BoundingBox" stroke="none" fill="none" x="21757" y="4430" width="941" height="895"/>
        <path fill="rgb(0,0,0)" stroke="none" d="M 22286,4430 C 22195,4430 22095,4457 21994,4521 21821,4631 21757,4795 21757,4914 21757,4987 21775,5069 21821,5133 21921,5288 22067,5324 22168,5324 22259,5324 22359,5297 22460,5233 22569,5160 22697,5023 22697,4841 22697,4768 22679,4695 22633,4622 22551,4494 22423,4430 22286,4430 Z M 22140,5178 C 22058,5178 21985,5142 21930,5060 21903,5014 21894,4977 21894,4932 21894,4831 21958,4722 22076,4640 22158,4585 22231,4567 22304,4567 22396,4567 22469,4603 22514,4685 22542,4731 22560,4777 22560,4822 22560,4923 22496,5023 22377,5096 22295,5151 22213,5178 22140,5178 Z"/>
       </g>
      </g>
      <g class="com.sun.star.drawing.ClosedBezierShape">
       <g id="id56">
        <rect class="BoundingBox" stroke="none" fill="none" x="19314" y="2534" width="859" height="950"/>
        <path fill="rgb(0,0,0)" stroke="none" d="M 19770,2534 C 19579,2534 19414,2662 19341,2890 19323,2945 19314,2990 19314,3036 19314,3127 19332,3200 19369,3273 19451,3428 19606,3483 19725,3483 19789,3483 19852,3465 19916,3437 20071,3355 20172,3154 20172,2963 20172,2881 20154,2808 20117,2735 20053,2607 19916,2534 19770,2534 Z M 19725,3355 C 19661,3355 19560,3319 19506,3227 19478,3182 19469,3118 19469,3063 19469,2899 19579,2671 19779,2671 19889,2671 20035,2753 20035,2963 20035,3081 19944,3355 19725,3355 Z"/>
       </g>
      </g>
      <g class="com.sun.star.drawing.PolyPolygonShape">
       <g id="id57">
        <rect class="BoundingBox" stroke="none" fill="none" x="13772" y="5651" width="1032" height="759"/>
        <path fill="rgb(0,0,0)" stroke="none" d="M 14675,5870 L 14803,5907 14666,6409 13772,6162 13927,5651 14046,5688 13936,6053 14183,6116 14274,5779 14392,5815 14301,6153 14575,6226 14675,5870 Z"/>
       </g>
      </g>
      <g class="com.sun.star.drawing.ClosedBezierShape">
       <g id="id58">
        <rect class="BoundingBox" stroke="none" fill="none" x="14802" y="3810" width="877" height="933"/>
        <path fill="rgb(0,0,0)" stroke="none" d="M 14911,3947 C 15039,3801 15167,3810 15167,3810 L 15185,3929 C 15185,3929 15085,3929 15003,4020 14966,4056 14948,4102 14948,4139 14948,4166 14957,4193 14984,4212 15048,4266 15158,4202 15222,4175 15276,4157 15350,4120 15422,4120 15477,4120 15532,4139 15587,4184 15651,4239 15678,4312 15678,4376 15678,4458 15651,4522 15587,4595 15468,4723 15313,4741 15313,4741 L 15286,4613 C 15377,4595 15450,4558 15495,4504 15532,4467 15541,4421 15541,4385 15541,4348 15523,4321 15495,4294 15468,4275 15441,4266 15413,4266 15359,4266 15286,4303 15222,4321 15112,4367 14994,4403 14884,4312 14829,4266 14802,4202 14802,4139 14820,4093 14848,4011 14911,3947 Z"/>
       </g>
      </g>
      <g class="com.sun.star.drawing.ClosedBezierShape">
       <g id="id59">
        <rect class="BoundingBox" stroke="none" fill="none" x="21957" y="8559" width="1096" height="822"/>
        <path fill="rgb(0,0,0)" stroke="none" d="M 22167,8687 L 22513,8842 22495,8878 C 22450,8988 22431,9006 22285,9006 L 22021,9006 21957,9152 22258,9152 C 22322,9152 22368,9152 22404,9134 22413,9125 22431,9125 22441,9107 22441,9116 22441,9125 22441,9134 22441,9170 22450,9198 22459,9234 22504,9335 22614,9380 22696,9380 22842,9380 22897,9289 22970,9134 22970,9125 23052,8933 23052,8933 L 22212,8559 22167,8687 Z M 22714,9225 C 22669,9225 22605,9198 22577,9134 22568,9116 22568,9097 22568,9079 22568,9024 22596,8979 22614,8924 L 22632,8888 22897,9006 22869,9079 C 22815,9198 22778,9225 22714,9225 Z"/>
       </g>
      </g>
      <g class="com.sun.star.drawing.ClosedBezierShape">
       <g id="id60">
        <rect class="BoundingBox" stroke="none" fill="none" x="21520" y="9388" width="1023" height="996"/>
        <path fill="rgb(0,0,0)" stroke="none" d="M 21684,9552 C 21593,9671 21520,9780 21520,9917 21520,10036 21575,10164 21712,10273 21803,10346 21903,10382 22004,10382 22131,10382 22232,10346 22396,10145 L 22542,9963 21821,9388 21684,9552 Z M 22013,10246 C 21940,10246 21867,10218 21803,10164 21730,10109 21657,10018 21657,9899 21657,9817 21702,9744 21766,9662 L 21830,9589 22359,10008 22323,10063 C 22204,10173 22140,10246 22013,10246 Z"/>
       </g>
      </g>
      <g class="com.sun.star.drawing.ClosedBezierShape">
       <g id="id61">
        <rect class="BoundingBox" stroke="none" fill="none" x="13225" y="1960" width="10557" height="12617"/>
        <path fill="rgb(0,0,0)" stroke="none" d="M 23781,7229 C 23781,4330 21411,1960 18503,1960 15595,1960 13225,4321 13225,7229 13225,8970 14082,10592 15522,11577 15668,12105 16151,12497 16716,12497 16871,12497 17026,12470 17163,12415 17354,12479 17555,12534 17755,12570 17701,12734 17619,12880 17537,13017 L 17527,13017 17637,13126 C 17664,13108 17701,13099 17728,13099 17837,13099 17929,13190 17929,13299 17929,13409 17837,13500 17728,13500 17637,13500 17546,13436 17509,13372 17509,13372 17482,13464 17482,13582 17482,13956 17892,14393 18466,14576 19041,14393 19451,13965 19451,13582 19451,13454 19424,13372 19424,13372 19378,13427 19305,13500 19205,13500 19095,13500 19004,13409 19004,13299 19004,13190 19095,13099 19205,13099 19241,13099 19278,13108 19305,13126 L 19414,13017 C 19351,12871 19314,12743 19278,12616 20226,12488 21028,12087 21666,11422 23024,10410 23781,8888 23781,7229 Z M 16734,12342 C 16133,12342 15650,11850 15650,11258 15650,11066 15695,10893 15777,10738 15832,10793 15896,10838 15951,10893 15896,11002 15868,11130 15868,11258 15868,11586 16033,11850 16342,12042 16525,12151 16725,12242 16935,12324 16880,12342 16807,12342 16734,12342 Z M 18503,10765 C 18275,10765 18056,10747 17837,10702 17628,10291 17199,10027 16734,10027 16616,10027 16507,10045 16406,10073 15513,9407 14975,8350 14975,7238 14975,5287 16561,3701 18512,3701 20463,3701 22049,5287 22049,7238 22049,9188 20454,10765 18503,10765 Z M 19296,10820 C 19187,10975 19123,11185 19104,11394 18767,11312 18466,11194 18202,11075 18257,10975 18393,10911 18503,10911 18776,10911 19041,10875 19296,10820 Z M 18175,10893 C 18129,10929 18093,10966 18065,11011 17929,10948 17764,10866 17655,10802 17810,10838 18011,10884 18175,10893 Z M 16734,10164 C 17099,10164 17436,10346 17637,10647 17464,10601 17290,10547 17126,10474 L 17117,10474 C 16999,10419 16871,10392 16744,10392 16452,10392 16197,10538 16042,10747 15978,10711 15905,10674 15841,10629 16042,10355 16361,10164 16734,10164 Z M 19232,12944 C 19041,12944 18877,13081 18877,13290 18877,13500 19041,13637 19232,13637 19259,13637 19287,13628 19314,13628 19278,13919 18931,14247 18494,14393 18056,14247 17719,13919 17673,13628 17701,13637 17728,13637 17755,13637 17965,13637 18111,13491 18111,13290 18111,13099 17956,12944 17764,12944 17828,12835 17883,12716 17919,12598 18166,12643 18403,12661 18621,12661 18804,12661 18977,12652 19150,12634 19177,12734 19205,12835 19250,12944 19250,12944 19241,12944 19232,12944 Z M 18630,12516 C 17919,12516 17044,12279 16434,11914 16251,11805 16033,11604 16033,11258 16033,11166 16051,11075 16087,10993 16315,11185 16552,11358 16698,11440 16734,11458 16753,11467 16789,11467 16880,11467 16962,11394 16962,11294 16962,11221 16926,11166 16862,11139 16734,11084 16470,10975 16188,10829 16315,10656 16525,10547 16753,10547 16862,10547 16962,10574 17053,10610 L 17245,10720 C 17865,11094 19451,12060 21356,11531 20627,12187 19733,12516 18630,12516 Z M 21593,11303 C 20736,11604 19934,11586 19250,11431 19269,11130 19396,10802 19588,10738 21092,10273 22185,8869 22185,7220 22185,5187 20526,3537 18494,3537 16461,3537 14820,5196 14820,7229 14820,8359 15349,9435 16233,10127 16023,10218 15841,10373 15714,10556 15650,10510 15577,10465 15522,10410 L 15486,10446 C 15522,10492 15586,10556 15659,10629 15549,10811 15486,11030 15486,11258 15486,11294 15486,11331 15495,11367 14173,10401 13389,8869 13389,7229 13389,4403 15686,2115 18503,2115 21320,2115 23617,4412 23617,7229 23626,8842 22887,10328 21593,11303 Z"/>
       </g>
      </g>
     </g>
    </g>
   </g>
  </g>
 </g>
</svg>