<?xml version="1.0" encoding="UTF-8"?>
<!DOCTYPE svg PUBLIC "-//W3C//DTD SVG 1.1//EN" "http://www.w3.org/Graphics/SVG/1.1/DTD/svg11.dtd">
<svg version="1.2" width="53.73mm" height="64.22mm" viewBox="18408 1960 5373 6422" preserveAspectRatio="xMidYMid" fill-rule="evenodd" stroke-width="28.222" stroke-linejoin="round" xmlns="http://www.w3.org/2000/svg" xmlns:ooo="http://xml.openoffice.org/svg/export" xmlns:xlink="http://www.w3.org/1999/xlink" xmlns:presentation="http://sun.com/xmlns/staroffice/presentation" xmlns:smil="http://www.w3.org/2001/SMIL20/" xmlns:anim="urn:oasis:names:tc:opendocument:xmlns:animation:1.0" xml:space="preserve">
 <defs class="ClipPathGroup">
  <clipPath id="presentation_clip_path" clipPathUnits="userSpaceOnUse">
   <rect x="18408" y="1960" width="5373" height="6422"/>
  </clipPath>
  <clipPath id="presentation_clip_path_shrink" clipPathUnits="userSpaceOnUse">
   <rect x="18413" y="1966" width="5363" height="6410"/>
  </clipPath>
 </defs>
 <defs class="TextShapeIndex">
  <g ooo:slide="id1" ooo:id-list="id3 id4 id5 id6 id7 id8 id9 id10 id11 id12 id13 id14 id15 id16 id17 id18 id19 id20 id21 id22 id23 id24 id25 id26 id27 id28 id29 id30 id31 id32 id33 id34 id35 id36 id37 id38 id39 id40 id41 id42 id43"/>
 </defs>
 <defs class="EmbeddedBulletChars">
  <g id="bullet-char-template-57356" transform="scale(0.00048828125,-0.00048828125)">
   <path d="M 580,1141 L 1163,571 580,0 -4,571 580,1141 Z"/>
  </g>
  <g id="bullet-char-template-57354" transform="scale(0.00048828125,-0.00048828125)">
   <path d="M 8,1128 L 1137,1128 1137,0 8,0 8,1128 Z"/>
  </g>
  <g id="bullet-char-template-10146" transform="scale(0.00048828125,-0.00048828125)">
   <path d="M 174,0 L 602,739 174,1481 1456,739 174,0 Z M 1358,739 L 309,1346 659,739 1358,739 Z"/>
  </g>
  <g id="bullet-char-template-10132" transform="scale(0.00048828125,-0.00048828125)">
   <path d="M 2015,739 L 1276,0 717,0 1260,543 174,543 174,936 1260,936 717,1481 1274,1481 2015,739 Z"/>
  </g>
  <g id="bullet-char-template-10007" transform="scale(0.00048828125,-0.00048828125)">
   <path d="M 0,-2 C -7,14 -16,27 -25,37 L 356,567 C 262,823 215,952 215,954 215,979 228,992 255,992 264,992 276,990 289,987 310,991 331,999 354,1012 L 381,999 492,748 772,1049 836,1024 860,1049 C 881,1039 901,1025 922,1006 886,937 835,863 770,784 769,783 710,716 594,584 L 774,223 C 774,196 753,168 711,139 L 727,119 C 717,90 699,76 672,76 641,76 570,178 457,381 L 164,-76 C 142,-110 111,-127 72,-127 30,-127 9,-110 8,-76 1,-67 -2,-52 -2,-32 -2,-23 -1,-13 0,-2 Z"/>
  </g>
  <g id="bullet-char-template-10004" transform="scale(0.00048828125,-0.00048828125)">
   <path d="M 285,-33 C 182,-33 111,30 74,156 52,228 41,333 41,471 41,549 55,616 82,672 116,743 169,778 240,778 293,778 328,747 346,684 L 369,508 C 377,444 397,411 428,410 L 1163,1116 C 1174,1127 1196,1133 1229,1133 1271,1133 1292,1118 1292,1087 L 1292,965 C 1292,929 1282,901 1262,881 L 442,47 C 390,-6 338,-33 285,-33 Z"/>
  </g>
  <g id="bullet-char-template-9679" transform="scale(0.00048828125,-0.00048828125)">
   <path d="M 813,0 C 632,0 489,54 383,161 276,268 223,411 223,592 223,773 276,916 383,1023 489,1130 632,1184 813,1184 992,1184 1136,1130 1245,1023 1353,916 1407,772 1407,592 1407,412 1353,268 1245,161 1136,54 992,0 813,0 Z"/>
  </g>
  <g id="bullet-char-template-8226" transform="scale(0.00048828125,-0.00048828125)">
   <path d="M 346,457 C 273,457 209,483 155,535 101,586 74,649 74,723 74,796 101,859 155,911 209,963 273,989 346,989 419,989 480,963 531,910 582,859 608,796 608,723 608,648 583,586 532,535 482,483 420,457 346,457 Z"/>
  </g>
  <g id="bullet-char-template-8211" transform="scale(0.00048828125,-0.00048828125)">
   <path d="M -4,459 L 1135,459 1135,606 -4,606 -4,459 Z"/>
  </g>
  <g id="bullet-char-template-61548" transform="scale(0.00048828125,-0.00048828125)">
   <path d="M 173,740 C 173,903 231,1043 346,1159 462,1274 601,1332 765,1332 928,1332 1067,1274 1183,1159 1299,1043 1357,903 1357,740 1357,577 1299,437 1183,322 1067,206 928,148 765,148 601,148 462,206 346,322 231,437 173,577 173,740 Z"/>
  </g>
 </defs>
 <defs class="TextEmbeddedBitmaps"/>
 <g class="SlideGroup">
  <g>
   <g id="container-id1">
    <g id="id1" class="Slide" clip-path="url(#presentation_clip_path)">
     <g class="Page">
      <g class="com.sun.star.drawing.ClosedBezierShape">
       <g id="id3">
        <rect class="BoundingBox" stroke="none" fill="none" x="19813" y="4084" width="2369" height="1376"/>
        <path fill="rgb(255,255,255)" stroke="none" d="M 22097,4122 C 22097,4122 22097,5231 22097,5305 22027,5305 21243,5305 21243,5305 L 21234,5329 C 21220,5366 21192,5398 21099,5398 21006,5398 20978,5366 20965,5329 L 20955,5305 C 20955,5305 20171,5305 20101,5305 20101,5231 20101,4122 20101,4122 L 20022,4122 20022,4159 19948,4136 C 19939,4108 19911,4085 19883,4085 19846,4085 19814,4117 19814,4154 19814,4192 19846,4224 19883,4224 19902,4224 19916,4219 19930,4205 L 20027,4233 20027,4326 19953,4312 C 19943,4289 19916,4271 19888,4271 19851,4271 19818,4303 19818,4340 19818,4377 19851,4409 19888,4409 19906,4409 19925,4400 19939,4387 L 20027,4400 20027,4498 19953,4493 C 19939,4475 19920,4461 19892,4461 19855,4461 19823,4493 19823,4530 19823,4567 19855,4600 19892,4600 19916,4600 19934,4586 19948,4572 L 20027,4577 20027,4683 19948,4688 C 19934,4670 19916,4660 19892,4660 19855,4660 19823,4693 19823,4730 19823,4767 19855,4799 19892,4799 19916,4799 19939,4786 19953,4767 L 20027,4762 20027,4860 19943,4874 C 19930,4860 19911,4850 19892,4850 19855,4850 19823,4883 19823,4920 19823,4957 19855,4990 19892,4990 19920,4990 19948,4971 19958,4948 L 20027,4934 20027,5032 19934,5060 C 19920,5050 19906,5041 19888,5041 19851,5041 19818,5073 19818,5110 19818,5148 19851,5180 19888,5180 19920,5180 19948,5157 19953,5129 L 20022,5106 20022,5198 19920,5245 C 19911,5236 19897,5231 19883,5231 19846,5231 19814,5264 19814,5301 19814,5338 19846,5371 19883,5371 19916,5371 19948,5347 19953,5310 L 20027,5277 20027,5361 C 20027,5361 20872,5361 20914,5361 20951,5426 21011,5459 21103,5459 21197,5459 21261,5426 21294,5361 21336,5361 22180,5361 22180,5361 L 22180,4122 22097,4122 Z"/>
       </g>
      </g>
      <g class="com.sun.star.drawing.ClosedBezierShape">
       <g id="id4">
        <rect class="BoundingBox" stroke="none" fill="none" x="20189" y="3731" width="652" height="124"/>
        <path fill="rgb(255,255,255)" stroke="none" d="M 20839,3793 C 20839,3804 20826,3813 20796,3823 20766,3832 20729,3839 20677,3845 20625,3851 20574,3853 20515,3853 20454,3853 20404,3851 20352,3845 20300,3839 20263,3832 20233,3823 20203,3813 20189,3804 20189,3793 20189,3781 20203,3772 20233,3762 20263,3753 20300,3746 20352,3740 20404,3734 20454,3732 20515,3732 20574,3732 20625,3734 20677,3740 20729,3746 20766,3753 20796,3762 20826,3772 20839,3781 20839,3793 Z"/>
       </g>
      </g>
      <g class="com.sun.star.drawing.ClosedBezierShape">
       <g id="id5">
        <rect class="BoundingBox" stroke="none" fill="none" x="20064" y="3249" width="930" height="448"/>
        <path fill="rgb(255,255,255)" stroke="none" d="M 20960,3343 L 20774,3472 20774,3486 20820,3505 C 20830,3510 20830,3514 20826,3519 L 20709,3616 20700,3616 20616,3496 C 20612,3486 20612,3482 20621,3477 L 20677,3468 20677,3454 20533,3249 20509,3249 20366,3454 20366,3468 20421,3477 C 20431,3477 20436,3486 20426,3496 L 20342,3616 20333,3616 20222,3519 C 20217,3514 20217,3510 20226,3505 L 20273,3486 20273,3472 20078,3343 20064,3347 20180,3695 C 20241,3667 20370,3649 20528,3649 20686,3649 20816,3667 20876,3695 L 20993,3347 20960,3343 Z"/>
       </g>
      </g>
      <g class="com.sun.star.drawing.ClosedBezierShape">
       <g id="id6">
        <rect class="BoundingBox" stroke="none" fill="none" x="20769" y="6070" width="652" height="123"/>
        <path fill="rgb(255,255,255)" stroke="none" d="M 21420,6131 C 21420,6142 21406,6152 21376,6161 21346,6171 21309,6178 21257,6183 21205,6189 21154,6192 21095,6192 21035,6192 20984,6189 20932,6183 20880,6178 20843,6171 20813,6161 20783,6152 20770,6142 20770,6131 20770,6120 20783,6110 20813,6101 20843,6091 20880,6084 20932,6079 20984,6073 21035,6070 21095,6070 21154,6070 21205,6073 21257,6079 21309,6084 21346,6091 21376,6101 21406,6110 21420,6120 21420,6131 Z"/>
       </g>
      </g>
      <g class="com.sun.star.drawing.ClosedBezierShape">
       <g id="id7">
        <rect class="BoundingBox" stroke="none" fill="none" x="20643" y="5592" width="931" height="448"/>
        <path fill="rgb(255,255,255)" stroke="none" d="M 21540,5685 L 21354,5815 21354,5829 21400,5848 C 21410,5853 21410,5857 21405,5862 L 21289,5959 21280,5959 21196,5839 C 21192,5829 21192,5825 21201,5820 L 21257,5811 21257,5797 21113,5592 21089,5592 20946,5797 20946,5811 21001,5820 C 21010,5820 21015,5829 21006,5839 L 20922,5959 20913,5959 20802,5862 C 20797,5857 20797,5853 20806,5848 L 20853,5829 20853,5815 20658,5685 20644,5690 20760,6038 C 20820,6010 20950,5992 21108,5992 21266,5992 21396,6010 21456,6038 L 21572,5690 21540,5685 Z"/>
       </g>
      </g>
      <g class="com.sun.star.drawing.ClosedBezierShape">
       <g id="id8">
        <rect class="BoundingBox" stroke="none" fill="none" x="21349" y="3731" width="652" height="124"/>
        <path fill="rgb(255,255,255)" stroke="none" d="M 21999,3793 C 21999,3804 21986,3813 21956,3823 21926,3832 21889,3839 21837,3845 21785,3851 21734,3853 21675,3853 21615,3853 21564,3851 21512,3845 21460,3839 21423,3832 21393,3823 21363,3813 21349,3804 21349,3793 21349,3781 21363,3772 21393,3762 21423,3753 21460,3746 21512,3740 21564,3734 21615,3732 21675,3732 21734,3732 21785,3734 21837,3740 21889,3746 21926,3753 21956,3762 21986,3772 21999,3781 21999,3793 Z"/>
       </g>
      </g>
      <g class="com.sun.star.drawing.ClosedBezierShape">
       <g id="id9">
        <rect class="BoundingBox" stroke="none" fill="none" x="21224" y="3249" width="930" height="443"/>
        <path fill="rgb(255,255,255)" stroke="none" d="M 22120,3343 L 21934,3472 21934,3486 21981,3505 C 21990,3510 21990,3514 21986,3519 L 21870,3616 21860,3616 21776,3496 C 21772,3486 21772,3482 21781,3477 L 21837,3468 21837,3454 21693,3249 21670,3249 21526,3454 21526,3468 21581,3477 C 21591,3477 21596,3486 21586,3496 L 21503,3616 21493,3616 21382,3514 C 21377,3510 21377,3505 21386,3500 L 21433,3482 21433,3468 21238,3337 21224,3343 21340,3691 C 21401,3663 21531,3644 21688,3644 21846,3644 21976,3663 22037,3691 L 22153,3343 22120,3343 Z"/>
       </g>
      </g>
      <g class="com.sun.star.drawing.ClosedBezierShape">
       <g id="id10">
        <rect class="BoundingBox" stroke="none" fill="none" x="20212" y="4038" width="847" height="1279"/>
        <path fill="rgb(255,255,255)" stroke="none" d="M 21058,4299 C 21058,4201 21025,4117 20951,4076 20904,4048 20844,4038 20765,4038 L 20213,4038 20213,5157 20816,5157 C 20955,5157 21039,5189 21043,5315 L 21058,5315 21058,4299 Z M 20649,4368 C 20663,4368 20668,4363 20668,4354 20668,4345 20672,4336 20672,4312 L 20677,4261 C 20677,4229 20677,4229 20659,4224 L 20659,4215 20714,4215 20756,4312 20793,4215 20854,4215 20854,4224 C 20835,4224 20835,4229 20835,4252 L 20839,4336 C 20839,4363 20839,4363 20858,4363 L 20858,4373 20779,4373 20779,4363 C 20798,4363 20798,4359 20798,4336 L 20798,4247 20751,4373 20737,4373 20691,4257 20691,4312 C 20691,4336 20691,4345 20691,4354 20691,4363 20695,4363 20714,4368 L 20714,4377 20653,4377 20649,4368 Z M 20793,4614 C 20770,4604 20747,4591 20747,4563 20747,4535 20765,4512 20807,4512 20816,4512 20821,4512 20830,4516 20835,4516 20839,4521 20844,4521 20844,4531 20848,4544 20848,4558 L 20839,4558 C 20835,4544 20826,4526 20807,4526 20793,4526 20784,4535 20784,4549 20784,4563 20793,4567 20807,4577 L 20811,4582 C 20835,4591 20854,4604 20854,4632 20854,4665 20830,4683 20793,4683 20784,4683 20775,4683 20765,4679 20756,4674 20751,4674 20751,4674 20751,4665 20747,4651 20742,4632 L 20751,4628 C 20756,4642 20770,4670 20793,4670 20807,4670 20816,4660 20816,4646 20816,4628 20807,4619 20793,4614 Z M 20631,4535 C 20635,4549 20653,4595 20663,4623 20672,4600 20686,4554 20691,4544 20695,4531 20695,4526 20681,4526 L 20672,4526 20672,4516 20732,4516 20732,4526 C 20719,4526 20714,4531 20705,4549 20705,4554 20672,4628 20653,4674 L 20635,4674 C 20616,4628 20593,4567 20584,4544 20575,4521 20570,4521 20561,4521 L 20561,4512 20640,4512 20640,4521 20631,4521 C 20626,4526 20626,4531 20631,4535 Z M 20556,4215 C 20603,4215 20635,4247 20635,4299 20635,4349 20598,4382 20552,4382 20500,4382 20468,4345 20468,4299 20473,4261 20500,4215 20556,4215 Z M 20282,4377 L 20282,4368 C 20301,4368 20301,4363 20301,4340 L 20301,4257 C 20301,4229 20301,4229 20282,4229 L 20282,4220 20357,4220 C 20389,4220 20412,4224 20431,4243 20445,4252 20454,4271 20454,4294 20454,4354 20408,4382 20352,4382 L 20282,4382 20282,4377 Z M 20449,4818 C 20431,4818 20431,4823 20431,4846 L 20431,4930 C 20431,4957 20431,4957 20449,4957 L 20449,4967 20370,4967 20370,4957 C 20389,4957 20389,4953 20389,4930 L 20389,4846 C 20389,4818 20389,4818 20370,4818 L 20370,4809 20449,4809 20449,4818 Z M 20449,4674 L 20389,4674 20389,4665 C 20398,4665 20408,4660 20408,4651 20408,4642 20408,4628 20408,4604 L 20408,4558 C 20408,4540 20408,4535 20403,4531 20398,4526 20394,4526 20384,4521 L 20384,4512 20440,4512 20524,4614 20524,4582 C 20524,4554 20524,4544 20524,4535 20524,4526 20515,4521 20500,4521 L 20500,4512 20565,4512 20565,4521 C 20552,4521 20547,4526 20547,4535 20547,4544 20547,4558 20547,4582 L 20547,4674 20524,4674 20431,4558 20431,4604 C 20431,4632 20431,4642 20431,4651 20431,4660 20440,4665 20454,4665 L 20449,4674 Z M 20584,4971 L 20463,4971 20463,4962 C 20482,4962 20482,4957 20482,4934 L 20482,4851 C 20482,4823 20482,4823 20463,4823 L 20463,4814 20543,4814 20543,4823 C 20524,4823 20524,4827 20524,4851 L 20524,4934 C 20524,4948 20524,4953 20528,4957 20533,4957 20537,4957 20547,4957 20556,4957 20565,4957 20570,4948 20575,4943 20579,4939 20584,4925 L 20593,4925 C 20593,4939 20589,4962 20584,4971 Z M 20723,4971 L 20603,4971 20603,4962 C 20621,4962 20621,4957 20621,4934 L 20621,4851 C 20621,4823 20621,4823 20603,4823 L 20603,4814 20681,4814 20681,4823 C 20663,4823 20663,4827 20663,4851 L 20663,4934 C 20663,4948 20663,4953 20668,4957 20672,4957 20677,4957 20686,4957 20695,4957 20705,4957 20709,4948 20714,4943 20719,4939 20723,4925 L 20732,4925 C 20732,4939 20723,4962 20723,4971 Z M 20876,4818 C 20863,4818 20858,4823 20848,4841 20848,4846 20816,4920 20798,4967 L 20779,4967 C 20760,4920 20737,4860 20728,4837 20719,4814 20714,4814 20705,4814 L 20705,4804 20784,4804 20784,4814 20775,4814 C 20765,4814 20765,4818 20770,4827 20775,4841 20793,4888 20802,4915 20811,4893 20826,4846 20830,4837 20835,4823 20835,4818 20821,4818 L 20811,4818 20811,4809 20872,4809 20876,4818 Z M 20955,4229 C 20937,4229 20937,4233 20937,4257 L 20937,4340 C 20937,4368 20937,4368 20955,4368 L 20955,4377 20876,4377 20876,4368 C 20895,4368 20895,4363 20895,4340 L 20895,4257 C 20895,4229 20895,4229 20876,4229 L 20876,4220 20955,4220 20955,4229 Z"/>
       </g>
      </g>
      <g class="com.sun.star.drawing.ClosedBezierShape">
       <g id="id11">
        <rect class="BoundingBox" stroke="none" fill="none" x="20347" y="4233" width="62" height="137"/>
        <path fill="rgb(255,255,255)" stroke="none" d="M 20356,4233 C 20352,4233 20347,4233 20347,4233 20347,4233 20347,4238 20347,4247 L 20347,4340 C 20347,4364 20352,4368 20366,4368 20389,4368 20408,4345 20408,4303 20403,4247 20380,4233 20356,4233 Z"/>
       </g>
      </g>
      <g class="com.sun.star.drawing.ClosedBezierShape">
       <g id="id12">
        <rect class="BoundingBox" stroke="none" fill="none" x="20522" y="4224" width="73" height="146"/>
        <path fill="rgb(255,255,255)" stroke="none" d="M 20561,4369 C 20584,4369 20593,4350 20593,4303 20593,4252 20575,4224 20556,4224 20537,4224 20524,4248 20524,4289 20519,4336 20533,4369 20561,4369 Z"/>
       </g>
      </g>
      <g class="com.sun.star.drawing.PolyPolygonShape">
       <g id="id13">
        <rect class="BoundingBox" stroke="none" fill="none" x="21720" y="4859" width="35" height="49"/>
        <path fill="rgb(255,255,255)" stroke="none" d="M 21735,4859 L 21720,4906 21754,4906 21735,4859 Z"/>
       </g>
      </g>
      <g class="com.sun.star.drawing.PolyPolygonShape">
       <g id="id14">
        <rect class="BoundingBox" stroke="none" fill="none" x="21775" y="4270" width="35" height="49"/>
        <path fill="rgb(255,255,255)" stroke="none" d="M 21795,4271 L 21776,4317 21809,4317 21795,4271 Z"/>
       </g>
      </g>
      <g class="com.sun.star.drawing.ClosedBezierShape">
       <g id="id15">
        <rect class="BoundingBox" stroke="none" fill="none" x="21655" y="4525" width="77" height="147"/>
        <path fill="rgb(255,255,255)" stroke="none" d="M 21655,4591 C 21655,4638 21674,4670 21698,4670 21720,4670 21730,4651 21730,4604 21730,4554 21711,4526 21692,4526 21670,4526 21655,4544 21655,4591 Z"/>
       </g>
      </g>
      <g class="com.sun.star.drawing.ClosedBezierShape">
       <g id="id16">
        <rect class="BoundingBox" stroke="none" fill="none" x="21131" y="4042" width="852" height="1279"/>
        <path fill="rgb(255,255,255)" stroke="none" d="M 21424,4043 C 21350,4043 21285,4052 21238,4080 21164,4122 21131,4201 21131,4303 L 21131,5320 21145,5320 C 21155,5194 21234,5161 21373,5161 L 21981,5161 21981,4043 21424,4043 Z M 21554,4219 L 21609,4219 21693,4321 21693,4289 C 21693,4261 21693,4252 21693,4243 21693,4233 21684,4229 21670,4229 L 21670,4219 21735,4219 21735,4229 C 21721,4229 21716,4233 21716,4243 21716,4252 21716,4266 21716,4289 L 21716,4382 21693,4382 21600,4266 21600,4312 C 21600,4340 21600,4349 21600,4359 21600,4368 21609,4372 21624,4372 L 21624,4382 21559,4382 21559,4372 C 21568,4372 21577,4368 21577,4359 21577,4349 21577,4335 21577,4312 L 21577,4266 C 21577,4247 21577,4243 21572,4238 21568,4233 21563,4233 21554,4229 L 21554,4219 Z M 21777,4591 C 21777,4642 21740,4674 21693,4674 21642,4674 21609,4637 21609,4591 21609,4549 21637,4503 21693,4503 21740,4512 21777,4544 21777,4591 Z M 21591,4665 L 21591,4674 21512,4674 21512,4665 C 21531,4665 21531,4660 21531,4637 L 21531,4554 C 21531,4526 21531,4526 21512,4526 L 21512,4516 21591,4516 21591,4526 C 21572,4526 21572,4530 21572,4554 L 21572,4637 C 21572,4660 21572,4665 21591,4665 Z M 21461,4368 C 21480,4368 21480,4363 21480,4340 L 21480,4256 C 21480,4229 21480,4229 21461,4229 L 21461,4219 21540,4219 21540,4229 C 21521,4229 21521,4233 21521,4256 L 21521,4340 C 21521,4368 21521,4368 21540,4368 L 21540,4377 21461,4377 21461,4368 Z M 21466,4665 L 21466,4674 21377,4674 21377,4665 C 21396,4665 21401,4660 21401,4637 L 21401,4530 21396,4530 C 21377,4530 21373,4535 21368,4540 21364,4544 21364,4549 21359,4563 L 21350,4563 C 21350,4544 21354,4526 21354,4512 L 21364,4512 C 21368,4516 21368,4516 21377,4516 L 21475,4516 C 21480,4516 21484,4516 21489,4512 L 21498,4512 C 21498,4521 21498,4544 21503,4563 L 21493,4563 C 21489,4549 21489,4540 21484,4540 21480,4535 21470,4535 21461,4535 L 21456,4535 21456,4642 C 21442,4660 21442,4665 21466,4665 Z M 21298,4377 L 21238,4377 21238,4368 C 21252,4368 21257,4363 21257,4354 21257,4345 21261,4335 21261,4312 L 21266,4261 C 21266,4229 21266,4229 21248,4224 L 21248,4215 21303,4215 21345,4312 21382,4215 21442,4215 21442,4224 C 21424,4224 21424,4229 21424,4252 L 21429,4335 C 21429,4363 21429,4363 21447,4363 L 21447,4372 21368,4372 21368,4363 C 21387,4363 21387,4359 21387,4335 L 21387,4247 21340,4372 21326,4372 21280,4256 21280,4312 C 21280,4335 21280,4345 21280,4354 21280,4363 21285,4363 21303,4368 L 21298,4377 Z M 21517,4971 L 21438,4971 21438,4962 C 21456,4962 21456,4957 21456,4934 L 21456,4846 21410,4971 21396,4971 21350,4855 21350,4911 C 21350,4934 21350,4943 21350,4953 21350,4962 21354,4962 21373,4967 L 21373,4976 21313,4976 21313,4967 C 21326,4967 21331,4962 21331,4953 21331,4943 21336,4934 21336,4911 L 21340,4860 C 21340,4827 21340,4827 21322,4823 L 21322,4814 21377,4814 21419,4911 21456,4814 21517,4814 21517,4823 C 21498,4823 21498,4827 21498,4851 L 21503,4934 C 21503,4962 21503,4962 21521,4962 L 21517,4971 Z M 21656,4971 L 21531,4971 21531,4962 C 21549,4962 21554,4957 21554,4934 L 21554,4851 C 21554,4823 21554,4823 21535,4823 L 21535,4814 21651,4814 C 21651,4818 21651,4837 21656,4855 L 21647,4855 C 21642,4841 21642,4837 21637,4832 21633,4827 21624,4827 21614,4827 L 21605,4827 C 21596,4827 21596,4827 21596,4837 L 21596,4883 21609,4883 C 21633,4883 21633,4883 21633,4865 L 21642,4865 21642,4925 21633,4925 C 21628,4902 21628,4902 21609,4902 L 21596,4902 21596,4943 C 21596,4957 21596,4962 21600,4967 21605,4967 21609,4967 21619,4967 21628,4967 21637,4967 21647,4957 21651,4953 21656,4943 21661,4934 L 21670,4934 C 21665,4939 21661,4962 21656,4971 Z M 21828,4971 L 21749,4971 21749,4962 21758,4962 C 21767,4962 21767,4957 21763,4948 L 21754,4925 21712,4925 21703,4948 C 21698,4957 21698,4962 21712,4962 L 21721,4962 21721,4971 21665,4971 21665,4962 C 21679,4962 21684,4957 21688,4939 L 21740,4814 21758,4809 21777,4855 C 21786,4883 21800,4915 21810,4939 21819,4962 21823,4962 21832,4962 L 21828,4971 Z M 21888,4377 L 21810,4377 21810,4368 21819,4368 C 21828,4368 21828,4363 21823,4354 L 21814,4331 21772,4331 21763,4354 C 21758,4363 21758,4368 21772,4368 L 21782,4368 21782,4377 21726,4377 21726,4368 C 21740,4368 21744,4363 21749,4345 L 21800,4219 21819,4215 21837,4261 C 21846,4289 21860,4321 21870,4345 21879,4368 21883,4368 21893,4368 L 21888,4377 Z"/>
       </g>
      </g>
      <g class="com.sun.star.drawing.ClosedBezierShape">
       <g id="id17">
        <rect class="BoundingBox" stroke="none" fill="none" x="20746" y="6886" width="132" height="133"/>
        <path fill="rgb(255,255,255)" stroke="none" d="M 20876,6952 C 20876,6964 20874,6975 20868,6985 20862,6995 20855,7003 20844,7009 20834,7015 20823,7017 20811,7017 20800,7017 20789,7015 20779,7009 20769,7003 20761,6995 20755,6985 20749,6975 20746,6964 20746,6952 20746,6940 20749,6930 20755,6920 20761,6909 20769,6902 20779,6896 20789,6890 20800,6887 20811,6887 20823,6887 20834,6890 20844,6896 20855,6902 20862,6909 20868,6920 20874,6930 20876,6940 20876,6952 Z"/>
       </g>
      </g>
      <g class="com.sun.star.drawing.ClosedBezierShape">
       <g id="id18">
        <rect class="BoundingBox" stroke="none" fill="none" x="21395" y="6993" width="132" height="133"/>
        <path fill="rgb(255,255,255)" stroke="none" d="M 21526,7059 C 21526,7071 21523,7081 21517,7092 21511,7102 21504,7109 21493,7116 21483,7122 21473,7124 21461,7124 21449,7124 21438,7122 21428,7116 21418,7109 21410,7102 21404,7092 21398,7081 21396,7071 21396,7059 21396,7047 21398,7037 21404,7026 21410,7016 21418,7009 21428,7003 21438,6996 21449,6994 21461,6994 21473,6994 21483,6996 21493,7003 21504,7009 21511,7016 21517,7026 21523,7037 21526,7047 21526,7059 Z"/>
       </g>
      </g>
      <g class="com.sun.star.drawing.PolyPolygonShape">
       <g id="id19">
        <rect class="BoundingBox" stroke="none" fill="none" x="19019" y="3439" width="2" height="2"/>
        <path fill="rgb(255,255,255)" stroke="none" d="M 19020,3440 L 19020,3440 Z"/>
       </g>
      </g>
      <g class="com.sun.star.drawing.PolyPolygonShape">
       <g id="id20">
        <rect class="BoundingBox" stroke="none" fill="none" x="21729" y="2275" width="2" height="2"/>
        <path fill="rgb(255,255,255)" stroke="none" d="M 21730,2275 L 21730,2275 Z"/>
       </g>
      </g>
      <g class="com.sun.star.drawing.PolyPolygonShape">
       <g id="id21">
        <rect class="BoundingBox" stroke="none" fill="none" x="22769" y="3555" width="2" height="2"/>
        <path fill="rgb(255,255,255)" stroke="none" d="M 22769,3556 L 22769,3556 Z"/>
       </g>
      </g>
      <g class="com.sun.star.drawing.PolyPolygonShape">
       <g id="id22">
        <rect class="BoundingBox" stroke="none" fill="none" x="23269" y="5648" width="2" height="2"/>
        <path fill="rgb(255,255,255)" stroke="none" d="M 23270,5648 L 23270,5648 Z"/>
       </g>
      </g>
      <g class="com.sun.star.drawing.ClosedBezierShape">
       <g id="id23">
        <rect class="BoundingBox" stroke="none" fill="none" x="21029" y="2335" width="132" height="132"/>
        <path fill="rgb(255,255,255)" stroke="none" d="M 21159,2401 C 21159,2413 21157,2423 21151,2433 21145,2444 21138,2451 21127,2457 21117,2463 21107,2466 21094,2466 21083,2466 21072,2463 21062,2457 21052,2451 21044,2444 21038,2433 21032,2423 21029,2413 21029,2401 21029,2389 21032,2378 21038,2368 21044,2358 21052,2350 21062,2344 21072,2338 21083,2336 21094,2336 21107,2336 21117,2338 21127,2344 21138,2350 21145,2358 21151,2368 21157,2378 21159,2389 21159,2401 Z"/>
       </g>
      </g>
      <g class="com.sun.star.drawing.ClosedBezierShape">
       <g id="id24">
        <rect class="BoundingBox" stroke="none" fill="none" x="22560" y="2938" width="132" height="133"/>
        <path fill="rgb(255,255,255)" stroke="none" d="M 22691,3004 C 22691,3016 22688,3026 22682,3037 22676,3047 22669,3054 22658,3061 22648,3067 22638,3069 22625,3069 22614,3069 22603,3067 22593,3061 22583,3054 22575,3047 22569,3037 22563,3026 22560,3016 22560,3004 22560,2992 22563,2982 22569,2971 22575,2961 22583,2954 22593,2948 22603,2941 22614,2939 22625,2939 22638,2939 22648,2941 22658,2948 22669,2954 22676,2961 22682,2971 22688,2982 22691,2992 22691,3004 Z"/>
       </g>
      </g>
      <g class="com.sun.star.drawing.ClosedBezierShape">
       <g id="id25">
        <rect class="BoundingBox" stroke="none" fill="none" x="18969" y="5694" width="531" height="499"/>
        <path fill="rgb(255,255,255)" stroke="none" d="M 19461,5774 C 19485,5811 19498,5848 19498,5885 19498,5931 19485,5968 19401,6024 L 19169,6191 19127,6131 C 19127,6131 19364,5959 19369,5959 19410,5931 19429,5908 19429,5875 19429,5857 19420,5834 19406,5811 19382,5778 19354,5764 19326,5764 19304,5764 19276,5783 19229,5815 L 19011,5964 18969,5903 19178,5764 C 19234,5722 19280,5695 19326,5695 19387,5690 19433,5732 19461,5774 Z"/>
       </g>
      </g>
      <g class="com.sun.star.drawing.PolyPolygonShape">
       <g id="id26">
        <rect class="BoundingBox" stroke="none" fill="none" x="18714" y="5165" width="554" height="485"/>
        <path fill="rgb(255,255,255)" stroke="none" d="M 18714,5319 L 19155,5166 19178,5231 18923,5542 19243,5417 19267,5482 18830,5649 18807,5584 19062,5273 18737,5389 18714,5319 Z"/>
       </g>
      </g>
      <g class="com.sun.star.drawing.PolyPolygonShape">
       <g id="id27">
        <rect class="BoundingBox" stroke="none" fill="none" x="18648" y="4896" width="476" height="147"/>
        <path fill="rgb(255,255,255)" stroke="none" d="M 18649,4966 L 19113,4897 19123,4971 18658,5041 18649,4966 Z"/>
       </g>
      </g>
      <g class="com.sun.star.drawing.PolyPolygonShape">
       <g id="id28">
        <rect class="BoundingBox" stroke="none" fill="none" x="18621" y="4326" width="480" height="415"/>
        <path fill="rgb(255,255,255)" stroke="none" d="M 18635,4405 L 18635,4326 19100,4516 19095,4595 18621,4739 18621,4660 19007,4554 18635,4405 Z"/>
       </g>
      </g>
      <g class="com.sun.star.drawing.ClosedBezierShape">
       <g id="id29">
        <rect class="BoundingBox" stroke="none" fill="none" x="18862" y="3356" width="573" height="439"/>
        <path fill="rgb(255,255,255)" stroke="none" d="M 19057,3356 C 18992,3356 18960,3393 18918,3472 L 18862,3570 19276,3793 19313,3728 19141,3635 19150,3616 C 19178,3566 19187,3556 19262,3561 L 19396,3575 19433,3505 19280,3491 C 19248,3487 19225,3487 19206,3491 19201,3491 19192,3496 19182,3500 19182,3491 19187,3482 19187,3477 19187,3463 19187,3449 19182,3440 19173,3412 19155,3389 19122,3375 19103,3365 19081,3356 19057,3356 Z M 18974,3500 C 19002,3449 19020,3431 19048,3431 19057,3431 19071,3435 19085,3440 19103,3449 19118,3468 19122,3482 19122,3487 19127,3496 19127,3500 19127,3528 19113,3556 19094,3584 L 19085,3603 18955,3533 18974,3500 Z"/>
       </g>
      </g>
      <g class="com.sun.star.drawing.PolyPolygonShape">
       <g id="id30">
        <rect class="BoundingBox" stroke="none" fill="none" x="19572" y="2651" width="345" height="420"/>
        <path fill="rgb(255,255,255)" stroke="none" d="M 19572,2698 L 19633,2651 19916,3023 19856,3069 19572,2698 Z"/>
       </g>
      </g>
      <g class="com.sun.star.drawing.PolyPolygonShape">
       <g id="id31">
        <rect class="BoundingBox" stroke="none" fill="none" x="19827" y="2353" width="401" height="508"/>
        <path fill="rgb(255,255,255)" stroke="none" d="M 19827,2512 L 20129,2354 20157,2409 20041,2470 20227,2828 20162,2860 19976,2503 19855,2563 19827,2512 Z"/>
       </g>
      </g>
      <g class="com.sun.star.drawing.PolyPolygonShape">
       <g id="id32">
        <rect class="BoundingBox" stroke="none" fill="none" x="20305" y="2191" width="360" height="513"/>
        <path fill="rgb(255,255,255)" stroke="none" d="M 20584,2215 L 20663,2192 20598,2507 20649,2684 20580,2703 20528,2526 20305,2294 20384,2271 20543,2438 20584,2215 Z"/>
       </g>
      </g>
      <g class="com.sun.star.drawing.PolyPolygonShape">
       <g id="id33">
        <rect class="BoundingBox" stroke="none" fill="none" x="22012" y="2451" width="462" height="444"/>
        <path fill="rgb(255,255,255)" stroke="none" d="M 22013,2856 L 22249,2452 22472,2582 22440,2638 22282,2545 22217,2656 22365,2744 22333,2800 22185,2712 22078,2893 22013,2856 Z"/>
       </g>
      </g>
      <g class="com.sun.star.drawing.PolyPolygonShape">
       <g id="id34">
        <rect class="BoundingBox" stroke="none" fill="none" x="22940" y="3694" width="569" height="499"/>
        <path fill="rgb(255,255,255)" stroke="none" d="M 23219,3899 L 23391,3695 23419,3774 23293,3918 23484,3959 23507,4034 23247,3973 23061,4192 23033,4113 23173,3950 22964,3904 22941,3825 23219,3899 Z"/>
       </g>
      </g>
      <g class="com.sun.star.drawing.PolyPolygonShape">
       <g id="id35">
        <rect class="BoundingBox" stroke="none" fill="none" x="23084" y="4321" width="494" height="272"/>
        <path fill="rgb(255,255,255)" stroke="none" d="M 23085,4359 L 23554,4321 23577,4582 23512,4587 23498,4400 23368,4410 23382,4587 23321,4591 23308,4415 23094,4433 23085,4359 Z"/>
       </g>
      </g>
      <g class="com.sun.star.drawing.ClosedBezierShape">
       <g id="id36">
        <rect class="BoundingBox" stroke="none" fill="none" x="23061" y="4775" width="489" height="435"/>
        <path fill="rgb(255,255,255)" stroke="none" d="M 23289,4776 C 23233,4776 23186,4790 23145,4818 23075,4869 23061,4943 23061,4985 23061,5143 23210,5208 23321,5208 23377,5208 23424,5194 23465,5166 23544,5110 23549,5022 23549,4994 23549,4855 23424,4776 23289,4776 Z M 23326,5134 C 23233,5134 23126,5082 23126,4990 23126,4957 23140,4911 23177,4883 23205,4864 23242,4850 23284,4850 23331,4850 23414,4864 23461,4925 23475,4943 23484,4971 23484,4994 23484,5032 23470,5073 23433,5101 23405,5124 23368,5134 23326,5134 Z"/>
       </g>
      </g>
      <g class="com.sun.star.drawing.ClosedBezierShape">
       <g id="id37">
        <rect class="BoundingBox" stroke="none" fill="none" x="22750" y="3217" width="481" height="457"/>
        <path fill="rgb(255,255,255)" stroke="none" d="M 23020,3217 C 22974,3217 22923,3231 22871,3264 22783,3320 22751,3403 22751,3464 22751,3501 22760,3543 22783,3575 22834,3654 22909,3672 22960,3672 23006,3672 23057,3659 23109,3626 23164,3589 23229,3519 23229,3427 23229,3389 23220,3352 23197,3315 23155,3250 23090,3217 23020,3217 Z M 22946,3598 C 22904,3598 22867,3580 22839,3538 22825,3515 22820,3496 22820,3473 22820,3421 22853,3366 22913,3324 22955,3296 22992,3287 23029,3287 23076,3287 23113,3305 23136,3347 23150,3371 23159,3394 23159,3417 23159,3468 23127,3519 23066,3556 23025,3584 22983,3598 22946,3598 Z"/>
       </g>
      </g>
      <g class="com.sun.star.drawing.ClosedBezierShape">
       <g id="id38">
        <rect class="BoundingBox" stroke="none" fill="none" x="21507" y="2252" width="438" height="485"/>
        <path fill="rgb(255,255,255)" stroke="none" d="M 21739,2252 C 21642,2252 21558,2317 21521,2433 21512,2461 21507,2484 21507,2508 21507,2554 21516,2591 21535,2628 21577,2707 21656,2735 21716,2735 21749,2735 21781,2726 21814,2712 21892,2670 21944,2568 21944,2471 21944,2429 21935,2392 21916,2355 21883,2289 21814,2252 21739,2252 Z M 21716,2670 C 21684,2670 21632,2652 21605,2605 21591,2582 21586,2549 21586,2521 21586,2438 21642,2322 21744,2322 21800,2322 21874,2364 21874,2471 21874,2531 21828,2670 21716,2670 Z"/>
       </g>
      </g>
      <g class="com.sun.star.drawing.PolyPolygonShape">
       <g id="id39">
        <rect class="BoundingBox" stroke="none" fill="none" x="18686" y="3838" width="526" height="388"/>
        <path fill="rgb(255,255,255)" stroke="none" d="M 19146,3950 L 19211,3969 19141,4225 18686,4099 18765,3839 18826,3858 18770,4043 18895,4076 18942,3904 19002,3922 18955,4094 19095,4132 19146,3950 Z"/>
       </g>
      </g>
      <g class="com.sun.star.drawing.ClosedBezierShape">
       <g id="id40">
        <rect class="BoundingBox" stroke="none" fill="none" x="19210" y="2901" width="448" height="476"/>
        <path fill="rgb(255,255,255)" stroke="none" d="M 19266,2972 C 19331,2897 19396,2902 19396,2902 L 19405,2962 C 19405,2962 19354,2962 19313,3009 19294,3027 19285,3050 19285,3069 19285,3083 19289,3097 19303,3106 19336,3134 19392,3101 19424,3088 19452,3078 19489,3060 19526,3060 19554,3060 19582,3069 19610,3092 19643,3120 19656,3157 19656,3190 19656,3232 19643,3264 19610,3301 19549,3367 19470,3376 19470,3376 L 19457,3311 C 19503,3301 19540,3283 19563,3255 19582,3236 19587,3213 19587,3194 19587,3176 19577,3162 19563,3148 19549,3138 19536,3134 19521,3134 19494,3134 19457,3153 19424,3162 19368,3185 19308,3204 19252,3157 19224,3134 19210,3101 19210,3069 19220,3046 19234,3004 19266,2972 Z"/>
       </g>
      </g>
      <g class="com.sun.star.drawing.ClosedBezierShape">
       <g id="id41">
        <rect class="BoundingBox" stroke="none" fill="none" x="22852" y="5319" width="559" height="420"/>
        <path fill="rgb(255,255,255)" stroke="none" d="M 22959,5384 L 23136,5463 23126,5482 C 23103,5538 23094,5547 23019,5547 L 22885,5547 22853,5621 23006,5621 C 23038,5621 23062,5621 23080,5612 23085,5607 23094,5607 23099,5598 23099,5603 23099,5607 23099,5612 23099,5630 23103,5644 23108,5663 23131,5714 23187,5737 23229,5737 23303,5737 23331,5691 23368,5612 23368,5607 23410,5510 23410,5510 L 22982,5319 22959,5384 Z M 23238,5658 C 23215,5658 23182,5644 23168,5612 23164,5603 23164,5593 23164,5584 23164,5556 23178,5533 23187,5505 L 23196,5487 23331,5547 23317,5584 C 23289,5644 23270,5658 23238,5658 Z"/>
       </g>
      </g>
      <g class="com.sun.star.drawing.ClosedBezierShape">
       <g id="id42">
        <rect class="BoundingBox" stroke="none" fill="none" x="22630" y="5741" width="522" height="508"/>
        <path fill="rgb(255,255,255)" stroke="none" d="M 22714,5825 C 22667,5885 22630,5941 22630,6010 22630,6071 22658,6136 22728,6192 22774,6229 22825,6247 22876,6247 22941,6247 22993,6229 23076,6126 L 23150,6034 22783,5741 22714,5825 Z M 22881,6178 C 22844,6178 22807,6164 22774,6136 22737,6108 22700,6062 22700,6001 22700,5959 22723,5922 22755,5881 L 22788,5843 23057,6057 23039,6085 C 22978,6141 22946,6178 22881,6178 Z"/>
       </g>
      </g>
      <g class="com.sun.star.drawing.ClosedBezierShape">
       <g id="id43">
        <rect class="BoundingBox" stroke="none" fill="none" x="18407" y="1960" width="5375" height="6423"/>
        <path fill="rgb(255,255,255)" stroke="none" d="M 23781,4642 C 23781,3166 22575,1960 21094,1960 19614,1960 18408,3162 18408,4642 18408,5528 18844,6354 19577,6855 19651,7124 19897,7324 20185,7324 20264,7324 20342,7310 20412,7282 20509,7315 20612,7343 20714,7361 20686,7444 20644,7519 20603,7588 L 20597,7588 20653,7644 C 20667,7635 20686,7630 20700,7630 20755,7630 20802,7676 20802,7732 20802,7788 20755,7834 20700,7834 20653,7834 20607,7802 20588,7769 20588,7769 20575,7816 20575,7876 20575,8066 20783,8289 21075,8382 21368,8289 21577,8071 21577,7876 21577,7811 21563,7769 21563,7769 21540,7797 21503,7834 21452,7834 21396,7834 21349,7788 21349,7732 21349,7676 21396,7630 21452,7630 21470,7630 21489,7635 21503,7644 L 21558,7588 C 21526,7514 21507,7449 21489,7384 21971,7319 22380,7115 22704,6777 23396,6261 23781,5487 23781,4642 Z M 20194,7245 C 19888,7245 19642,6994 19642,6693 19642,6595 19665,6507 19707,6428 19735,6456 19767,6479 19795,6507 19767,6563 19753,6628 19753,6693 19753,6860 19837,6994 19994,7092 20087,7148 20189,7194 20296,7236 20268,7245 20231,7245 20194,7245 Z M 21094,6442 C 20978,6442 20867,6433 20755,6410 20649,6201 20431,6066 20194,6066 20134,6066 20078,6076 20027,6090 19572,5751 19298,5213 19298,4647 19298,3654 20106,2846 21099,2846 22092,2846 22899,3654 22899,4647 22899,5639 22087,6442 21094,6442 Z M 21498,6470 C 21442,6549 21410,6656 21400,6762 21229,6721 21075,6660 20941,6600 20969,6549 21038,6516 21094,6516 21233,6516 21368,6498 21498,6470 Z M 20927,6507 C 20904,6526 20886,6544 20871,6567 20802,6535 20718,6493 20663,6461 20742,6479 20844,6503 20927,6507 Z M 20194,6136 C 20380,6136 20551,6229 20653,6382 20565,6359 20477,6331 20393,6294 L 20389,6294 C 20329,6266 20264,6252 20199,6252 20050,6252 19920,6327 19842,6433 19809,6415 19772,6396 19739,6373 19842,6233 20004,6136 20194,6136 Z M 21465,7551 C 21368,7551 21285,7621 21285,7727 21285,7834 21368,7904 21465,7904 21479,7904 21493,7899 21507,7899 21489,8048 21312,8215 21090,8289 20867,8215 20695,8048 20672,7899 20686,7904 20700,7904 20714,7904 20820,7904 20895,7830 20895,7727 20895,7630 20816,7551 20718,7551 20751,7496 20779,7435 20797,7375 20923,7398 21043,7407 21154,7407 21248,7407 21336,7403 21424,7393 21437,7444 21452,7496 21475,7551 21475,7551 21470,7551 21465,7551 Z M 21159,7333 C 20797,7333 20352,7213 20041,7027 19948,6971 19837,6869 19837,6693 19837,6646 19846,6600 19864,6558 19981,6656 20101,6744 20175,6786 20194,6795 20203,6799 20222,6799 20268,6799 20310,6762 20310,6711 20310,6674 20292,6646 20259,6632 20194,6604 20059,6549 19916,6475 19981,6387 20087,6331 20203,6331 20259,6331 20310,6345 20356,6363 L 20454,6419 C 20770,6610 21577,7101 22547,6832 22176,7166 21720,7333 21159,7333 Z M 22667,6716 C 22231,6869 21823,6860 21475,6781 21484,6628 21549,6461 21647,6428 22412,6192 22969,5477 22969,4638 22969,3603 22124,2763 21090,2763 20055,2763 19220,3607 19220,4642 19220,5217 19489,5765 19939,6117 19832,6164 19739,6243 19675,6336 19642,6312 19605,6289 19577,6261 L 19559,6280 C 19577,6303 19609,6336 19647,6373 19591,6465 19559,6577 19559,6693 19559,6711 19559,6730 19563,6749 18890,6257 18491,5477 18491,4642 18491,3204 19660,2039 21094,2039 22528,2039 23698,3208 23698,4642 23702,5463 23326,6220 22667,6716 Z"/>
       </g>
      </g>
     </g>
    </g>
   </g>
  </g>
 </g>
</svg>