<?xml version="1.0" encoding="utf-8"?>
<!-- Generator: Adobe Illustrator 21.1.0, SVG Export Plug-In . SVG Version: 6.00 Build 0)  -->
<svg version="1.1" id="Layer_1" xmlns="http://www.w3.org/2000/svg" xmlns:xlink="http://www.w3.org/1999/xlink" x="0px" y="0px"
	 viewBox="0 0 112 112" style="enable-background:new 0 0 112 112;" xml:space="preserve">
<style type="text/css">
	.st0{fill:#FED10A;}
	.st1{fill:#0078A0;}
	.st2{fill:#00A9E5;}
	.st3{fill:#353535;}
	.st4{fill:#00BFB3;}
	.st5{fill:#019B8F;}
	.st6{fill:#FFFFFF;}
</style>
<path id="X-Pack_3_" d="M61.7,81.7l19.8-19.8l11.3,11.3c4.7,4.7,4.7,12.3,0,17l-2.8,2.8c-4.7,4.7-12.3,4.7-17,0L61.7,81.7z
	 M92.8,22.3l-2.8-2.8c-4.7-4.7-12.3-4.7-17,0l-17,17v0l-17-17c-4.7-4.7-12.3-4.7-17,0l-2.8,2.8c-4.7,4.7-4.7,12.3,0,17l17,17l0,0
	l-17,17c-4.7,4.7-4.7,12.3,0,17l2.8,2.8c4.7,4.7,12.3,4.7,17,0l17-17l12.4-12.4l7.4-7.4l17-17C97.5,34.6,97.5,27,92.8,22.3z"/>
</svg>
