<?xml version="1.0" encoding="utf-8"?>
<!-- Generator: Adobe Illustrator 21.1.0, SVG Export Plug-In . SVG Version: 6.00 Build 0)  -->
<svg version="1.1" id="Layer_1" xmlns="http://www.w3.org/2000/svg" xmlns:xlink="http://www.w3.org/1999/xlink" x="0px" y="0px"
	 viewBox="0 0 550 250" style="enable-background:new 0 0 550 250;" xml:space="preserve">
<style type="text/css">
	.st0{fill:none;}
	.st1{enable-background:new    ;}
	.st2{fill:#FFFFFF;}
</style>
<g>
	<rect x="242" y="102.5" class="st0" width="165" height="41"/>
	<g class="st1">
		<path class="st2" d="M251.7,125.7l-8.7-12.7h6.3l5.9,9.1l6-9.1h6.2l-8.7,12.7l9.2,13.2h-6.2l-6.4-9.7l-6.4,9.7h-6.2L251.7,125.7z"
			/>
		<path class="st2" d="M270.1,128.5v-4.7h12v4.7H270.1z"/>
		<path class="st2" d="M301,139.4c-3.3,0-5.8-1.2-7.6-3.5H293c0.2,2.2,0.3,3.5,0.3,4v10.6h-5.5v-37.5h4.5c0.1,0.5,0.4,1.6,0.8,3.5
			h0.3c1.7-2.6,4.3-3.9,7.7-3.9c3.2,0,5.8,1.2,7.6,3.5s2.7,5.6,2.7,9.9c0,4.2-0.9,7.5-2.8,9.9S304.2,139.4,301,139.4z M299.6,117.1
			c-2.2,0-3.8,0.6-4.8,1.9s-1.5,3.3-1.5,6.1v0.8c0,3.2,0.5,5.4,1.5,6.9s2.6,2.1,4.9,2.1c1.9,0,3.4-0.8,4.4-2.3s1.5-3.8,1.5-6.7
			c0-2.9-0.5-5.1-1.5-6.6S301.6,117.1,299.6,117.1z"/>
		<path class="st2" d="M333.9,139l-1.1-3.6h-0.2c-1.2,1.6-2.5,2.7-3.8,3.2s-2.9,0.9-4.9,0.9c-2.5,0-4.5-0.7-6-2.1s-2.1-3.3-2.1-5.8
			c0-2.7,1-4.7,3-6s5-2.1,9.1-2.2l4.5-0.1v-1.4c0-1.7-0.4-2.9-1.2-3.7s-2-1.2-3.6-1.2c-1.3,0-2.6,0.2-3.8,0.6s-2.4,0.9-3.5,1.4
			l-1.8-3.9c1.4-0.7,2.9-1.3,4.6-1.7s3.2-0.6,4.7-0.6c3.3,0,5.8,0.7,7.5,2.2s2.5,3.7,2.5,6.8V139H333.9z M325.7,135.2
			c2,0,3.6-0.6,4.8-1.7s1.8-2.7,1.8-4.7v-2.2l-3.3,0.1c-2.6,0.1-4.5,0.5-5.7,1.3c-1.2,0.8-1.8,2-1.8,3.6c0,1.2,0.3,2.1,1,2.7
			S324.4,135.2,325.7,135.2z"/>
		<path class="st2" d="M356,139.4c-3.9,0-6.9-1.1-8.9-3.4s-3.1-5.6-3.1-9.9c0-4.4,1.1-7.7,3.2-10.1s5.2-3.5,9.2-3.5
			c2.7,0,5.2,0.5,7.4,1.5l-1.7,4.4c-2.3-0.9-4.2-1.4-5.8-1.4c-4.5,0-6.7,3-6.7,8.9c0,2.9,0.6,5.1,1.7,6.6s2.8,2.2,4.9,2.2
			c2.5,0,4.8-0.6,7-1.8v4.8c-1,0.6-2,1-3.2,1.2S357.6,139.4,356,139.4z"/>
		<path class="st2" d="M374.7,125.3l3.1-3.9l7.8-8.3h6.4l-10.4,11.1l11.1,14.8h-6.5l-8.3-11.4l-3,2.5v8.9h-5.5v-36.5h5.5v17.8
			l-0.3,5H374.7z"/>
	</g>
	<path id="X-Pack_1_" class="st2" d="M189.4,153.2l19.8-19.8l11.3,11.3c4.7,4.7,4.7,12.3,0,17l-2.8,2.8c-4.7,4.7-12.3,4.7-17,0
		L189.4,153.2z M220.5,93.8l-2.8-2.8c-4.7-4.7-12.3-4.7-17,0l-17,17l0,0l-17-17c-4.7-4.7-12.3-4.7-17,0l-2.8,2.8
		c-4.7,4.7-4.7,12.3,0,17l17,17l0,0l-17,17c-4.7,4.7-4.7,12.3,0,17l2.8,2.8c4.7,4.7,12.3,4.7,17,0l17-17l12.4-12.4l7.4-7.4l17-17
		C225.2,106.1,225.2,98.5,220.5,93.8z"/>
</g>
</svg>
